{
.appVersion = "1231";
DisplayStrings = (
B,
"/B.ss01",
":",
"@",
H,
Aabbl,
"/B.ss01"
);
copyright = "Copyright © 2019 by Red Hat. All rights reserved.";
customParameters = (
{
name = description;
value = "Copyright (c) 2019 by Red Hat. All rights reserved.";
},
{
name = license;
value = "This Font Software is licensed under the SIL Open Font License, Version 1.1. This license is available with a FAQ at: http://scripts.sil.org/OFL";
},
{
name = licenseURL;
value = "http://scripts.sil.org/OFL";
}
);
date = "2019-04-22 16:35:33 +0000";
designer = "Liz Wetzel, Aaron Williamson, Russ McMullin";
designerURL = "https://www.redhat.com/en/open-source-stories/because-we-had-to";
disablesAutomaticAlignment = 1;
familyName = "Because We Connect";
featurePrefixes = (
{
automatic = 1;
code = "languagesystem DFLT dflt;\012languagesystem latn dflt;\012";
name = Languagesystems;
}
);
features = (
{

glyphs = (
{
glyphname = A;
lastChange = "2019-03-20 23:36:59 +0000";
layers = (
{
hints = (
{
place = "{179, 130}";
type = Stem;
}
);
layerId = UUID0;
paths = (
{
closed = 1;
nodes = (
"77 -15 LINE SMOOTH",
"84 -15 OFFCURVE",
"95 -14 OFFCURVE",
"102 -13 CURVE SMOOTH",
"131 -9 OFFCURVE",
"134 -4 OFFCURVE",
"137 25 CURVE SMOOTH",
"143 77 OFFCURVE",
"149 129 OFFCURVE",
"157 181 CURVE SMOOTH",
"165 229 OFFCURVE",
"175 277 OFFCURVE",
"185 325 CURVE SMOOTH",
"215 474 LINE",
"249 481 LINE",
"249 448 LINE",
"251 408 OFFCURVE",
"249 367 OFFCURVE",
"255 327 CURVE SMOOTH",
"264 267 OFFCURVE",
"268 207 OFFCURVE",
"271 146 CURVE SMOOTH",
"273 104 OFFCURVE",
"279 62 OFFCURVE",
"284 20 CURVE",
"285 14 OFFCURVE",
"290 4 OFFCURVE",
"295 3 CURVE SMOOTH",
"323 -2 OFFCURVE",
"351 -8 OFFCURVE",
"379 1 CURVE SMOOTH",
"391 5 OFFCURVE",
"396 12 OFFCURVE",
"395 24 CURVE",
"394 22 LINE",
"392 51 OFFCURVE",
"391 80 OFFCURVE",
"388 109 CURVE SMOOTH",
"381 178 OFFCURVE",
"371 247 OFFCURVE",
"365 316 CURVE SMOOTH",
"354 441 OFFCURVE",
"346 566 OFFCURVE",
"324 690 CURVE SMOOTH",
"316 738 OFFCURVE",
"314 787 OFFCURVE",
"309 836 CURVE SMOOTH",
"307 857 OFFCURVE",
"304 863 OFFCURVE",
"288 860 CURVE SMOOTH",
"259 855 OFFCURVE",
"230 847 OFFCURVE",
"201 839 CURVE SMOOTH",
"190 836 OFFCURVE",
"184 827 OFFCURVE",
"180 815 CURVE SMOOTH",
"146 700 OFFCURVE",
"124 582 OFFCURVE",
"108 463 CURVE SMOOTH",
"102 416 OFFCURVE",
"99 369 OFFCURVE",
"91 323 CURVE SMOOTH",
"74 219 OFFCURVE",
"67 113 OFFCURVE",
"43 10 CURVE SMOOTH",
"40 -5 OFFCURVE",
"47 -14 OFFCURVE",
"62 -15 CURVE"
);
},
{
closed = 1;
nodes = (
"208 579 OFFCURVE",
"224 646 OFFCURVE",
"238 669 CURVE",
"256 572 LINE",
"211 559 LINE"
);
}
);
width = 451;
}
);
unicode = 0041;
},
{
glyphname = B;
lastChange = "2019-03-20 23:36:59 +0000";
layers = (
{
hints = (
{
place = "{40, 80}";
type = Stem;
},
{
place = "{40, 94}";
type = Stem;
}
);
layerId = UUID0;
paths = (
{
closed = 1;
nodes = (
"95 -11 OFFCURVE",
"128 -8 OFFCURVE",
"148 -5 CURVE SMOOTH",
"183 1 OFFCURVE",
"218 9 OFFCURVE",
"253 16 CURVE",
"266 18 OFFCURVE",
"287 24 OFFCURVE",
"300 29 CURVE SMOOTH",
"341 45 OFFCURVE",
"372 74 OFFCURVE",
"402 105 CURVE SMOOTH",
"421 125 OFFCURVE",
"440 164 OFFCURVE",
"444 191 CURVE SMOOTH",
"455 256 OFFCURVE",
"445 319 OFFCURVE",
"424 381 CURVE",
"423 382 LINE",
"417 399 OFFCURVE",
"403 425 OFFCURVE",
"392 440 CURVE SMOOTH",
"364 478 OFFCURVE",
"326 501 OFFCURVE",
"277 504 CURVE",
"271 504 OFFCURVE",
"265 505 OFFCURVE",
"253 506 CURVE",
"277 524 OFFCURVE",
"298 538 OFFCURVE",
"316 554 CURVE SMOOTH",
"332 568 OFFCURVE",
"355 593 OFFCURVE",
"368 610 CURVE SMOOTH",
"382 629 OFFCURVE",
"394 664 OFFCURVE",
"394 688 CURVE SMOOTH",
"394 703 LINE",
"386 788 OFFCURVE",
"321 847 OFFCURVE",
"235 866 CURVE SMOOTH",
"195 875 OFFCURVE",
"155 869 OFFCURVE",
"116 862 CURVE SMOOTH",
"95 858 OFFCURVE",
"75 848 OFFCURVE",
"55 839 CURVE",
"51 837 OFFCURVE",
"48 829 OFFCURVE",
"48 824 CURVE",
"46 801 OFFCURVE",
"44 778 OFFCURVE",
"44 755 CURVE SMOOTH",
"44 646 OFFCURVE",
"44 537 OFFCURVE",
"44 428 CURVE SMOOTH",
"44 20 LINE SMOOTH",
"44 -4 OFFCURVE",
"50 -11 OFFCURVE",
"74 -11 CURVE SMOOTH"
);
},
{
closed = 1;
nodes = (
"134 364 LINE",
"166 377 OFFCURVE",
"201 384 OFFCURVE",
"237 378 CURVE SMOOTH",
"262 374 OFFCURVE",
"278 356 OFFCURVE",
"290 336 CURVE SMOOTH",
"320 288 OFFCURVE",
"328 237 OFFCURVE",
"302 185 CURVE",
"301 185 LINE",
"297 177 OFFCURVE",
"288 165 OFFCURVE",
"281 159 CURVE SMOOTH",
"254 137 OFFCURVE",
"205 112 OFFCURVE",
"172 103 CURVE",
"162 101 OFFCURVE",
"145 98 OFFCURVE",
"134 97 CURVE"
);
},
{
closed = 1;
nodes = (
"121 777 LINE",
"144 780 OFFCURVE",
"165 784 OFFCURVE",
"186 786 CURVE SMOOTH",
"223 789 OFFCURVE",
"250 769 OFFCURVE",
"259 733 CURVE SMOOTH",
"269 691 OFFCURVE",
"264 654 OFFCURVE",
"232 620 CURVE SMOOTH",
"200 586 OFFCURVE",
"163 563 OFFCURVE",
"120 539 CURVE"
);
}
);
width = 504;
}
);
unicode = 0042;
},
{
glyphname = C;
lastChange = "2019-03-20 23:36:59 +0000";
layers = (
{
hints = (
{
place = "{42, 89}";
type = Stem;
},
{
place = "{269, 88}";
type = Stem;
}
);
layerId = UUID0;
paths = (
{
closed = 1;
nodes = (
"250 -2 OFFCURVE",
"281 18 OFFCURVE",
"304 52 CURVE SMOOTH",
"311 62 OFFCURVE",
"320 80 OFFCURVE",
"324 92 CURVE SMOOTH",
"335 129 OFFCURVE",
"347 166 OFFCURVE",
"353 204 CURVE SMOOTH",
"359 242 OFFCURVE",
"359 281 OFFCURVE",
"360 319 CURVE SMOOTH",
"361 340 OFFCURVE",
"356 342 OFFCURVE",
"335 336 CURVE",
"332 330 LINE",
"319 326 OFFCURVE",
"306 323 OFFCURVE",
"293 319 CURVE SMOOTH",
"273 313 OFFCURVE",
"273 313 OFFCURVE",
"271 291 CURVE SMOOTH",
"269 274 OFFCURVE",
"268 257 OFFCURVE",
"265 240 CURVE SMOOTH",
"260 213 OFFCURVE",
"252 187 OFFCURVE",
"232 167 CURVE SMOOTH",
"203 138 OFFCURVE",
"173 144 OFFCURVE",
"158 181 CURVE SMOOTH",
"155 188 OFFCURVE",
"151 200 OFFCURVE",
"149 208 CURVE",
"144 232 OFFCURVE",
"138 256 OFFCURVE",
"137 281 CURVE SMOOTH",
"134 349 OFFCURVE",
"134 417 OFFCURVE",
"133 485 CURVE SMOOTH",
"132 541 OFFCURVE",
"143 595 OFFCURVE",
"159 648 CURVE SMOOTH",
"163 662 OFFCURVE",
"173 683 OFFCURVE",
"181 695 CURVE SMOOTH",
"194 714 OFFCURVE",
"207 717 OFFCURVE",
"227 705 CURVE SMOOTH",
"234 701 OFFCURVE",
"243 691 OFFCURVE",
"247 683 CURVE",
"259 653 OFFCURVE",
"276 625 OFFCURVE",
"277 591 CURVE SMOOTH",
"277 584 OFFCURVE",
"281 577 OFFCURVE",
"284 566 CURVE",
"300 566 OFFCURVE",
"315 564 OFFCURVE",
"329 566 CURVE SMOOTH",
"353 569 OFFCURVE",
"358 577 OFFCURVE",
"352 601 CURVE SMOOTH",
"343 637 OFFCURVE",
"320 692 OFFCURVE",
"300 723 CURVE SMOOTH",
"276 761 OFFCURVE",
"241 777 OFFCURVE",
"199 784 CURVE SMOOTH",
"171 789 OFFCURVE",
"147 780 OFFCURVE",
"126 761 CURVE SMOOTH",
"100 737 OFFCURVE",
"83 708 OFFCURVE",
"71 676 CURVE SMOOTH",
"56 635 OFFCURVE",
"44 566 OFFCURVE",
"44 522 CURVE SMOOTH",
"44 515 LINE SMOOTH",
"45 417 OFFCURVE",
"35 319 OFFCURVE",
"50 222 CURVE SMOOTH",
"56 180 OFFCURVE",
"61 138 OFFCURVE",
"70 96 CURVE SMOOTH",
"79 52 OFFCURVE",
"107 21 OFFCURVE",
"151 8 CURVE SMOOTH",
"169 3 OFFCURVE",
"188 2 OFFCURVE",
"207 1 CURVE SMOOTH"
);
}
);
width = 415;
}
);
unicode = 0043;
},
{
glyphname = D;
lastChange = "2019-03-20 23:36:59 +0000";
layers = (
{
layerId = UUID0;
paths = (
{
closed = 1;
nodes = (
"163 52 OFFCURVE",
"175 54 OFFCURVE",
"187 57 CURVE SMOOTH",
"209 63 OFFCURVE",
"233 66 OFFCURVE",
"253 76 CURVE SMOOTH",
"301 100 OFFCURVE",
"347 127 OFFCURVE",
"387 163 CURVE SMOOTH",
"424 196 OFFCURVE",
"445 237 OFFCURVE",
"443 288 CURVE SMOOTH",
"442 316 OFFCURVE",
"440 344 OFFCURVE",
"437 372 CURVE",
"437 371 LINE",
"426 485 OFFCURVE",
"382 584 OFFCURVE",
"309 671 CURVE SMOOTH",
"296 686 OFFCURVE",
"272 707 OFFCURVE",
"255 718 CURVE SMOOTH",
"230 735 OFFCURVE",
"202 741 OFFCURVE",
"175 750 CURVE SMOOTH",
"158 756 OFFCURVE",
"130 761 OFFCURVE",
"112 761 CURVE SMOOTH",
"101 761 OFFCURVE",
"83 759 OFFCURVE",
"72 757 CURVE",
"63 755 OFFCURVE",
"54 753 OFFCURVE",
"41 750 CURVE",
"41 735 LINE SMOOTH",
"41 731 OFFCURVE",
"41 724 OFFCURVE",
"41 720 CURVE",
"59 558 LINE SMOOTH",
"72 447 OFFCURVE",
"85 336 OFFCURVE",
"99 226 CURVE SMOOTH",
"105 174 OFFCURVE",
"113 122 OFFCURVE",
"121 70 CURVE SMOOTH",
"124 49 OFFCURVE",
"130 46 OFFCURVE",
"151 50 CURVE SMOOTH"
);
},
{
closed = 1;
nodes = (
"189 357 OFFCURVE",
"186 493 OFFCURVE",
"151 626 CURVE",
"151 625 LINE",
"265 564 OFFCURVE",
"314 470 OFFCURVE",
"307 346 CURVE SMOOTH",
"305 316 OFFCURVE",
"290 290 OFFCURVE",
"271 268 CURVE SMOOTH",
"255 250 OFFCURVE",
"234 237 OFFCURVE",
"211 218 CURVE"
);
}
);
width = 500;
}
);
unicode = 0044;
},
{
glyphname = E;
lastChange = "2019-03-20 23:36:59 +0000";
layers = (
{
hints = (
{
place = "{59, 95}";
type = Stem;
},
{
horizontal = 1;
place = "{5, 129}";
type = Stem;
},
{
horizontal = 1;
place = "{13, 136}";
type = Stem;
}
);
layerId = UUID0;
paths = (
{
closed = 1;
nodes = (
"87 4 OFFCURVE",
"92 5 OFFCURVE",
"97 5 CURVE",
"295 14 LINE",
"306 14 OFFCURVE",
"317 14 OFFCURVE",
"328 15 CURVE SMOOTH",
"338 16 OFFCURVE",
"346 22 OFFCURVE",
"346 33 CURVE SMOOTH",
"346 135 LINE SMOOTH",
"346 145 OFFCURVE",
"340 149 OFFCURVE",
"331 149 CURVE SMOOTH",
"326 149 LINE SMOOTH",
"322 149 OFFCURVE",
"315 148 OFFCURVE",
"311 147 CURVE SMOOTH",
"269 135 OFFCURVE",
"226 135 OFFCURVE",
"183 133 CURVE",
"154 133 LINE",
"147 397 LINE",
"187 400 LINE SMOOTH",
"198 401 OFFCURVE",
"209 401 OFFCURVE",
"220 403 CURVE",
"234 405 OFFCURVE",
"241 414 OFFCURVE",
"242 428 CURVE SMOOTH",
"243 448 OFFCURVE",
"245 468 OFFCURVE",
"246 488 CURVE SMOOTH",
"247 506 OFFCURVE",
"240 513 OFFCURVE",
"221 512 CURVE SMOOTH",
"207 511 OFFCURVE",
"193 508 OFFCURVE",
"179 506 CURVE",
"142 503 LINE",
"133 608 LINE",
"135 609 OFFCURVE",
"138 610 OFFCURVE",
"140 610 CURVE",
"263 622 LINE SMOOTH",
"283 624 OFFCURVE",
"302 628 OFFCURVE",
"321 631 CURVE SMOOTH",
"332 633 OFFCURVE",
"339 639 OFFCURVE",
"339 650 CURVE",
"338 678 OFFCURVE",
"337 706 OFFCURVE",
"335 734 CURVE SMOOTH",
"334 748 OFFCURVE",
"328 752 OFFCURVE",
"314 750 CURVE SMOOTH",
"306 749 OFFCURVE",
"298 746 OFFCURVE",
"290 746 CURVE SMOOTH",
"101 740 LINE SMOOTH",
"91 740 OFFCURVE",
"75 738 OFFCURVE",
"65 735 CURVE SMOOTH",
"51 731 OFFCURVE",
"44 721 OFFCURVE",
"44 706 CURVE SMOOTH",
"44 680 OFFCURVE",
"42 654 OFFCURVE",
"43 628 CURVE SMOOTH",
"47 524 OFFCURVE",
"52 421 OFFCURVE",
"56 317 CURVE SMOOTH",
"59 232 OFFCURVE",
"61 147 OFFCURVE",
"63 62 CURVE SMOOTH",
"63 47 OFFCURVE",
"65 32 OFFCURVE",
"66 17 CURVE",
"67 8 OFFCURVE",
"73 4 OFFCURVE",
"82 4 CURVE SMOOTH"
);
}
);
width = 399;
}
);
unicode = 0045;
},
{
glyphname = F;
lastChange = "2019-03-20 23:36:59 +0000";
layers = (
{
hints = (
{
place = "{41, 118}";
type = Stem;
},
{
place = "{46, 117}";
type = Stem;
},
{
place = "{46, 103}";
type = Stem;
},
{
horizontal = 1;
place = "{445, 109}";
type = Stem;
},
{
horizontal = 1;
place = "{704, 99}";
type = Stem;
}
);
layerId = UUID0;
paths = (
{
closed = 1;
nodes = (
"124 -21 LINE",
"149 -20 OFFCURVE",
"157 -10 OFFCURVE",
"158 15 CURVE SMOOTH",
"159 50 OFFCURVE",
"160 85 OFFCURVE",
"162 120 CURVE SMOOTH",
"165 200 OFFCURVE",
"173 279 OFFCURVE",
"168 359 CURVE SMOOTH",
"162 446 LINE",
"175 446 LINE",
"201 447 OFFCURVE",
"227 447 OFFCURVE",
"253 449 CURVE SMOOTH",
"277 451 OFFCURVE",
"282 458 OFFCURVE",
"282 482 CURVE SMOOTH",
"282 499 OFFCURVE",
"283 516 OFFCURVE",
"283 533 CURVE SMOOTH",
"283 549 OFFCURVE",
"278 555 OFFCURVE",
"262 556 CURVE SMOOTH",
"245 557 OFFCURVE",
"228 555 OFFCURVE",
"211 555 CURVE SMOOTH",
"158 555 LINE",
"152 694 LINE",
"171 696 OFFCURVE",
"188 696 OFFCURVE",
"205 699 CURVE SMOOTH",
"239 705 OFFCURVE",
"273 709 OFFCURVE",
"307 706 CURVE",
"314 706 LINE SMOOTH",
"319 706 OFFCURVE",
"327 707 OFFCURVE",
"332 708 CURVE",
"352 711 OFFCURVE",
"359 718 OFFCURVE",
"360 738 CURVE SMOOTH",
"361 758 OFFCURVE",
"361 777 OFFCURVE",
"361 797 CURVE SMOOTH",
"361 815 OFFCURVE",
"355 820 OFFCURVE",
"337 819 CURVE",
"335 816 LINE",
"311 814 OFFCURVE",
"287 811 OFFCURVE",
"263 808 CURVE SMOOTH",
"215 802 OFFCURVE",
"167 797 OFFCURVE",
"119 802 CURVE",
"113 803 OFFCURVE",
"104 803 OFFCURVE",
"98 803 CURVE SMOOTH",
"83 803 LINE",
"55 801 OFFCURVE",
"47 792 OFFCURVE",
"46 765 CURVE",
"45 754 OFFCURVE",
"45 743 OFFCURVE",
"45 732 CURVE SMOOTH",
"46 676 OFFCURVE",
"49 620 OFFCURVE",
"49 564 CURVE SMOOTH",
"48 427 OFFCURVE",
"47 290 OFFCURVE",
"44 153 CURVE SMOOTH",
"43 104 OFFCURVE",
"50 54 OFFCURVE",
"39 5 CURVE SMOOTH",
"36 -9 OFFCURVE",
"44 -18 OFFCURVE",
"59 -19 CURVE SMOOTH",
"73 -20 OFFCURVE",
"96 -21 OFFCURVE",
"110 -21 CURVE SMOOTH"
);
}
);
width = 416;
}
);
unicode = 0046;
},
{
glyphname = G;
lastChange = "2019-03-20 23:36:59 +0000";
layers = (
{
hints = (
{
place = "{390, 102}";
type = Stem;
}
);
layerId = UUID0;
paths = (
{
closed = 1;
nodes = (
"319 -39 OFFCURVE",
"354 -32 OFFCURVE",
"385 -6 CURVE SMOOTH",
"405 11 OFFCURVE",
"431 45 OFFCURVE",
"442 69 CURVE SMOOTH",
"469 125 OFFCURVE",
"489 183 OFFCURVE",
"489 246 CURVE SMOOTH",
"489 289 OFFCURVE",
"486 332 OFFCURVE",
"485 375 CURVE SMOOTH",
"484 398 OFFCURVE",
"485 421 OFFCURVE",
"484 444 CURVE",
"487 442 LINE",
"486 460 OFFCURVE",
"481 464 OFFCURVE",
"463 462 CURVE",
"460 462 OFFCURVE",
"457 461 OFFCURVE",
"454 461 CURVE",
"423 457 OFFCURVE",
"392 453 OFFCURVE",
"361 448 CURVE SMOOTH",
"336 444 OFFCURVE",
"311 440 OFFCURVE",
"286 435 CURVE SMOOTH",
"270 432 OFFCURVE",
"266 425 OFFCURVE",
"268 409 CURVE SMOOTH",
"269 399 OFFCURVE",
"272 389 OFFCURVE",
"274 379 CURVE SMOOTH",
"280 353 OFFCURVE",
"283 349 OFFCURVE",
"310 353 CURVE SMOOTH",
"335 356 OFFCURVE",
"359 363 OFFCURVE",
"385 369 CURVE",
"387 363 OFFCURVE",
"389 354 OFFCURVE",
"389 348 CURVE SMOOTH",
"389 330 OFFCURVE",
"388 312 OFFCURVE",
"386 294 CURVE SMOOTH",
"382 253 OFFCURVE",
"379 212 OFFCURVE",
"372 171 CURVE SMOOTH",
"369 155 OFFCURVE",
"359 131 OFFCURVE",
"349 117 CURVE SMOOTH",
"320 79 OFFCURVE",
"279 68 OFFCURVE",
"244 109 CURVE SMOOTH",
"230 125 OFFCURVE",
"216 143 OFFCURVE",
"208 162 CURVE SMOOTH",
"196 191 OFFCURVE",
"181 239 OFFCURVE",
"175 269 CURVE SMOOTH",
"168 307 OFFCURVE",
"160 370 OFFCURVE",
"157 409 CURVE SMOOTH",
"150 499 OFFCURVE",
"147 589 OFFCURVE",
"161 679 CURVE SMOOTH",
"166 712 OFFCURVE",
"175 743 OFFCURVE",
"193 771 CURVE",
"201 785 OFFCURVE",
"212 794 OFFCURVE",
"229 796 CURVE SMOOTH",
"271 800 OFFCURVE",
"316 776 OFFCURVE",
"334 738 CURVE SMOOTH",
"347 711 OFFCURVE",
"357 682 OFFCURVE",
"368 654 CURVE",
"372 642 OFFCURVE",
"375 629 OFFCURVE",
"379 617 CURVE",
"382 606 OFFCURVE",
"389 602 OFFCURVE",
"400 603 CURVE",
"414 605 OFFCURVE",
"428 606 OFFCURVE",
"442 608 CURVE SMOOTH",
"465 611 OFFCURVE",
"472 622 OFFCURVE",
"466 644 CURVE",
"461 660 OFFCURVE",
"455 676 OFFCURVE",
"451 692 CURVE SMOOTH",
"441 737 OFFCURVE",
"411 803 OFFCURVE",
"384 839 CURVE SMOOTH",
"348 888 OFFCURVE",
"275 921 OFFCURVE",
"205 890 CURVE SMOOTH",
"132 858 OFFCURVE",
"88 801 OFFCURVE",
"69 725 CURVE SMOOTH",
"65 711 OFFCURVE",
"62 697 OFFCURVE",
"60 683 CURVE",
"53 644 OFFCURVE",
"42 605 OFFCURVE",
"39 566 CURVE SMOOTH",
"32 467 OFFCURVE",
"36 368 OFFCURVE",
"58 271 CURVE SMOOTH",
"71 214 OFFCURVE",
"103 126 OFFCURVE",
"130 74 CURVE SMOOTH",
"161 14 OFFCURVE",
"210 -28 OFFCURVE",
"281 -35 CURVE SMOOTH"
);
}
);
width = 550;
}
);
unicode = 0047;
},
{
glyphname = H;
lastChange = "2019-03-20 23:36:59 +0000";
layers = (
{
hints = (
{
place = "{41, 134}";
type = Stem;
},
{
place = "{45, 118}";
type = Stem;
},
{
place = "{237, 138}";
type = Stem;
},
{
place = "{253, 122}";
type = Stem;
},
{
place = "{261, 121}";
type = Stem;
},
{
place = "{265, 137}";
type = Stem;
}
);
layerId = UUID0;
paths = (
{
closed = 1;
nodes = (
"134 -18 OFFCURVE",
"156 -16 OFFCURVE",
"178 -14 CURVE SMOOTH",
"191 -13 OFFCURVE",
"196 -6 OFFCURVE",
"196 6 CURVE SMOOTH",
"196 26 OFFCURVE",
"196 46 OFFCURVE",
"194 66 CURVE SMOOTH",
"185 161 OFFCURVE",
"181 256 OFFCURVE",
"182 351 CURVE SMOOTH",
"182 413 LINE",
"248 427 LINE",
"249 422 OFFCURVE",
"250 414 OFFCURVE",
"250 409 CURVE",
"253 335 OFFCURVE",
"256 261 OFFCURVE",
"258 187 CURVE SMOOTH",
"260 132 OFFCURVE",
"261 77 OFFCURVE",
"263 22 CURVE SMOOTH",
"264 0 OFFCURVE",
"267 -3 OFFCURVE",
"289 -2 CURVE SMOOTH",
"320 -1 OFFCURVE",
"351 1 OFFCURVE",
"382 4 CURVE SMOOTH",
"397 5 OFFCURVE",
"401 10 OFFCURVE",
"400 25 CURVE",
"399 34 OFFCURVE",
"397 49 OFFCURVE",
"395 58 CURVE",
"398 56 LINE",
"389 92 OFFCURVE",
"382 151 OFFCURVE",
"382 188 CURVE SMOOTH",
"382 196 LINE SMOOTH",
"382 223 OFFCURVE",
"381 250 OFFCURVE",
"380 277 CURVE SMOOTH",
"378 343 OFFCURVE",
"373 409 OFFCURVE",
"374 475 CURVE SMOOTH",
"375 581 OFFCURVE",
"368 687 OFFCURVE",
"359 793 CURVE SMOOTH",
"357 816 OFFCURVE",
"350 821 OFFCURVE",
"327 818 CURVE SMOOTH",
"261 809 LINE SMOOTH",
"238 806 OFFCURVE",
"235 804 OFFCURVE",
"236 780 CURVE SMOOTH",
"238 740 OFFCURVE",
"241 700 OFFCURVE",
"244 660 CURVE SMOOTH",
"247 620 OFFCURVE",
"251 581 OFFCURVE",
"254 540 CURVE",
"183 529 LINE",
"182 533 OFFCURVE",
"181 540 OFFCURVE",
"181 544 CURVE",
"179 599 OFFCURVE",
"178 654 OFFCURVE",
"175 709 CURVE SMOOTH",
"173 741 OFFCURVE",
"168 773 OFFCURVE",
"164 805 CURVE SMOOTH",
"162 819 OFFCURVE",
"155 824 OFFCURVE",
"143 822 CURVE SMOOTH",
"74 810 LINE SMOOTH",
"57 807 OFFCURVE",
"45 799 OFFCURVE",
"43 780 CURVE SMOOTH",
"42 768 OFFCURVE",
"40 756 OFFCURVE",
"40 744 CURVE",
"35 636 OFFCURVE",
"47 528 OFFCURVE",
"53 420 CURVE SMOOTH",
"58 327 OFFCURVE",
"64 234 OFFCURVE",
"71 141 CURVE SMOOTH",
"74 95 OFFCURVE",
"80 49 OFFCURVE",
"86 3 CURVE SMOOTH",
"88 -17 OFFCURVE",
"92 -20 OFFCURVE",
"112 -19 CURVE SMOOTH"
);
}
);
width = 461;
}
);
unicode = 0048;
},
{
glyphname = I;
lastChange = "2019-03-20 23:36:59 +0000";
layers = (
{
hints = (
{
place = "{48, 134}";
type = Stem;
},
{
place = "{55, 117}";
type = Stem;
},
{
place = "{55, 107}";
type = Stem;
}
);
layerId = UUID0;
paths = (
{
closed = 1;
nodes = (
"176 5 OFFCURVE",
"179 6 OFFCURVE",
"178 50 CURVE SMOOTH",
"176 127 OFFCURVE",
"171 204 OFFCURVE",
"168 281 CURVE",
"171 284 LINE",
"167 393 OFFCURVE",
"164 502 OFFCURVE",
"160 611 CURVE SMOOTH",
"154 764 LINE SMOOTH",
"153 790 OFFCURVE",
"146 795 OFFCURVE",
"120 793 CURVE SMOOTH",
"105 792 OFFCURVE",
"90 791 OFFCURVE",
"76 789 CURVE SMOOTH",
"68 788 OFFCURVE",
"55 784 OFFCURVE",
"47 780 CURVE",
"37 774 OFFCURVE",
"35 764 OFFCURVE",
"44 757 CURVE SMOOTH",
"53 750 OFFCURVE",
"52 741 OFFCURVE",
"52 732 CURVE SMOOTH",
"52 392 LINE",
"48 392 LINE",
"48 284 LINE SMOOTH",
"47 205 OFFCURVE",
"45 126 OFFCURVE",
"45 47 CURVE SMOOTH",
"45 16 OFFCURVE",
"50 13 OFFCURVE",
"82 13 CURVE SMOOTH",
"104 13 LINE SMOOTH",
"112 13 OFFCURVE",
"125 12 OFFCURVE",
"133 11 CURVE SMOOTH"
);
}
);
width = 239;
}
);
unicode = 0049;
},
{
glyphname = J;
lastChange = "2019-03-20 23:36:59 +0000";
layers = (
{
hints = (
{
place = "{40, 119}";
type = Stem;
},
{
place = "{234, 109}";
type = Stem;
},
{
place = "{238, 114}";
type = Stem;
}
);
layerId = UUID0;
paths = (
{
closed = 1;
nodes = (
"235 1 OFFCURVE",
"251 7 OFFCURVE",
"260 13 CURVE",
"304 45 OFFCURVE",
"330 88 OFFCURVE",
"340 143 CURVE SMOOTH",
"353 216 OFFCURVE",
"356 289 OFFCURVE",
"354 363 CURVE SMOOTH",
"351 480 OFFCURVE",
"347 597 OFFCURVE",
"344 714 CURVE",
"342 712 LINE",
"341 731 OFFCURVE",
"342 750 OFFCURVE",
"341 769 CURVE SMOOTH",
"340 788 OFFCURVE",
"331 795 OFFCURVE",
"312 791 CURVE SMOOTH",
"273 782 LINE SMOOTH",
"261 779 OFFCURVE",
"248 777 OFFCURVE",
"236 773 CURVE SMOOTH",
"221 768 OFFCURVE",
"215 758 OFFCURVE",
"222 749 CURVE SMOOTH",
"234 734 OFFCURVE",
"233 717 OFFCURVE",
"233 700 CURVE SMOOTH",
"235 553 OFFCURVE",
"236 406 OFFCURVE",
"237 259 CURVE SMOOTH",
"237 232 OFFCURVE",
"235 204 OFFCURVE",
"224 178 CURVE",
"217 163 OFFCURVE",
"209 149 OFFCURVE",
"190 145 CURVE",
"179 158 OFFCURVE",
"169 183 OFFCURVE",
"168 201 CURVE SMOOTH",
"159 327 LINE SMOOTH",
"158 343 OFFCURVE",
"150 350 OFFCURVE",
"136 343 CURVE SMOOTH",
"115 333 OFFCURVE",
"93 334 OFFCURVE",
"71 334 CURVE",
"45 333 OFFCURVE",
"40 329 OFFCURVE",
"41 304 CURVE SMOOTH",
"42 262 OFFCURVE",
"43 220 OFFCURVE",
"48 178 CURVE SMOOTH",
"51 157 OFFCURVE",
"59 124 OFFCURVE",
"67 104 CURVE SMOOTH",
"95 31 OFFCURVE",
"150 -3 OFFCURVE",
"224 1 CURVE"
);
}
);
width = 410;
}
);
unicode = 004A;
},
{
glyphname = K;
lastChange = "2019-03-20 23:36:59 +0000";
layers = (
{
hints = (
{
place = "{40, 126}";
type = Stem;
},
{
place = "{45, 162}";
type = Stem;
},
{
place = "{46, 140}";
type = Stem;
}
);
layerId = UUID0;
paths = (
{
closed = 1;
nodes = (
"201 -79 OFFCURVE",
"207 -73 OFFCURVE",
"206 -48 CURVE SMOOTH",
"205 -27 OFFCURVE",
"202 -6 OFFCURVE",
"200 15 CURVE SMOOTH",
"185 184 LINE",
"185 189 OFFCURVE",
"186 196 OFFCURVE",
"187 201 CURVE",
"193 189 OFFCURVE",
"196 183 OFFCURVE",
"199 177 CURVE SMOOTH",
"301 -39 LINE SMOOTH",
"306 -50 OFFCURVE",
"313 -58 OFFCURVE",
"327 -58 CURVE SMOOTH",
"372 -57 OFFCURVE",
"417 -57 OFFCURVE",
"462 -55 CURVE SMOOTH",
"481 -54 OFFCURVE",
"487 -41 OFFCURVE",
"479 -23 CURVE",
"472 -9 OFFCURVE",
"464 4 OFFCURVE",
"457 18 CURVE SMOOTH",
"422 91 OFFCURVE",
"389 164 OFFCURVE",
"344 231 CURVE SMOOTH",
"340 237 OFFCURVE",
"337 243 OFFCURVE",
"334 249 CURVE",
"312 289 OFFCURVE",
"289 328 OFFCURVE",
"256 360 CURVE SMOOTH",
"246 370 OFFCURVE",
"238 381 OFFCURVE",
"229 392 CURVE",
"258 452 OFFCURVE",
"286 511 OFFCURVE",
"316 569 CURVE SMOOTH",
"349 632 OFFCURVE",
"385 694 OFFCURVE",
"418 757 CURVE",
"420 757 LINE",
"442 800 OFFCURVE",
"462 844 OFFCURVE",
"482 888 CURVE SMOOTH",
"492 910 OFFCURVE",
"484 923 OFFCURVE",
"460 922 CURVE",
"421 919 OFFCURVE",
"382 913 OFFCURVE",
"343 909 CURVE SMOOTH",
"332 908 OFFCURVE",
"326 901 OFFCURVE",
"322 891 CURVE",
"317 876 OFFCURVE",
"311 861 OFFCURVE",
"304 847 CURVE SMOOTH",
"257 750 OFFCURVE",
"210 653 OFFCURVE",
"173 551 CURVE",
"171 547 OFFCURVE",
"166 540 OFFCURVE",
"163 536 CURVE",
"163 573 LINE",
"166 894 LINE SMOOTH",
"166 911 OFFCURVE",
"162 915 OFFCURVE",
"143 915 CURVE SMOOTH",
"121 915 OFFCURVE",
"99 915 OFFCURVE",
"77 913 CURVE SMOOTH",
"65 912 OFFCURVE",
"54 907 OFFCURVE",
"42 904 CURVE",
"41 871 OFFCURVE",
"39 841 OFFCURVE",
"39 810 CURVE SMOOTH",
"39 737 OFFCURVE",
"40 665 OFFCURVE",
"41 592 CURVE SMOOTH",
"43 396 OFFCURVE",
"44 200 OFFCURVE",
"45 4 CURVE SMOOTH",
"45 -18 OFFCURVE",
"44 -40 OFFCURVE",
"43 -62 CURVE",
"43 -63 LINE SMOOTH",
"43 -71 OFFCURVE",
"49 -77 OFFCURVE",
"57 -77 CURVE SMOOTH",
"64 -77 LINE SMOOTH",
"68 -77 OFFCURVE",
"75 -77 OFFCURVE",
"79 -77 CURVE SMOOTH",
"136 -77 LINE SMOOTH",
"149 -77 OFFCURVE",
"162 -79 OFFCURVE",
"175 -79 CURVE SMOOTH"
);
}
);
width = 543;
}
);
unicode = 004B;
},
{
glyphname = L;
lastChange = "2019-03-20 23:36:59 +0000";
layers = (
{
hints = (
{
place = "{43, 84}";
type = Stem;
},
{
place = "{51, 85}";
type = Stem;
},
{
place = "{60, 101}";
type = Stem;
},
{
horizontal = 1;
place = "{-34, 110}";
type = Stem;
}
);
layerId = UUID0;
paths = (
{
closed = 1;
nodes = (
"341 -43 OFFCURVE",
"346 -39 OFFCURVE",
"347 -17 CURVE",
"347 -6 LINE SMOOTH",
"347 -1 OFFCURVE",
"347 8 OFFCURVE",
"346 13 CURVE",
"344 36 OFFCURVE",
"341 59 OFFCURVE",
"338 82 CURVE",
"337 85 LINE",
"336 94 OFFCURVE",
"331 101 OFFCURVE",
"320 99 CURVE SMOOTH",
"292 93 OFFCURVE",
"264 87 OFFCURVE",
"237 79 CURVE SMOOTH",
"213 72 OFFCURVE",
"189 73 OFFCURVE",
"162 75 CURVE",
"161 79 OFFCURVE",
"160 86 OFFCURVE",
"160 90 CURVE",
"164 172 OFFCURVE",
"149 252 OFFCURVE",
"142 333 CURVE SMOOTH",
"135 417 OFFCURVE",
"136 501 OFFCURVE",
"136 585 CURVE SMOOTH",
"136 626 OFFCURVE",
"136 667 OFFCURVE",
"135 708 CURVE SMOOTH",
"133 767 OFFCURVE",
"129 826 OFFCURVE",
"127 885 CURVE SMOOTH",
"126 917 OFFCURVE",
"120 923 OFFCURVE",
"88 920 CURVE",
"84 920 OFFCURVE",
"78 919 OFFCURVE",
"75 918 CURVE SMOOTH",
"64 914 OFFCURVE",
"50 912 OFFCURVE",
"43 904 CURVE SMOOTH",
"38 898 OFFCURVE",
"43 884 OFFCURVE",
"44 873 CURVE",
"44 870 LINE",
"47 816 OFFCURVE",
"51 762 OFFCURVE",
"52 708 CURVE SMOOTH",
"55 531 OFFCURVE",
"57 354 OFFCURVE",
"60 177 CURVE SMOOTH",
"61 112 OFFCURVE",
"64 47 OFFCURVE",
"67 -18 CURVE SMOOTH",
"68 -39 OFFCURVE",
"72 -41 OFFCURVE",
"93 -40 CURVE SMOOTH",
"125 -38 OFFCURVE",
"158 -36 OFFCURVE",
"190 -36 CURVE SMOOTH",
"233 -37 OFFCURVE",
"276 -40 OFFCURVE",
"319 -42 CURVE SMOOTH"
);
}
);
width = 405;
}
);
unicode = 004C;
},
{
glyphname = M;
lastChange = "2019-03-20 23:36:59 +0000";
layers = (
{
hints = (
{
place = "{184, 91}";
type = Stem;
},
{
place = "{435, 106}";
type = Stem;
},
{
place = "{445, 98}";
type = Stem;
}
);
layerId = UUID0;
paths = (
{
closed = 1;
nodes = (
"473 -38 OFFCURVE",
"489 -39 OFFCURVE",
"505 -40 CURVE",
"513 -40 OFFCURVE",
"527 -39 OFFCURVE",
"535 -38 CURVE SMOOTH",
"546 -37 OFFCURVE",
"550 -30 OFFCURVE",
"549 -20 CURVE",
"549 -10 OFFCURVE",
"547 -1 OFFCURVE",
"547 8 CURVE",
"545 2 LINE",
"544 74 OFFCURVE",
"542 146 OFFCURVE",
"542 218 CURVE SMOOTH",
"542 312 OFFCURVE",
"544 407 OFFCURVE",
"544 502 CURVE SMOOTH",
"544 575 OFFCURVE",
"543 648 OFFCURVE",
"542 721 CURVE SMOOTH",
"541 759 OFFCURVE",
"539 797 OFFCURVE",
"538 835 CURVE",
"537 849 OFFCURVE",
"535 851 OFFCURVE",
"521 850 CURVE",
"470 844 LINE SMOOTH",
"452 842 OFFCURVE",
"452 842 OFFCURVE",
"447 824 CURVE SMOOTH",
"425 747 OFFCURVE",
"403 670 OFFCURVE",
"380 593 CURVE SMOOTH",
"361 527 OFFCURVE",
"341 462 OFFCURVE",
"321 397 CURVE",
"314 382 LINE",
"312 401 OFFCURVE",
"310 415 OFFCURVE",
"309 429 CURVE SMOOTH",
"307 462 OFFCURVE",
"306 495 OFFCURVE",
"303 527 CURVE SMOOTH",
"297 600 OFFCURVE",
"290 673 OFFCURVE",
"283 746 CURVE SMOOTH",
"281 772 OFFCURVE",
"278 798 OFFCURVE",
"276 824 CURVE SMOOTH",
"275 835 OFFCURVE",
"269 839 OFFCURVE",
"259 838 CURVE",
"240 837 OFFCURVE",
"221 835 OFFCURVE",
"202 834 CURVE",
"192 834 OFFCURVE",
"187 830 OFFCURVE",
"185 820 CURVE",
"182 801 OFFCURVE",
"177 782 OFFCURVE",
"174 763 CURVE SMOOTH",
"166 708 OFFCURVE",
"159 653 OFFCURVE",
"150 599 CURVE SMOOTH",
"139 535 OFFCURVE",
"125 471 OFFCURVE",
"114 407 CURVE SMOOTH",
"94 295 OFFCURVE",
"76 182 OFFCURVE",
"49 71 CURVE SMOOTH",
"46 59 OFFCURVE",
"44 47 OFFCURVE",
"42 35 CURVE",
"41 27 OFFCURVE",
"43 20 OFFCURVE",
"53 20 CURVE",
"113 23 LINE SMOOTH",
"129 24 OFFCURVE",
"132 26 OFFCURVE",
"135 42 CURVE SMOOTH",
"139 60 OFFCURVE",
"141 78 OFFCURVE",
"144 96 CURVE SMOOTH",
"157 170 OFFCURVE",
"171 243 OFFCURVE",
"182 317 CURVE SMOOTH",
"193 387 OFFCURVE",
"201 458 OFFCURVE",
"217 528 CURVE",
"220 537 LINE",
"224 537 LINE",
"228 512 OFFCURVE",
"233 487 OFFCURVE",
"236 462 CURVE SMOOTH",
"241 414 OFFCURVE",
"245 365 OFFCURVE",
"249 316 CURVE SMOOTH",
"250 299 OFFCURVE",
"252 297 OFFCURVE",
"269 296 CURVE",
"278 295 OFFCURVE",
"287 296 OFFCURVE",
"295 293 CURVE SMOOTH",
"314 286 OFFCURVE",
"333 286 OFFCURVE",
"353 287 CURVE SMOOTH",
"375 288 OFFCURVE",
"378 291 OFFCURVE",
"383 311 CURVE SMOOTH",
"395 356 OFFCURVE",
"407 401 OFFCURVE",
"420 446 CURVE SMOOTH",
"426 467 OFFCURVE",
"435 487 OFFCURVE",
"443 508 CURVE",
"445 504 OFFCURVE",
"447 498 OFFCURVE",
"447 494 CURVE SMOOTH",
"447 491 LINE",
"446 471 OFFCURVE",
"444 451 OFFCURVE",
"443 431 CURVE SMOOTH",
"437 77 LINE SMOOTH",
"437 43 OFFCURVE",
"438 9 OFFCURVE",
"439 -25 CURVE SMOOTH",
"439 -41 OFFCURVE",
"445 -48 OFFCURVE",
"457 -44 CURVE"
);
}
);
width = 604;
}
);
unicode = 004D;
},
{
glyphname = N;
lastChange = "2019-03-20 23:36:59 +0000";
layers = (
{
hints = (
{
place = "{43, 114}";
type = Stem;
},
{
place = "{43, 93}";
type = Stem;
},
{
place = "{45, 107}";
type = Stem;
},
{
place = "{398, 108}";
type = Stem;
},
{
place = "{403, 110}";
type = Stem;
},
{
place = "{418, 108}";
type = Stem;
}
);
layerId = UUID0;
paths = (
{
closed = 1;
nodes = (
"463 -45 OFFCURVE",
"483 -42 OFFCURVE",
"503 -42 CURVE SMOOTH",
"524 -42 OFFCURVE",
"527 -41 OFFCURVE",
"527 -20 CURVE SMOOTH",
"528 13 OFFCURVE",
"529 46 OFFCURVE",
"528 79 CURVE SMOOTH",
"516 613 LINE",
"513 612 LINE",
"511 679 OFFCURVE",
"508 746 OFFCURVE",
"505 813 CURVE SMOOTH",
"504 833 OFFCURVE",
"501 835 OFFCURVE",
"481 832 CURVE",
"465 829 OFFCURVE",
"449 826 OFFCURVE",
"433 824 CURVE SMOOTH",
"396 820 OFFCURVE",
"396 820 OFFCURVE",
"397 782 CURVE SMOOTH",
"399 707 OFFCURVE",
"401 632 OFFCURVE",
"402 557 CURVE SMOOTH",
"403 422 OFFCURVE",
"406 287 OFFCURVE",
"417 152 CURVE SMOOTH",
"418 142 OFFCURVE",
"417 131 OFFCURVE",
"417 116 CURVE",
"410 126 LINE",
"394 165 OFFCURVE",
"379 204 OFFCURVE",
"363 243 CURVE SMOOTH",
"350 275 OFFCURVE",
"336 306 OFFCURVE",
"323 338 CURVE SMOOTH",
"307 378 OFFCURVE",
"292 418 OFFCURVE",
"277 458 CURVE SMOOTH",
"262 496 OFFCURVE",
"248 534 OFFCURVE",
"233 571 CURVE SMOOTH",
"203 643 OFFCURVE",
"172 715 OFFCURVE",
"149 790 CURVE SMOOTH",
"144 806 OFFCURVE",
"138 808 OFFCURVE",
"120 806 CURVE SMOOTH",
"109 805 OFFCURVE",
"98 806 OFFCURVE",
"87 806 CURVE SMOOTH",
"74 806 OFFCURVE",
"61 805 OFFCURVE",
"45 804 CURVE",
"43 780 OFFCURVE",
"39 761 OFFCURVE",
"39 742 CURVE SMOOTH",
"40 518 OFFCURVE",
"42 294 OFFCURVE",
"44 70 CURVE SMOOTH",
"44 52 OFFCURVE",
"42 34 OFFCURVE",
"42 16 CURVE",
"41 -8 OFFCURVE",
"45 -13 OFFCURVE",
"69 -15 CURVE",
"86 -15 LINE SMOOTH",
"95 -15 OFFCURVE",
"109 -14 OFFCURVE",
"118 -13 CURVE",
"128 -13 OFFCURVE",
"133 -6 OFFCURVE",
"135 3 CURVE SMOOTH",
"136 8 OFFCURVE",
"137 16 OFFCURVE",
"137 21 CURVE",
"142 103 OFFCURVE",
"147 185 OFFCURVE",
"151 267 CURVE SMOOTH",
"153 312 OFFCURVE",
"154 357 OFFCURVE",
"156 402 CURVE SMOOTH",
"157 415 OFFCURVE",
"159 428 OFFCURVE",
"160 441 CURVE",
"166 442 LINE",
"171 431 OFFCURVE",
"177 421 OFFCURVE",
"182 410 CURVE SMOOTH",
"224 319 OFFCURVE",
"258 225 OFFCURVE",
"292 131 CURVE SMOOTH",
"310 81 OFFCURVE",
"329 31 OFFCURVE",
"348 -19 CURVE",
"352 -28 OFFCURVE",
"356 -39 OFFCURVE",
"368 -40 CURVE SMOOTH",
"393 -42 OFFCURVE",
"418 -44 OFFCURVE",
"443 -45 CURVE"
);
},
{
closed = 1;
nodes = (
"434 44 LINE",
"433 43 OFFCURVE",
"432 41 OFFCURVE",
"431 40 CURVE"
);
}
);
width = 583;
}
);
unicode = 004E;
},
{
glyphname = O;
lastChange = "2019-03-20 23:36:59 +0000";
layers = (
{
hints = (
{
place = "{40, 112}";
type = Stem;
}
);
layerId = UUID0;
paths = (
{
closed = 1;
nodes = (
"212 -34 OFFCURVE",
"253 -23 OFFCURVE",
"294 34 CURVE SMOOTH",
"317 65 OFFCURVE",
"340 121 OFFCURVE",
"346 159 CURVE SMOOTH",
"365 286 OFFCURVE",
"376 414 OFFCURVE",
"355 542 CURVE SMOOTH",
"346 599 OFFCURVE",
"337 656 OFFCURVE",
"319 711 CURVE",
"318 708 LINE",
"310 733 OFFCURVE",
"300 756 OFFCURVE",
"283 776 CURVE",
"271 792 OFFCURVE",
"245 808 OFFCURVE",
"225 812 CURVE SMOOTH",
"183 819 OFFCURVE",
"114 793 OFFCURVE",
"94 744 CURVE SMOOTH",
"87 727 OFFCURVE",
"77 699 OFFCURVE",
"72 681 CURVE SMOOTH",
"66 657 OFFCURVE",
"64 632 OFFCURVE",
"60 608 CURVE SMOOTH",
"49 540 OFFCURVE",
"39 429 OFFCURVE",
"38 360 CURVE",
"41 310 OFFCURVE",
"42 259 OFFCURVE",
"47 209 CURVE SMOOTH",
"51 175 OFFCURVE",
"61 121 OFFCURVE",
"69 88 CURVE SMOOTH",
"79 47 OFFCURVE",
"102 12 OFFCURVE",
"143 -5 CURVE SMOOTH"
);
},
{
closed = 1;
nodes = (
"179 118 LINE",
"160 146 OFFCURVE",
"154 178 OFFCURVE",
"153 211 CURVE SMOOTH",
"150 280 OFFCURVE",
"148 349 OFFCURVE",
"146 418 CURVE",
"151 418 LINE",
"151 472 OFFCURVE",
"149 526 OFFCURVE",
"152 580 CURVE SMOOTH",
"153 607 OFFCURVE",
"162 634 OFFCURVE",
"170 660 CURVE SMOOTH",
"174 673 OFFCURVE",
"183 687 OFFCURVE",
"198 687 CURVE SMOOTH",
"213 687 OFFCURVE",
"219 671 OFFCURVE",
"222 659 CURVE SMOOTH",
"232 620 OFFCURVE",
"243 581 OFFCURVE",
"248 541 CURVE SMOOTH",
"262 435 OFFCURVE",
"257 329 OFFCURVE",
"241 223 CURVE SMOOTH",
"238 204 OFFCURVE",
"237 185 OFFCURVE",
"232 167 CURVE SMOOTH",
"228 153 OFFCURVE",
"219 131 OFFCURVE",
"211 118 CURVE SMOOTH",
"200 99 OFFCURVE",
"189 100 OFFCURVE",
"177 118 CURVE"
);
}
);
width = 424;
}
);
unicode = 004F;
},
{
glyphname = P;
lastChange = "2019-03-20 23:36:59 +0000";
layers = (
{
hints = (
{
place = "{40, 82}";
type = Stem;
},
{
place = "{49, 91}";
type = Stem;
},
{
horizontal = 1;
place = "{531, 113}";
type = Stem;
},
{
horizontal = 1;
place = "{720, 90}";
type = Stem;
}
);
layerId = UUID0;
paths = (
{
closed = 1;
nodes = (
"96 -13 LINE SMOOTH",
"116 -11 OFFCURVE",
"120 -7 OFFCURVE",
"122 14 CURVE SMOOTH",
"123 25 OFFCURVE",
"123 36 OFFCURVE",
"123 47 CURVE",
"132 284 LINE SMOOTH",
"134 343 OFFCURVE",
"137 402 OFFCURVE",
"139 461 CURVE SMOOTH",
"140 484 OFFCURVE",
"139 507 OFFCURVE",
"139 532 CURVE",
"157 534 OFFCURVE",
"172 536 OFFCURVE",
"187 537 CURVE SMOOTH",
"232 541 OFFCURVE",
"272 556 OFFCURVE",
"305 588 CURVE SMOOTH",
"321 604 OFFCURVE",
"331 622 OFFCURVE",
"329 645 CURVE SMOOTH",
"328 656 OFFCURVE",
"329 667 OFFCURVE",
"328 678 CURVE",
"329 677 LINE",
"326 703 OFFCURVE",
"309 739 OFFCURVE",
"291 757 CURVE SMOOTH",
"264 783 OFFCURVE",
"232 797 OFFCURVE",
"196 804 CURVE SMOOTH",
"160 811 OFFCURVE",
"123 815 OFFCURVE",
"86 810 CURVE SMOOTH",
"54 806 OFFCURVE",
"48 801 OFFCURVE",
"47 768 CURVE SMOOTH",
"47 746 OFFCURVE",
"49 724 OFFCURVE",
"49 702 CURVE SMOOTH",
"43 138 LINE SMOOTH",
"43 105 OFFCURVE",
"42 72 OFFCURVE",
"41 39 CURVE SMOOTH",
"41 28 OFFCURVE",
"40 17 OFFCURVE",
"41 6 CURVE SMOOTH",
"42 -11 OFFCURVE",
"49 -17 OFFCURVE",
"66 -16 CURVE"
);
},
{
closed = 1;
nodes = (
"133 720 LINE",
"157 722 OFFCURVE",
"177 717 OFFCURVE",
"197 711 CURVE",
"196 712 LINE",
"200 711 OFFCURVE",
"206 707 OFFCURVE",
"209 704 CURVE SMOOTH",
"225 689 OFFCURVE",
"223 669 OFFCURVE",
"204 658 CURVE SMOOTH",
"191 651 OFFCURVE",
"168 645 OFFCURVE",
"153 645 CURVE SMOOTH",
"146 645 LINE"
);
}
);
width = 388;
}
);
unicode = 0050;
},
{
glyphname = Q;
lastChange = "2019-03-20 23:36:59 +0000";
layers = (
{
hints = (
{
place = "{40, 86}";
type = Stem;
},
{
place = "{164, 161}";
type = Stem;
}
);
layerId = UUID0;
paths = (
{
closed = 1;
nodes = (
"326 -22 OFFCURVE",
"341 -7 OFFCURVE",
"346 7 CURVE SMOOTH",
"352 24 OFFCURVE",
"359 41 OFFCURVE",
"367 57 CURVE",
"372 70 OFFCURVE",
"370 80 OFFCURVE",
"359 89 CURVE",
"361 92 LINE",
"309 135 LINE",
"309 140 OFFCURVE",
"310 149 OFFCURVE",
"311 154 CURVE SMOOTH",
"319 188 OFFCURVE",
"325 244 OFFCURVE",
"325 279 CURVE SMOOTH",
"325 301 LINE",
"322 383 OFFCURVE",
"320 465 OFFCURVE",
"315 547 CURVE SMOOTH",
"311 607 OFFCURVE",
"290 701 OFFCURVE",
"268 757 CURVE SMOOTH",
"258 785 OFFCURVE",
"228 819 OFFCURVE",
"202 833 CURVE SMOOTH",
"159 858 OFFCURVE",
"116 851 OFFCURVE",
"85 813 CURVE SMOOTH",
"62 786 OFFCURVE",
"42 735 OFFCURVE",
"40 700 CURVE SMOOTH",
"38 650 OFFCURVE",
"39 600 OFFCURVE",
"38 550 CURVE SMOOTH",
"36 403 OFFCURVE",
"49 257 OFFCURVE",
"71 112 CURVE SMOOTH",
"76 79 OFFCURVE",
"95 30 OFFCURVE",
"114 3 CURVE SMOOTH",
"146 -43 OFFCURVE",
"194 -48 OFFCURVE",
"235 -11 CURVE",
"241 -5 OFFCURVE",
"250 6 OFFCURVE",
"255 13 CURVE",
"312 -27 LINE"
);
},
{
closed = 1;
nodes = (
"178 59 OFFCURVE",
"166 60 OFFCURVE",
"157 79 CURVE SMOOTH",
"154 85 OFFCURVE",
"151 95 OFFCURVE",
"150 101 CURVE SMOOTH",
"145 137 OFFCURVE",
"139 173 OFFCURVE",
"137 209 CURVE SMOOTH",
"129 321 OFFCURVE",
"119 433 OFFCURVE",
"125 545 CURVE SMOOTH",
"127 575 OFFCURVE",
"134 624 OFFCURVE",
"140 654 CURVE",
"142 667 OFFCURVE",
"150 679 OFFCURVE",
"158 690 CURVE SMOOTH",
"167 702 OFFCURVE",
"176 701 OFFCURVE",
"184 688 CURVE",
"188 682 OFFCURVE",
"192 671 OFFCURVE",
"194 664 CURVE SMOOTH",
"232 536 OFFCURVE",
"249 406 OFFCURVE",
"236 273 CURVE SMOOTH",
"234 254 OFFCURVE",
"229 235 OFFCURVE",
"225 214 CURVE",
"217 219 OFFCURVE",
"212 223 OFFCURVE",
"206 226 CURVE",
"206 224 LINE",
"193 231 OFFCURVE",
"187 229 OFFCURVE",
"182 216 CURVE SMOOTH",
"176 199 OFFCURVE",
"171 182 OFFCURVE",
"165 165 CURVE SMOOTH",
"164 162 OFFCURVE",
"163 158 OFFCURVE",
"163 155 CURVE SMOOTH",
"163 149 OFFCURVE",
"167 141 OFFCURVE",
"171 137 CURVE SMOOTH",
"182 126 OFFCURVE",
"192 115 OFFCURVE",
"203 103 CURVE",
"189 76 LINE"
);
}
);
width = 429;
}
);
unicode = 0051;
},
{
glyphname = R;
lastChange = "2019-03-20 23:36:59 +0000";
layers = (
{
hints = (
{
place = "{40, 81}";
type = Stem;
},
{
place = "{48, 92}";
type = Stem;
}
);
layerId = UUID0;
paths = (
{
closed = 1;
nodes = (
"369 -15 OFFCURVE",
"395 -12 OFFCURVE",
"420 -8 CURVE SMOOTH",
"439 -5 OFFCURVE",
"443 2 OFFCURVE",
"436 18 CURVE SMOOTH",
"416 63 OFFCURVE",
"396 108 OFFCURVE",
"374 152 CURVE SMOOTH",
"371 158 LINE SMOOTH",
"349 202 OFFCURVE",
"325 245 OFFCURVE",
"301 288 CURVE SMOOTH",
"289 310 OFFCURVE",
"276 332 OFFCURVE",
"262 354 CURVE SMOOTH",
"243 385 OFFCURVE",
"223 415 OFFCURVE",
"202 447 CURVE",
"223 458 LINE SMOOTH",
"254 475 OFFCURVE",
"286 490 OFFCURVE",
"314 510 CURVE SMOOTH",
"409 578 OFFCURVE",
"389 690 OFFCURVE",
"339 752 CURVE",
"331 761 OFFCURVE",
"316 773 OFFCURVE",
"305 779 CURVE SMOOTH",
"247 813 OFFCURVE",
"184 811 OFFCURVE",
"120 806 CURVE",
"110 803 LINE",
"45 783 LINE",
"43 776 OFFCURVE",
"41 765 OFFCURVE",
"41 758 CURVE SMOOTH",
"42 680 OFFCURVE",
"44 602 OFFCURVE",
"46 524 CURVE SMOOTH",
"48 449 OFFCURVE",
"51 374 OFFCURVE",
"51 299 CURVE SMOOTH",
"51 221 OFFCURVE",
"49 143 OFFCURVE",
"48 65 CURVE SMOOTH",
"48 56 OFFCURVE",
"49 47 OFFCURVE",
"50 38 CURVE SMOOTH",
"51 25 OFFCURVE",
"57 16 OFFCURVE",
"69 14 CURVE",
"83 11 OFFCURVE",
"106 8 OFFCURVE",
"120 7 CURVE SMOOTH",
"135 6 OFFCURVE",
"140 11 OFFCURVE",
"141 26 CURVE SMOOTH",
"142 41 OFFCURVE",
"141 56 OFFCURVE",
"141 71 CURVE",
"138 330 LINE",
"139 336 OFFCURVE",
"141 346 OFFCURVE",
"143 352 CURVE",
"148 344 OFFCURVE",
"150 341 OFFCURVE",
"151 338 CURVE",
"304 8 LINE SMOOTH",
"315 -15 OFFCURVE",
"319 -19 OFFCURVE",
"343 -17 CURVE SMOOTH"
);
},
{
closed = 1;
nodes = (
"125 718 LINE",
"162 721 OFFCURVE",
"198 724 OFFCURVE",
"231 706 CURVE SMOOTH",
"238 702 OFFCURVE",
"246 698 OFFCURVE",
"250 691 CURVE",
"261 675 OFFCURVE",
"270 646 OFFCURVE",
"270 626 CURVE SMOOTH",
"270 618 OFFCURVE",
"268 605 OFFCURVE",
"266 597 CURVE SMOOTH",
"264 589 OFFCURVE",
"257 579 OFFCURVE",
"251 574 CURVE",
"220 553 OFFCURVE",
"188 534 OFFCURVE",
"156 515 CURVE",
"152 513 OFFCURVE",
"146 511 OFFCURVE",
"142 510 CURVE"
);
}
);
width = 494;
}
);
unicode = 0052;
},
{
glyphname = S;
lastChange = "2019-03-20 23:36:59 +0000";
layers = (
{
hints = (
{
place = "{42, 85}";
type = Stem;
}
);
layerId = UUID0;
paths = (
{
closed = 1;
nodes = (
"324 1 OFFCURVE",
"363 19 OFFCURVE",
"382 40 CURVE SMOOTH",
"404 63 OFFCURVE",
"422 108 OFFCURVE",
"422 140 CURVE SMOOTH",
"422 151 LINE",
"421 166 LINE SMOOTH",
"416 252 OFFCURVE",
"385 329 OFFCURVE",
"344 403 CURVE SMOOTH",
"317 452 OFFCURVE",
"292 502 OFFCURVE",
"269 552 CURVE SMOOTH",
"253 587 OFFCURVE",
"260 622 OFFCURVE",
"275 657 CURVE SMOOTH",
"290 690 OFFCURVE",
"341 703 OFFCURVE",
"368 687 CURVE",
"387 677 OFFCURVE",
"412 654 OFFCURVE",
"424 636 CURVE SMOOTH",
"441 609 OFFCURVE",
"457 582 OFFCURVE",
"473 555 CURVE SMOOTH",
"482 540 OFFCURVE",
"486 539 OFFCURVE",
"501 547 CURVE SMOOTH",
"511 552 OFFCURVE",
"521 557 OFFCURVE",
"531 561 CURVE",
"542 566 OFFCURVE",
"544 574 OFFCURVE",
"540 584 CURVE",
"540 585 LINE",
"539 589 OFFCURVE",
"536 595 OFFCURVE",
"534 599 CURVE",
"512 636 OFFCURVE",
"491 674 OFFCURVE",
"467 709 CURVE SMOOTH",
"446 740 OFFCURVE",
"412 757 OFFCURVE",
"381 777 CURVE",
"377 779 OFFCURVE",
"370 781 OFFCURVE",
"366 782 CURVE SMOOTH",
"296 797 OFFCURVE",
"232 771 OFFCURVE",
"193 714 CURVE SMOOTH",
"153 655 OFFCURVE",
"153 589 OFFCURVE",
"179 525 CURVE SMOOTH",
"196 483 OFFCURVE",
"216 442 OFFCURVE",
"246 407 CURVE SMOOTH",
"250 402 OFFCURVE",
"255 393 OFFCURVE",
"258 387 CURVE",
"297 316 OFFCURVE",
"312 239 OFFCURVE",
"318 160 CURVE SMOOTH",
"319 145 OFFCURVE",
"314 129 OFFCURVE",
"308 115 CURVE SMOOTH",
"300 96 OFFCURVE",
"288 91 OFFCURVE",
"268 95 CURVE SMOOTH",
"239 101 OFFCURVE",
"212 113 OFFCURVE",
"198 142 CURVE SMOOTH",
"187 165 OFFCURVE",
"178 189 OFFCURVE",
"170 213 CURVE SMOOTH",
"155 257 OFFCURVE",
"142 301 OFFCURVE",
"126 344 CURVE SMOOTH",
"117 369 OFFCURVE",
"113 370 OFFCURVE",
"88 366 CURVE SMOOTH",
"68 363 LINE SMOOTH",
"43 359 OFFCURVE",
"37 352 OFFCURVE",
"42 326 CURVE SMOOTH",
"50 286 OFFCURVE",
"59 246 OFFCURVE",
"70 206 CURVE SMOOTH",
"80 169 OFFCURVE",
"104 113 OFFCURVE",
"125 81 CURVE SMOOTH",
"166 19 OFFCURVE",
"223 -7 OFFCURVE",
"296 -1 CURVE SMOOTH"
);
}
);
width = 599;
}
);
unicode = 0053;
},
{
glyphname = T;
lastChange = "2019-03-20 23:36:59 +0000";
layers = (
{
hints = (
{
place = "{159, 86}";
type = Stem;
},
{
place = "{185, 84}";
type = Stem;
},
{
horizontal = 1;
place = "{635, 108}";
type = Stem;
}
);
layerId = UUID0;
paths = (
{
closed = 1;
nodes = (
"205 33 OFFCURVE",
"217 36 OFFCURVE",
"229 37 CURVE SMOOTH",
"242 38 OFFCURVE",
"247 45 OFFCURVE",
"248 57 CURVE SMOOTH",
"253 114 OFFCURVE",
"261 171 OFFCURVE",
"263 228 CURVE SMOOTH",
"268 353 OFFCURVE",
"270 478 OFFCURVE",
"273 603 CURVE SMOOTH",
"273 634 LINE",
"320 634 LINE",
"341 633 OFFCURVE",
"361 631 OFFCURVE",
"381 631 CURVE SMOOTH",
"400 631 OFFCURVE",
"404 635 OFFCURVE",
"406 653 CURVE SMOOTH",
"408 678 OFFCURVE",
"410 703 OFFCURVE",
"411 728 CURVE SMOOTH",
"412 744 OFFCURVE",
"408 749 OFFCURVE",
"392 750 CURVE",
"390 748 LINE",
"356 750 OFFCURVE",
"322 752 OFFCURVE",
"288 752 CURVE SMOOTH",
"232 752 OFFCURVE",
"176 750 OFFCURVE",
"120 748 CURVE SMOOTH",
"100 747 OFFCURVE",
"80 745 OFFCURVE",
"60 743 CURVE SMOOTH",
"47 742 OFFCURVE",
"39 735 OFFCURVE",
"39 722 CURVE SMOOTH",
"39 704 LINE SMOOTH",
"39 696 OFFCURVE",
"40 682 OFFCURVE",
"41 674 CURVE",
"47 638 OFFCURVE",
"52 635 OFFCURVE",
"88 636 CURVE SMOOTH",
"114 637 OFFCURVE",
"140 637 OFFCURVE",
"166 637 CURVE SMOOTH",
"172 637 OFFCURVE",
"178 636 OFFCURVE",
"187 635 CURVE",
"185 565 OFFCURVE",
"183 497 OFFCURVE",
"180 429 CURVE SMOOTH",
"176 336 OFFCURVE",
"171 243 OFFCURVE",
"166 150 CURVE SMOOTH",
"160 60 LINE SMOOTH",
"159 36 OFFCURVE",
"169 27 OFFCURVE",
"193 31 CURVE SMOOTH"
);
}
);
width = 466;
}
);
unicode = 0054;
},
{
glyphname = U;
lastChange = "2019-03-20 23:36:59 +0000";
layers = (
{
hints = (
{
place = "{51, 107}";
type = Stem;
},
{
place = "{253, 104}";
type = Stem;
}
);
layerId = UUID0;
paths = (
{
closed = 1;
nodes = (
"233 -8 LINE SMOOTH",
"251 -8 OFFCURVE",
"274 4 OFFCURVE",
"285 18 CURVE SMOOTH",
"307 45 OFFCURVE",
"319 76 OFFCURVE",
"326 109 CURVE SMOOTH",
"342 182 OFFCURVE",
"355 301 OFFCURVE",
"355 375 CURVE SMOOTH",
"355 382 LINE SMOOTH",
"355 500 OFFCURVE",
"350 618 OFFCURVE",
"347 736 CURVE",
"347 745 LINE",
"355 747 LINE",
"354 758 OFFCURVE",
"348 764 OFFCURVE",
"337 764 CURVE SMOOTH",
"274 764 LINE SMOOTH",
"261 764 OFFCURVE",
"254 756 OFFCURVE",
"252 743 CURVE",
"251 738 OFFCURVE",
"250 730 OFFCURVE",
"250 725 CURVE SMOOTH",
"250 633 OFFCURVE",
"248 541 OFFCURVE",
"251 449 CURVE SMOOTH",
"254 367 OFFCURVE",
"251 286 OFFCURVE",
"246 205 CURVE SMOOTH",
"245 185 OFFCURVE",
"243 165 OFFCURVE",
"240 146 CURVE SMOOTH",
"238 133 OFFCURVE",
"235 120 OFFCURVE",
"217 113 CURVE",
"210 125 OFFCURVE",
"200 136 OFFCURVE",
"197 148 CURVE SMOOTH",
"188 188 OFFCURVE",
"178 228 OFFCURVE",
"174 269 CURVE SMOOTH",
"165 376 OFFCURVE",
"158 483 OFFCURVE",
"150 590 CURVE SMOOTH",
"146 646 OFFCURVE",
"139 701 OFFCURVE",
"152 756 CURVE SMOOTH",
"155 769 OFFCURVE",
"148 774 OFFCURVE",
"133 771 CURVE SMOOTH",
"105 766 OFFCURVE",
"77 760 OFFCURVE",
"44 754 CURVE",
"41 743 OFFCURVE",
"34 728 OFFCURVE",
"34 713 CURVE SMOOTH",
"35 632 OFFCURVE",
"27 551 OFFCURVE",
"39 470 CURVE SMOOTH",
"50 395 OFFCURVE",
"48 319 OFFCURVE",
"64 245 CURVE SMOOTH",
"76 188 OFFCURVE",
"85 130 OFFCURVE",
"109 76 CURVE SMOOTH",
"131 26 OFFCURVE",
"170 -2 OFFCURVE",
"225 -8 CURVE"
);
}
);
width = 420;
}
);
unicode = 0055;
},
{
glyphname = V;
lastChange = "2019-03-20 23:36:59 +0000";
layers = (
{
hints = (
{
place = "{40, 88}";
type = Stem;
},
{
place = "{133, 125}";
type = Stem;
},
{
place = "{230, 78}";
type = Stem;
}
);
layerId = UUID0;
paths = (
{
closed = 1;
nodes = (
"185 3 OFFCURVE",
"211 9 OFFCURVE",
"239 8 CURVE",
"242 8 LINE SMOOTH",
"250 8 OFFCURVE",
"257 14 OFFCURVE",
"258 22 CURVE",
"259 28 OFFCURVE",
"260 37 OFFCURVE",
"261 43 CURVE",
"279 202 LINE SMOOTH",
"291 302 OFFCURVE",
"304 402 OFFCURVE",
"308 503 CURVE SMOOTH",
"311 583 OFFCURVE",
"307 664 OFFCURVE",
"328 743 CURVE SMOOTH",
"332 757 OFFCURVE",
"325 764 OFFCURVE",
"310 761 CURVE",
"311 764 LINE",
"299 762 OFFCURVE",
"287 759 OFFCURVE",
"275 757 CURVE SMOOTH",
"232 750 OFFCURVE",
"231 749 OFFCURVE",
"230 705 CURVE SMOOTH",
"230 692 LINE",
"226 636 OFFCURVE",
"223 580 OFFCURVE",
"218 524 CURVE SMOOTH",
"214 472 OFFCURVE",
"208 420 OFFCURVE",
"203 368 CURVE SMOOTH",
"201 351 OFFCURVE",
"200 334 OFFCURVE",
"198 317 CURVE",
"195 327 OFFCURVE",
"192 344 OFFCURVE",
"191 355 CURVE",
"186 391 OFFCURVE",
"182 428 OFFCURVE",
"176 464 CURVE SMOOTH",
"161 554 OFFCURVE",
"144 644 OFFCURVE",
"128 734 CURVE SMOOTH",
"125 751 OFFCURVE",
"118 758 OFFCURVE",
"102 753 CURVE SMOOTH",
"81 746 OFFCURVE",
"61 737 OFFCURVE",
"40 729 CURVE",
"40 722 OFFCURVE",
"40 717 OFFCURVE",
"41 712 CURVE",
"46 670 OFFCURVE",
"50 628 OFFCURVE",
"56 586 CURVE SMOOTH",
"68 498 OFFCURVE",
"81 410 OFFCURVE",
"93 322 CURVE SMOOTH",
"102 262 OFFCURVE",
"111 202 OFFCURVE",
"119 142 CURVE SMOOTH",
"125 100 OFFCURVE",
"128 57 OFFCURVE",
"133 14 CURVE SMOOTH",
"135 -4 OFFCURVE",
"142 -10 OFFCURVE",
"159 -5 CURVE SMOOTH"
);
}
);
width = 388;
}
);
unicode = 0056;
},
{
glyphname = W;
lastChange = "2019-03-20 23:36:59 +0000";
layers = (
{
hints = (
{
place = "{113, 111}";
type = Stem;
},
{
place = "{342, 123}";
type = Stem;
}
);
layerId = UUID0;
paths = (
{
closed = 1;
nodes = (
"435 6 LINE SMOOTH",
"453 7 OFFCURVE",
"458 11 OFFCURVE",
"459 28 CURVE SMOOTH",
"462 110 OFFCURVE",
"468 192 OFFCURVE",
"467 274 CURVE SMOOTH",
"465 439 OFFCURVE",
"480 603 OFFCURVE",
"489 767 CURVE SMOOTH",
"490 787 OFFCURVE",
"484 792 OFFCURVE",
"465 787 CURVE",
"472 785 LINE",
"455 781 OFFCURVE",
"438 776 OFFCURVE",
"421 772 CURVE SMOOTH",
"411 770 OFFCURVE",
"407 764 OFFCURVE",
"406 754 CURVE SMOOTH",
"402 705 OFFCURVE",
"397 656 OFFCURVE",
"394 607 CURVE SMOOTH",
"390 544 OFFCURVE",
"387 480 OFFCURVE",
"383 417 CURVE",
"379 399 LINE",
"368 455 OFFCURVE",
"359 511 OFFCURVE",
"350 567 CURVE SMOOTH",
"346 591 OFFCURVE",
"338 597 OFFCURVE",
"313 596 CURVE SMOOTH",
"232 593 LINE SMOOTH",
"203 592 OFFCURVE",
"198 588 OFFCURVE",
"193 560 CURVE SMOOTH",
"192 555 OFFCURVE",
"192 550 OFFCURVE",
"191 545 CURVE",
"176 419 LINE",
"175 416 OFFCURVE",
"173 411 OFFCURVE",
"171 408 CURVE",
"163 450 OFFCURVE",
"161 491 OFFCURVE",
"156 532 CURVE SMOOTH",
"149 593 OFFCURVE",
"140 654 OFFCURVE",
"132 715 CURVE",
"132 724 OFFCURVE",
"125 731 OFFCURVE",
"116 731 CURVE SMOOTH",
"113 731 LINE",
"95 730 OFFCURVE",
"77 729 OFFCURVE",
"59 727 CURVE SMOOTH",
"38 724 OFFCURVE",
"34 719 OFFCURVE",
"36 698 CURVE SMOOTH",
"45 608 LINE SMOOTH",
"58 489 OFFCURVE",
"71 370 OFFCURVE",
"84 251 CURVE SMOOTH",
"108 26 LINE SMOOTH",
"110 5 OFFCURVE",
"114 2 OFFCURVE",
"136 3 CURVE SMOOTH",
"152 4 OFFCURVE",
"168 6 OFFCURVE",
"184 7 CURVE SMOOTH",
"214 9 OFFCURVE",
"215 9 OFFCURVE",
"218 39 CURVE SMOOTH",
"242 270 LINE SMOOTH",
"248 325 OFFCURVE",
"262 378 OFFCURVE",
"274 431 CURVE",
"280 431 LINE",
"281 428 OFFCURVE",
"282 423 OFFCURVE",
"283 420 CURVE",
"307 231 LINE SMOOTH",
"316 161 OFFCURVE",
"325 91 OFFCURVE",
"335 21 CURVE SMOOTH",
"338 1 OFFCURVE",
"342 -1 OFFCURVE",
"363 0 CURVE"
);
}
);
width = 554;
}
);
unicode = 0057;
},
{
glyphname = X;
lastChange = "2019-03-20 23:36:59 +0000";
layers = (
{
hints = (
{
place = "{94, 77}";
type = Stem;
},
{
place = "{206, 102}";
type = Stem;
}
);
layerId = UUID0;
paths = (
{
closed = 1;
nodes = (
"116 -38 OFFCURVE",
"123 -35 OFFCURVE",
"128 -25 CURVE SMOOTH",
"130 -21 OFFCURVE",
"132 -17 OFFCURVE",
"133 -13 CURVE",
"220 206 LINE SMOOTH",
"226 222 OFFCURVE",
"233 237 OFFCURVE",
"242 258 CURVE",
"246 250 OFFCURVE",
"248 247 OFFCURVE",
"249 244 CURVE SMOOTH",
"274 167 OFFCURVE",
"299 90 OFFCURVE",
"323 13 CURVE SMOOTH",
"333 -18 OFFCURVE",
"341 -27 OFFCURVE",
"381 -16 CURVE",
"403 -9 LINE",
"414 -4 OFFCURVE",
"418 5 OFFCURVE",
"414 17 CURVE SMOOTH",
"399 62 LINE",
"403 61 LINE",
"388 107 OFFCURVE",
"373 153 OFFCURVE",
"359 199 CURVE SMOOTH",
"343 252 OFFCURVE",
"329 306 OFFCURVE",
"313 359 CURVE",
"311 364 OFFCURVE",
"309 373 OFFCURVE",
"309 379 CURVE SMOOTH",
"309 387 OFFCURVE",
"312 399 OFFCURVE",
"315 406 CURVE",
"346 469 OFFCURVE",
"375 533 OFFCURVE",
"404 597 CURVE SMOOTH",
"421 634 OFFCURVE",
"437 671 OFFCURVE",
"452 708 CURVE SMOOTH",
"463 734 OFFCURVE",
"472 761 OFFCURVE",
"481 788 CURVE SMOOTH",
"486 803 OFFCURVE",
"481 810 OFFCURVE",
"465 812 CURVE SMOOTH",
"457 813 OFFCURVE",
"448 811 OFFCURVE",
"440 813 CURVE SMOOTH",
"415 819 OFFCURVE",
"402 808 OFFCURVE",
"392 786 CURVE SMOOTH",
"366 727 OFFCURVE",
"339 669 OFFCURVE",
"312 611 CURVE SMOOTH",
"298 581 OFFCURVE",
"283 551 OFFCURVE",
"267 518 CURVE",
"260 533 LINE",
"230 624 OFFCURVE",
"200 715 OFFCURVE",
"170 806 CURVE",
"161 830 LINE SMOOTH",
"157 841 OFFCURVE",
"149 844 OFFCURVE",
"139 838 CURVE",
"128 832 OFFCURVE",
"117 825 OFFCURVE",
"106 818 CURVE SMOOTH",
"93 810 OFFCURVE",
"87 799 OFFCURVE",
"92 783 CURVE SMOOTH",
"94 776 OFFCURVE",
"95 768 OFFCURVE",
"97 761 CURVE SMOOTH",
"110 718 OFFCURVE",
"124 675 OFFCURVE",
"137 632 CURVE SMOOTH",
"158 562 OFFCURVE",
"178 491 OFFCURVE",
"200 421 CURVE",
"202 416 OFFCURVE",
"203 408 OFFCURVE",
"203 403 CURVE SMOOTH",
"203 396 OFFCURVE",
"201 385 OFFCURVE",
"198 379 CURVE",
"87 121 LINE SMOOTH",
"80 105 OFFCURVE",
"71 90 OFFCURVE",
"64 74 CURVE SMOOTH",
"55 55 OFFCURVE",
"46 36 OFFCURVE",
"39 16 CURVE SMOOTH",
"34 1 OFFCURVE",
"39 -6 OFFCURVE",
"54 -12 CURVE SMOOTH",
"105 -33 LINE"
);
}
);
width = 541;
}
);
unicode = 0058;
},
{
glyphname = Y;
lastChange = "2019-03-20 23:36:59 +0000";
layers = (
{
hints = (
{
place = "{211, 93}";
type = Stem;
}
);
layerId = UUID0;
paths = (
{
closed = 1;
nodes = (
"255 -41 OFFCURVE",
"273 -39 OFFCURVE",
"291 -37 CURVE SMOOTH",
"304 -36 OFFCURVE",
"310 -29 OFFCURVE",
"310 -15 CURVE SMOOTH",
"310 20 OFFCURVE",
"311 55 OFFCURVE",
"310 90 CURVE SMOOTH",
"308 167 OFFCURVE",
"305 244 OFFCURVE",
"302 321 CURVE",
"302 324 LINE SMOOTH",
"302 336 OFFCURVE",
"306 354 OFFCURVE",
"311 364 CURVE SMOOTH",
"319 381 OFFCURVE",
"330 409 OFFCURVE",
"336 427 CURVE SMOOTH",
"367 520 OFFCURVE",
"389 615 OFFCURVE",
"408 711 CURVE SMOOTH",
"432 831 LINE SMOOTH",
"435 847 OFFCURVE",
"433 853 OFFCURVE",
"421 855 CURVE",
"423 852 LINE",
"403 855 OFFCURVE",
"382 856 OFFCURVE",
"362 857 CURVE",
"351 857 OFFCURVE",
"345 851 OFFCURVE",
"343 840 CURVE SMOOTH",
"335 795 OFFCURVE",
"327 750 OFFCURVE",
"317 706 CURVE SMOOTH",
"301 633 OFFCURVE",
"283 561 OFFCURVE",
"266 489 CURVE",
"259 489 LINE",
"257 493 OFFCURVE",
"255 497 OFFCURVE",
"254 501 CURVE",
"221 599 OFFCURVE",
"185 696 OFFCURVE",
"139 789 CURVE SMOOTH",
"115 836 OFFCURVE",
"116 837 OFFCURVE",
"65 826 CURVE SMOOTH",
"37 820 OFFCURVE",
"33 813 OFFCURVE",
"44 787 CURVE SMOOTH",
"59 752 OFFCURVE",
"77 718 OFFCURVE",
"90 682 CURVE SMOOTH",
"129 572 OFFCURVE",
"167 461 OFFCURVE",
"205 350 CURVE",
"207 343 OFFCURVE",
"209 332 OFFCURVE",
"209 325 CURVE",
"210 299 OFFCURVE",
"209 273 OFFCURVE",
"209 247 CURVE SMOOTH",
"210 157 OFFCURVE",
"206 67 OFFCURVE",
"217 -23 CURVE SMOOTH",
"219 -40 OFFCURVE",
"221 -43 OFFCURVE",
"237 -42 CURVE SMOOTH"
);
}
);
width = 494;
}
);
unicode = 0059;
},
{
glyphname = Z;
lastChange = "2019-03-20 23:36:59 +0000";
layers = (
{
hints = (
{
horizontal = 1;
place = "{604, 110}";
type = Stem;
},
{
horizontal = 1;
place = "{618, 98}";
type = Stem;
}
);
layerId = UUID0;
paths = (
{
closed = 1;
nodes = (
"97 31 OFFCURVE",
"127 34 OFFCURVE",
"157 36 CURVE SMOOTH",
"213 40 OFFCURVE",
"269 44 OFFCURVE",
"325 47 CURVE SMOOTH",
"340 48 OFFCURVE",
"356 46 OFFCURVE",
"371 46 CURVE",
"387 47 OFFCURVE",
"390 51 OFFCURVE",
"391 67 CURVE SMOOTH",
"392 87 OFFCURVE",
"393 107 OFFCURVE",
"393 127 CURVE SMOOTH",
"393 154 OFFCURVE",
"387 158 OFFCURVE",
"361 156 CURVE SMOOTH",
"295 151 OFFCURVE",
"229 148 OFFCURVE",
"158 144 CURVE",
"162 152 OFFCURVE",
"164 157 OFFCURVE",
"167 162 CURVE SMOOTH",
"196 210 OFFCURVE",
"223 258 OFFCURVE",
"253 305 CURVE",
"246 307 LINE",
"272 349 OFFCURVE",
"300 390 OFFCURVE",
"329 430 CURVE SMOOTH",
"363 478 OFFCURVE",
"399 525 OFFCURVE",
"434 573 CURVE",
"438 578 OFFCURVE",
"442 587 OFFCURVE",
"443 593 CURVE",
"442 627 OFFCURVE",
"440 661 OFFCURVE",
"438 695 CURVE SMOOTH",
"437 716 OFFCURVE",
"435 720 OFFCURVE",
"415 720 CURVE SMOOTH",
"356 719 OFFCURVE",
"297 717 OFFCURVE",
"238 715 CURVE SMOOTH",
"218 714 OFFCURVE",
"198 714 OFFCURVE",
"178 714 CURVE SMOOTH",
"149 714 OFFCURVE",
"120 713 OFFCURVE",
"91 713 CURVE SMOOTH",
"77 713 OFFCURVE",
"71 706 OFFCURVE",
"70 693 CURVE SMOOTH",
"69 671 OFFCURVE",
"68 649 OFFCURVE",
"68 627 CURVE SMOOTH",
"68 611 OFFCURVE",
"72 607 OFFCURVE",
"88 606 CURVE",
"97 605 OFFCURVE",
"112 604 OFFCURVE",
"121 604 CURVE SMOOTH",
"139 604 LINE",
"163 606 OFFCURVE",
"187 611 OFFCURVE",
"211 613 CURVE SMOOTH",
"249 616 OFFCURVE",
"288 617 OFFCURVE",
"327 618 CURVE SMOOTH",
"332 618 OFFCURVE",
"337 617 OFFCURVE",
"345 616 CURVE",
"328 589 LINE SMOOTH",
"306 556 OFFCURVE",
"284 523 OFFCURVE",
"263 489 CURVE SMOOTH",
"233 440 OFFCURVE",
"205 390 OFFCURVE",
"174 342 CURVE SMOOTH",
"138 285 OFFCURVE",
"106 225 OFFCURVE",
"60 175 CURVE",
"55 169 OFFCURVE",
"50 158 OFFCURVE",
"49 150 CURVE SMOOTH",
"46 118 OFFCURVE",
"44 86 OFFCURVE",
"43 54 CURVE SMOOTH",
"43 33 OFFCURVE",
"47 29 OFFCURVE",
"67 30 CURVE SMOOTH"
);
}
);
width = 500;
}
);
unicode = 005A;
},
{
glyphname = A.ss01;
lastChange = "2019-03-20 23:36:59 +0000";
layers = (
{
layerId = UUID0;
paths = (
{
closed = 1;
nodes = (
"101 -49 OFFCURVE",
"115 -50 OFFCURVE",
"118 -17 CURVE SMOOTH",
"133 153 OFFCURVE",
"146 326 OFFCURVE",
"159 495 CURVE",
"181 500 LINE",
"193 432 OFFCURVE",
"198 364 OFFCURVE",
"206 296 CURVE SMOOTH",
"217 199 OFFCURVE",
"234 102 OFFCURVE",
"241 7 CURVE SMOOTH",
"243 -19 OFFCURVE",
"247 -26 OFFCURVE",
"268 -26 CURVE SMOOTH",
"299 -26 OFFCURVE",
"349 -22 OFFCURVE",
"349 2 CURVE SMOOTH",
"349 5 OFFCURVE",
"348 8 OFFCURVE",
"348 11 CURVE",
"347 22 OFFCURVE",
"343 33 OFFCURVE",
"342 44 CURVE SMOOTH",
"312 307 OFFCURVE",
"289 574 OFFCURVE",
"244 837 CURVE SMOOTH",
"241 854 OFFCURVE",
"233 861 OFFCURVE",
"220 861 CURVE SMOOTH",
"186 861 OFFCURVE",
"149 851 OFFCURVE",
"115 846 CURVE SMOOTH",
"91 842 OFFCURVE",
"83 762 OFFCURVE",
"80 723 CURVE SMOOTH",
"63 505 OFFCURVE",
"49 287 OFFCURVE",
"30 69 CURVE SMOOTH",
"27 38 OFFCURVE",
"20 5 OFFCURVE",
"20 -26 CURVE SMOOTH",
"20 -48 OFFCURVE",
"28 -53 OFFCURVE",
"53 -53 CURVE"
);
},
{
closed = 1;
nodes = (
"157 616 OFFCURVE",
"162 683 OFFCURVE",
"172 683 CURVE",
"179 656 OFFCURVE",
"186 630 OFFCURVE",
"194 598 CURVE",
"154 595 LINE"
);
}
);
width = 368;
}
);
},
{
glyphname = B.ss01;
lastChange = "2019-03-20 23:41:18 +0000";
layers = (
{
layerId = UUID0;
paths = (
{
closed = 1;
nodes = (
"107 -11 OFFCURVE",
"143 -7 OFFCURVE",
"157 -5 CURVE SMOOTH",
"200 1 OFFCURVE",
"275 25 OFFCURVE",
"303 36 CURVE SMOOTH",
"379 67 OFFCURVE",
"448 143 OFFCURVE",
"448 230 CURVE SMOOTH",
"448 299 OFFCURVE",
"418 392 OFFCURVE",
"378 440 CURVE SMOOTH",
"340 485 OFFCURVE",
"287 495 OFFCURVE",
"227 495 CURVE",
"252 514 OFFCURVE",
"296 531 OFFCURVE",
"325 554 CURVE SMOOTH",
"368 587 OFFCURVE",
"386 637 OFFCURVE",
"386 687 CURVE SMOOTH",
"386 773 OFFCURVE",
"333 835 OFFCURVE",
"244 851 CURVE SMOOTH",
"228 854 OFFCURVE",
"212 855 OFFCURVE",
"196 855 CURVE SMOOTH",
"173 855 OFFCURVE",
"150 852 OFFCURVE",
"125 847 CURVE SMOOTH",
"99 841 OFFCURVE",
"76 834 OFFCURVE",
"55 824 CURVE SMOOTH",
"45 819 OFFCURVE",
"44 773 OFFCURVE",
"44 755 CURVE SMOOTH",
"44 428 LINE",
"44 20 LINE SMOOTH",
"44 -1 OFFCURVE",
"44 -11 OFFCURVE",
"82 -11 CURVE SMOOTH"
);
},
{
closed = 1;
nodes = (
"143 364 LINE",
"167 374 OFFCURVE",
"193 380 OFFCURVE",
"220 380 CURVE SMOOTH",
"266 380 OFFCURVE",
"282 364 OFFCURVE",
"299 336 CURVE SMOOTH",
"316 307 OFFCURVE",
"326 278 OFFCURVE",
"326 249 CURVE SMOOTH",
"326 218 OFFCURVE",
"312 177 OFFCURVE",
"290 159 CURVE SMOOTH",
"262 134 OFFCURVE",
"198 102 OFFCURVE",
"143 97 CURVE"
);
},
{
closed = 1;
nodes = (
"130 762 LINE",
"157 766 OFFCURVE",
"175 772 OFFCURVE",
"200 772 CURVE SMOOTH",
"230 772 OFFCURVE",
"256 761 OFFCURVE",
"268 724 CURVE",
"272 713 OFFCURVE",
"273 703 OFFCURVE",
"273 694 CURVE SMOOTH",
"273 666 OFFCURVE",
"260 641 OFFCURVE",
"241 620 CURVE SMOOTH",
"208 584 OFFCURVE",
"159 556 OFFCURVE",
"129 539 CURVE"
);
}
);
width = 600;
}
);
},
{
glyphname = C.ss01;
lastChange = "2019-03-20 23:36:59 +0000";
layers = (
{
layerId = UUID0;
paths = (
{
closed = 1;
nodes = (
"265 18 OFFCURVE",
"303 121 OFFCURVE",
"303 274 CURVE SMOOTH",
"303 338 LINE SMOOTH",
"303 356 OFFCURVE",
"295 363 OFFCURVE",
"280 363 CURVE SMOOTH",
"239 363 OFFCURVE",
"227 353 OFFCURVE",
"226 332 CURVE SMOOTH",
"222 282 OFFCURVE",
"219 182 OFFCURVE",
"174 182 CURVE SMOOTH",
"103 182 OFFCURVE",
"104 381 OFFCURVE",
"104 413 CURVE SMOOTH",
"104 486 OFFCURVE",
"111 559 OFFCURVE",
"122 631 CURVE SMOOTH",
"127 661 OFFCURVE",
"139 701 OFFCURVE",
"156 701 CURVE SMOOTH",
"175 701 OFFCURVE",
"196 662 OFFCURVE",
"205 635 CURVE",
"236 519 OFFCURVE",
"199 511 OFFCURVE",
"273 511 CURVE SMOOTH",
"296 511 OFFCURVE",
"293 549 OFFCURVE",
"293 574 CURVE SMOOTH",
"293 648 OFFCURVE",
"272 774 OFFCURVE",
"169 774 CURVE SMOOTH",
"86 774 OFFCURVE",
"54 687 OFFCURVE",
"47 623 CURVE SMOOTH",
"38 537 OFFCURVE",
"29 452 OFFCURVE",
"21 366 CURVE",
"19 351 OFFCURVE",
"19 337 OFFCURVE",
"19 323 CURVE SMOOTH",
"19 189 OFFCURVE",
"74 18 OFFCURVE",
"179 18 CURVE SMOOTH"
);
}
);
width = 329;
}
);
},
{
glyphname = D.ss01;
lastChange = "2019-03-20 23:36:59 +0000";
layers = (
{
layerId = UUID0;
paths = (
{
closed = 1;
nodes = (
"80 12 OFFCURVE",
"130 38 OFFCURVE",
"159 53 CURVE SMOOTH",
"196 72 OFFCURVE",
"229 95 OFFCURVE",
"252 131 CURVE SMOOTH",
"274 165 OFFCURVE",
"299 194 OFFCURVE",
"306 233 CURVE SMOOTH",
"313 271 OFFCURVE",
"316 309 OFFCURVE",
"316 346 CURVE SMOOTH",
"316 381 OFFCURVE",
"313 416 OFFCURVE",
"308 451 CURVE SMOOTH",
"286 580 OFFCURVE",
"203 726 OFFCURVE",
"68 726 CURVE SMOOTH",
"54 726 OFFCURVE",
"40 725 OFFCURVE",
"25 722 CURVE",
"22 700 OFFCURVE",
"21 678 OFFCURVE",
"21 656 CURVE SMOOTH",
"21 585 OFFCURVE",
"35 514 OFFCURVE",
"36 443 CURVE SMOOTH",
"36 367 LINE SMOOTH",
"36 266 OFFCURVE",
"35 165 OFFCURVE",
"35 64 CURVE SMOOTH",
"35 30 OFFCURVE",
"39 12 OFFCURVE",
"57 12 CURVE SMOOTH"
);
},
{
closed = 1;
nodes = (
"114 142 LINE",
"116 186 OFFCURVE",
"118 229 OFFCURVE",
"118 273 CURVE SMOOTH",
"118 383 OFFCURVE",
"110 494 OFFCURVE",
"102 607 CURVE",
"187 560 OFFCURVE",
"214 436 OFFCURVE",
"214 351 CURVE SMOOTH",
"214 269 OFFCURVE",
"178 205 OFFCURVE",
"121 139 CURVE"
);
}
);
width = 349;
}
);
},
{
glyphname = E.ss01;
lastChange = "2019-03-20 23:36:59 +0000";
layers = (
{
layerId = UUID0;
paths = (
{
closed = 1;
nodes = (
"134 30 OFFCURVE",
"214 29 OFFCURVE",
"290 33 CURVE",
"294 68 OFFCURVE",
"294 102 OFFCURVE",
"294 136 CURVE SMOOTH",
"294 158 OFFCURVE",
"293 160 OFFCURVE",
"272 161 CURVE SMOOTH",
"149 164 LINE SMOOTH",
"144 164 OFFCURVE",
"139 165 OFFCURVE",
"136 166 CURVE",
"136 383 LINE",
"174 388 OFFCURVE",
"247 374 OFFCURVE",
"249 402 CURVE",
"249 421 LINE SMOOTH",
"249 447 OFFCURVE",
"253 492 OFFCURVE",
"229 492 CURVE SMOOTH",
"193 492 OFFCURVE",
"162 485 OFFCURVE",
"121 483 CURVE",
"121 654 LINE",
"187 657 OFFCURVE",
"251 659 OFFCURVE",
"317 661 CURVE SMOOTH",
"333 661 OFFCURVE",
"338 667 OFFCURVE",
"338 683 CURVE SMOOTH",
"338 714 OFFCURVE",
"335 744 OFFCURVE",
"334 776 CURVE",
"25 776 LINE",
"16 729 OFFCURVE",
"17 690 OFFCURVE",
"17 646 CURVE SMOOTH",
"17 455 OFFCURVE",
"20 264 OFFCURVE",
"20 73 CURVE SMOOTH",
"20 36 OFFCURVE",
"24 30 OFFCURVE",
"56 30 CURVE SMOOTH"
);
}
);
width = 356;
}
);
},
{
glyphname = F.ss01;
lastChange = "2019-03-20 23:36:59 +0000";
layers = (
{
layerId = UUID0;
paths = (
{
closed = 1;
nodes = (
"121 -79 OFFCURVE",
"123 -71 OFFCURVE",
"123 -40 CURVE SMOOTH",
"123 -1 OFFCURVE",
"122 39 OFFCURVE",
"122 79 CURVE SMOOTH",
"122 152 OFFCURVE",
"128 227 OFFCURVE",
"128 301 CURVE SMOOTH",
"128 331 OFFCURVE",
"127 362 OFFCURVE",
"126 393 CURVE",
"126 399 OFFCURVE",
"127 404 OFFCURVE",
"128 409 CURVE",
"167 409 OFFCURVE",
"212 400 OFFCURVE",
"212 440 CURVE SMOOTH",
"212 478 OFFCURVE",
"214 509 OFFCURVE",
"189 509 CURVE SMOOTH",
"164 509 OFFCURVE",
"139 505 OFFCURVE",
"114 504 CURVE",
"114 665 LINE",
"168 670 OFFCURVE",
"224 673 OFFCURVE",
"277 680 CURVE SMOOTH",
"310 684 OFFCURVE",
"304 700 OFFCURVE",
"304 789 CURVE SMOOTH",
"304 813 OFFCURVE",
"299 817 OFFCURVE",
"271 817 CURVE SMOOTH",
"259 817 LINE SMOOTH",
"193 815 OFFCURVE",
"129 810 OFFCURVE",
"64 808 CURVE SMOOTH",
"57 808 OFFCURVE",
"50 810 OFFCURVE",
"38 811 CURVE",
"26 659 OFFCURVE",
"33 504 OFFCURVE",
"30 351 CURVE SMOOTH",
"28 219 OFFCURVE",
"20 86 OFFCURVE",
"16 -46 CURVE SMOOTH",
"16 -71 OFFCURVE",
"21 -76 OFFCURVE",
"46 -77 CURVE",
"68 -77 LINE SMOOTH",
"81 -77 OFFCURVE",
"94 -79 OFFCURVE",
"102 -79 CURVE SMOOTH"
);
}
);
width = 333;
}
);
},
{
glyphname = G.ss01;
lastChange = "2019-03-20 23:36:59 +0000";
layers = (
{
layerId = UUID0;
paths = (
{
closed = 1;
nodes = (
"407 -41 OFFCURVE",
"446 39 OFFCURVE",
"446 213 CURVE SMOOTH",
"446 276 OFFCURVE",
"439 340 OFFCURVE",
"424 399 CURVE SMOOTH",
"419 418 OFFCURVE",
"411 426 OFFCURVE",
"397 426 CURVE SMOOTH",
"366 426 OFFCURVE",
"317 406 OFFCURVE",
"283 397 CURVE SMOOTH",
"245 387 OFFCURVE",
"193 383 OFFCURVE",
"193 356 CURVE SMOOTH",
"193 314 OFFCURVE",
"208 237 OFFCURVE",
"233 237 CURVE SMOOTH",
"267 237 OFFCURVE",
"300 256 OFFCURVE",
"337 268 CURVE",
"328 194 OFFCURVE",
"331 83 OFFCURVE",
"272 83 CURVE SMOOTH",
"216 83 OFFCURVE",
"167 182 OFFCURVE",
"153 250 CURVE SMOOTH",
"136 326 OFFCURVE",
"128 404 OFFCURVE",
"128 481 CURVE SMOOTH",
"128 562 OFFCURVE",
"141 761 OFFCURVE",
"201 761 CURVE SMOOTH",
"273 761 OFFCURVE",
"297 625 OFFCURVE",
"313 576 CURVE",
"353 579 OFFCURVE",
"399 576 OFFCURVE",
"399 603 CURVE SMOOTH",
"399 607 OFFCURVE",
"398 613 OFFCURVE",
"396 620 CURVE SMOOTH",
"362 735 OFFCURVE",
"312 864 OFFCURVE",
"168 864 CURVE SMOOTH",
"21 864 OFFCURVE",
"10 607 OFFCURVE",
"10 473 CURVE SMOOTH",
"10 336 OFFCURVE",
"38 177 OFFCURVE",
"113 56 CURVE SMOOTH",
"156 -14 OFFCURVE",
"225 -41 OFFCURVE",
"299 -41 CURVE SMOOTH"
);
}
);
width = 468;
}
);
},
{
glyphname = H.ss01;
lastChange = "2019-03-20 23:36:59 +0000";
layers = (
{
layerId = UUID0;
paths = (
{
closed = 1;
nodes = (
"90 -52 OFFCURVE",
"117 -47 OFFCURVE",
"143 -45 CURVE SMOOTH",
"162 -43 OFFCURVE",
"169 -38 OFFCURVE",
"169 -17 CURVE SMOOTH",
"169 122 OFFCURVE",
"154 264 OFFCURVE",
"146 403 CURVE",
"146 421 OFFCURVE",
"199 414 OFFCURVE",
"220 414 CURVE",
"221 406 OFFCURVE",
"222 400 OFFCURVE",
"222 395 CURVE SMOOTH",
"226 258 OFFCURVE",
"227 121 OFFCURVE",
"231 -16 CURVE SMOOTH",
"231 -35 OFFCURVE",
"237 -41 OFFCURVE",
"256 -41 CURVE SMOOTH",
"346 -41 OFFCURVE",
"370 -31 OFFCURVE",
"370 4 CURVE SMOOTH",
"370 16 OFFCURVE",
"368 37 OFFCURVE",
"366 52 CURVE",
"356 171 OFFCURVE",
"355 295 OFFCURVE",
"355 413 CURVE SMOOTH",
"355 446 OFFCURVE",
"357 479 OFFCURVE",
"357 512 CURVE SMOOTH",
"357 585 OFFCURVE",
"340 798 OFFCURVE",
"303 798 CURVE SMOOTH",
"289 798 OFFCURVE",
"271 795 OFFCURVE",
"256 794 CURVE SMOOTH",
"233 793 OFFCURVE",
"226 789 OFFCURVE",
"226 766 CURVE SMOOTH",
"226 688 OFFCURVE",
"226 611 OFFCURVE",
"226 534 CURVE",
"152 534 LINE",
"152 553 OFFCURVE",
"153 571 OFFCURVE",
"153 587 CURVE SMOOTH",
"153 640 OFFCURVE",
"144 693 OFFCURVE",
"138 746 CURVE SMOOTH",
"136 760 OFFCURVE",
"129 768 OFFCURVE",
"120 768 CURVE SMOOTH",
"118 768 OFFCURVE",
"115 768 OFFCURVE",
"113 767 CURVE",
"82 753 OFFCURVE",
"24 762 OFFCURVE",
"24 736 CURVE SMOOTH",
"24 728 OFFCURVE",
"28 719 OFFCURVE",
"28 709 CURVE SMOOTH",
"26 651 OFFCURVE",
"25 593 OFFCURVE",
"25 534 CURVE SMOOTH",
"25 386 OFFCURVE",
"37 238 OFFCURVE",
"37 90 CURVE SMOOTH",
"37 52 OFFCURVE",
"36 14 OFFCURVE",
"36 -24 CURVE SMOOTH",
"36 -49 OFFCURVE",
"39 -52 OFFCURVE",
"64 -52 CURVE SMOOTH"
);
}
);
width = 401;
}
);
},
{
glyphname = I.ss01;
lastChange = "2019-03-20 23:36:59 +0000";
layers = (
{
layerId = UUID0;
paths = (
{
closed = 1;
nodes = (
"137 -17 OFFCURVE",
"186 -27 OFFCURVE",
"186 6 CURVE SMOOTH",
"186 61 OFFCURVE",
"178 116 OFFCURVE",
"176 171 CURVE SMOOTH",
"172 287 OFFCURVE",
"172 404 OFFCURVE",
"172 521 CURVE SMOOTH",
"172 586 OFFCURVE",
"179 649 OFFCURVE",
"179 714 CURVE SMOOTH",
"179 743 OFFCURVE",
"175 792 OFFCURVE",
"156 792 CURVE SMOOTH",
"144 792 OFFCURVE",
"124 783 OFFCURVE",
"110 783 CURVE SMOOTH",
"102 783 OFFCURVE",
"95 784 OFFCURVE",
"87 784 CURVE SMOOTH",
"60 784 OFFCURVE",
"11 772 OFFCURVE",
"11 749 CURVE SMOOTH",
"11 738 OFFCURVE",
"22 737 OFFCURVE",
"33 732 CURVE",
"33 637 LINE SMOOTH",
"33 546 OFFCURVE",
"42 457 OFFCURVE",
"45 369 CURVE SMOOTH",
"49 248 OFFCURVE",
"52 125 OFFCURVE",
"52 5 CURVE SMOOTH",
"52 -12 OFFCURVE",
"55 -17 OFFCURVE",
"69 -17 CURVE SMOOTH"
);
}
);
width = 212;
}
);
},
{
glyphname = J.ss01;
lastChange = "2019-03-20 23:36:59 +0000";
layers = (
{
layerId = UUID0;
paths = (
{
closed = 1;
nodes = (
"286 25 OFFCURVE",
"313 181 OFFCURVE",
"313 253 CURVE SMOOTH",
"313 279 OFFCURVE",
"311 304 OFFCURVE",
"310 329 CURVE SMOOTH",
"306 393 OFFCURVE",
"299 460 OFFCURVE",
"299 525 CURVE SMOOTH",
"299 548 OFFCURVE",
"301 571 OFFCURVE",
"301 594 CURVE SMOOTH",
"301 664 OFFCURVE",
"294 735 OFFCURVE",
"287 805 CURVE",
"285 819 OFFCURVE",
"278 826 OFFCURVE",
"268 826 CURVE SMOOTH",
"247 826 OFFCURVE",
"215 811 OFFCURVE",
"192 805 CURVE SMOOTH",
"173 800 OFFCURVE",
"166 792 OFFCURVE",
"166 775 CURVE SMOOTH",
"166 731 OFFCURVE",
"176 685 OFFCURVE",
"180 642 CURVE SMOOTH",
"185 583 OFFCURVE",
"188 524 OFFCURVE",
"195 465 CURVE SMOOTH",
"201 414 OFFCURVE",
"209 364 OFFCURVE",
"209 311 CURVE SMOOTH",
"209 296 LINE SMOOTH",
"209 284 OFFCURVE",
"210 272 OFFCURVE",
"210 259 CURVE SMOOTH",
"210 219 OFFCURVE",
"203 133 OFFCURVE",
"174 133 CURVE SMOOTH",
"120 133 OFFCURVE",
"115 282 OFFCURVE",
"106 359 CURVE SMOOTH",
"103 380 OFFCURVE",
"98 386 OFFCURVE",
"77 386 CURVE SMOOTH",
"27 386 OFFCURVE",
"15 388 OFFCURVE",
"15 357 CURVE",
"19 252 OFFCURVE",
"35 78 OFFCURVE",
"126 41 CURVE SMOOTH",
"146 33 OFFCURVE",
"172 25 OFFCURVE",
"191 25 CURVE SMOOTH"
);
}
);
width = 337;
}
);
},
{
glyphname = K.ss01;
lastChange = "2019-03-20 23:36:59 +0000";
layers = (
{
layerId = UUID0;
paths = (
{
closed = 1;
nodes = (
"98 -121 OFFCURVE",
"159 -123 OFFCURVE",
"159 -84 CURVE",
"151 6 OFFCURVE",
"145 98 OFFCURVE",
"136 188 CURVE",
"148 163 OFFCURVE",
"156 138 OFFCURVE",
"165 113 CURVE SMOOTH",
"189 50 OFFCURVE",
"214 -13 OFFCURVE",
"238 -77 CURVE SMOOTH",
"246 -99 OFFCURVE",
"248 -102 OFFCURVE",
"264 -102 CURVE SMOOTH",
"299 -102 LINE SMOOTH",
"318 -102 OFFCURVE",
"336 -112 OFFCURVE",
"349 -112 CURVE SMOOTH",
"359 -112 OFFCURVE",
"369 -103 OFFCURVE",
"369 -91 CURVE SMOOTH",
"369 -74 OFFCURVE",
"356 -51 OFFCURVE",
"352 -32 CURVE",
"319 99 OFFCURVE",
"265 215 OFFCURVE",
"205 338 CURVE",
"201 345 OFFCURVE",
"198 353 OFFCURVE",
"198 362 CURVE SMOOTH",
"198 364 OFFCURVE",
"198 367 OFFCURVE",
"199 370 CURVE SMOOTH",
"249 531 OFFCURVE",
"300 691 OFFCURVE",
"345 854 CURVE",
"346 856 OFFCURVE",
"347 860 OFFCURVE",
"347 863 CURVE SMOOTH",
"347 875 OFFCURVE",
"341 880 OFFCURVE",
"330 880 CURVE SMOOTH",
"326 880 OFFCURVE",
"322 879 OFFCURVE",
"319 878 CURVE",
"296 869 OFFCURVE",
"274 862 OFFCURVE",
"249 862 CURVE SMOOTH",
"218 862 OFFCURVE",
"218 821 OFFCURVE",
"210 792 CURVE SMOOTH",
"189 715 OFFCURVE",
"168 638 OFFCURVE",
"146 562 CURVE",
"142 571 OFFCURVE",
"141 579 OFFCURVE",
"141 587 CURVE",
"140 666 OFFCURVE",
"140 746 OFFCURVE",
"140 825 CURVE SMOOTH",
"140 845 OFFCURVE",
"143 870 OFFCURVE",
"121 870 CURVE",
"65 864 OFFCURVE",
"33 870 OFFCURVE",
"28 820 CURVE",
"20 669 OFFCURVE",
"24 515 OFFCURVE",
"24 363 CURVE SMOOTH",
"24 219 OFFCURVE",
"26 74 OFFCURVE",
"28 -70 CURVE SMOOTH",
"28 -89 OFFCURVE",
"33 -121 OFFCURVE",
"51 -121 CURVE SMOOTH"
);
}
);
width = 401;
}
);
},
{
glyphname = L.ss01;
lastChange = "2019-03-20 23:36:59 +0000";
layers = (
{
layerId = UUID0;
paths = (
{
closed = 1;
nodes = (
"145 -94 OFFCURVE",
"201 -89 OFFCURVE",
"256 -89 CURVE SMOOTH",
"288 -89 OFFCURVE",
"321 -93 OFFCURVE",
"353 -93 CURVE SMOOTH",
"368 -93 OFFCURVE",
"370 -87 OFFCURVE",
"370 -71 CURVE SMOOTH",
"370 -38 OFFCURVE",
"362 -4 OFFCURVE",
"361 29 CURVE",
"360 41 OFFCURVE",
"353 45 OFFCURVE",
"343 45 CURVE SMOOTH",
"330 45 OFFCURVE",
"317 42 OFFCURVE",
"304 42 CURVE",
"258 39 OFFCURVE",
"212 42 OFFCURVE",
"166 29 CURVE",
"165 29 OFFCURVE",
"164 28 OFFCURVE",
"162 28 CURVE SMOOTH",
"147 28 OFFCURVE",
"152 44 OFFCURVE",
"152 53 CURVE SMOOTH",
"152 115 LINE SMOOTH",
"152 199 OFFCURVE",
"144 281 OFFCURVE",
"140 365 CURVE SMOOTH",
"135 533 OFFCURVE",
"138 699 OFFCURVE",
"119 865 CURVE SMOOTH",
"117 883 OFFCURVE",
"112 892 OFFCURVE",
"98 892 CURVE SMOOTH",
"73 892 OFFCURVE",
"19 874 OFFCURVE",
"19 852 CURVE SMOOTH",
"19 834 OFFCURVE",
"20 816 OFFCURVE",
"20 798 CURVE SMOOTH",
"20 787 OFFCURVE",
"19 776 OFFCURVE",
"19 765 CURVE SMOOTH",
"19 679 OFFCURVE",
"30 593 OFFCURVE",
"38 508 CURVE SMOOTH",
"56 318 OFFCURVE",
"53 126 OFFCURVE",
"58 -62 CURVE SMOOTH",
"59 -89 OFFCURVE",
"64 -94 OFFCURVE",
"90 -94 CURVE SMOOTH"
);
}
);
width = 391;
}
);
},
{
glyphname = M.ss01;
lastChange = "2019-03-20 23:36:59 +0000";
layers = (
{
layerId = UUID0;
paths = (
{
closed = 1;
nodes = (
"498 -186 OFFCURVE",
"558 -183 OFFCURVE",
"558 -163 CURVE SMOOTH",
"558 -161 OFFCURVE",
"557 -158 OFFCURVE",
"557 -154 CURVE",
"553 -118 OFFCURVE",
"551 -74 OFFCURVE",
"551 -50 CURVE SMOOTH",
"551 -28 OFFCURVE",
"552 -13 OFFCURVE",
"552 9 CURVE SMOOTH",
"552 111 OFFCURVE",
"542 216 OFFCURVE",
"538 320 CURVE SMOOTH",
"535 392 OFFCURVE",
"536 464 OFFCURVE",
"534 536 CURVE SMOOTH",
"531 638 OFFCURVE",
"525 742 OFFCURVE",
"522 843 CURVE",
"521 858 OFFCURVE",
"516 865 OFFCURVE",
"505 865 CURVE SMOOTH",
"486 865 OFFCURVE",
"468 857 OFFCURVE",
"450 855 CURVE SMOOTH",
"433 853 OFFCURVE",
"427 845 OFFCURVE",
"424 829 CURVE SMOOTH",
"386 652 OFFCURVE",
"353 474 OFFCURVE",
"323 297 CURVE",
"322 293 OFFCURVE",
"319 289 OFFCURVE",
"315 281 CURVE",
"304 475 OFFCURVE",
"291 644 OFFCURVE",
"273 834 CURVE SMOOTH",
"271 853 OFFCURVE",
"269 859 OFFCURVE",
"256 859 CURVE SMOOTH",
"230 859 OFFCURVE",
"200 852 OFFCURVE",
"168 849 CURVE",
"134 714 OFFCURVE",
"122 570 OFFCURVE",
"102 432 CURVE SMOOTH",
"76 255 OFFCURVE",
"48 66 OFFCURVE",
"21 -86 CURVE",
"19 -94 OFFCURVE",
"17 -101 OFFCURVE",
"16 -109 CURVE",
"16 -118 OFFCURVE",
"19 -123 OFFCURVE",
"25 -123 CURVE SMOOTH",
"33 -123 OFFCURVE",
"48 -113 OFFCURVE",
"61 -113 CURVE SMOOTH",
"77 -113 OFFCURVE",
"92 -115 OFFCURVE",
"108 -115 CURVE SMOOTH",
"137 -115 OFFCURVE",
"135 -65 OFFCURVE",
"140 -35 CURVE SMOOTH",
"163 121 OFFCURVE",
"177 205 OFFCURVE",
"201 361 CURVE SMOOTH",
"202 368 OFFCURVE",
"204 374 OFFCURVE",
"206 380 CURVE",
"228 287 OFFCURVE",
"224 175 OFFCURVE",
"234 85 CURVE",
"235 71 OFFCURVE",
"242 65 OFFCURVE",
"256 65 CURVE SMOOTH",
"287 65 OFFCURVE",
"317 62 OFFCURVE",
"347 62 CURVE SMOOTH",
"363 62 OFFCURVE",
"366 65 OFFCURVE",
"371 87 CURVE SMOOTH",
"389 168 OFFCURVE",
"406 249 OFFCURVE",
"427 330 CURVE",
"437 330 OFFCURVE",
"433 298 OFFCURVE",
"433 285 CURVE",
"439 135 OFFCURVE",
"441 -35 OFFCURVE",
"449 -165 CURVE SMOOTH",
"450 -177 OFFCURVE",
"453 -186 OFFCURVE",
"466 -186 CURVE SMOOTH"
);
}
);
width = 576;
}
);
},
{
glyphname = N.ss01;
lastChange = "2019-03-20 23:36:59 +0000";
layers = (
{
layerId = UUID0;
paths = (
{
closed = 1;
nodes = (
"373 -50 OFFCURVE",
"425 -48 OFFCURVE",
"478 -46 CURVE",
"485 27 OFFCURVE",
"480 104 OFFCURVE",
"480 179 CURVE SMOOTH",
"480 214 OFFCURVE",
"477 249 OFFCURVE",
"477 285 CURVE",
"472 409 OFFCURVE",
"466 534 OFFCURVE",
"462 659 CURVE SMOOTH",
"460 712 OFFCURVE",
"453 832 OFFCURVE",
"422 832 CURVE",
"414 831 OFFCURVE",
"407 830 OFFCURVE",
"399 830 CURVE SMOOTH",
"392 830 OFFCURVE",
"384 831 OFFCURVE",
"377 831 CURVE SMOOTH",
"349 831 OFFCURVE",
"345 804 OFFCURVE",
"345 782 CURVE SMOOTH",
"345 737 OFFCURVE",
"343 692 OFFCURVE",
"343 647 CURVE SMOOTH",
"343 480 OFFCURVE",
"354 312 OFFCURVE",
"359 144 CURVE SMOOTH",
"359 142 OFFCURVE",
"358 139 OFFCURVE",
"358 136 CURVE",
"338 167 OFFCURVE",
"329 216 OFFCURVE",
"314 255 CURVE SMOOTH",
"244 441 OFFCURVE",
"182 627 OFFCURVE",
"117 809 CURVE SMOOTH",
"112 822 OFFCURVE",
"109 827 OFFCURVE",
"100 827 CURVE SMOOTH",
"84 827 OFFCURVE",
"62 816 OFFCURVE",
"41 816 CURVE SMOOTH",
"34 816 OFFCURVE",
"27 817 OFFCURVE",
"19 819 CURVE",
"15 800 OFFCURVE",
"14 787 OFFCURVE",
"14 770 CURVE SMOOTH",
"14 624 OFFCURVE",
"25 479 OFFCURVE",
"25 334 CURVE SMOOTH",
"25 240 OFFCURVE",
"20 147 OFFCURVE",
"16 55 CURVE SMOOTH",
"15 28 OFFCURVE",
"14 1 OFFCURVE",
"14 -25 CURVE SMOOTH",
"14 -45 OFFCURVE",
"28 -52 OFFCURVE",
"45 -52 CURVE SMOOTH",
"69 -52 OFFCURVE",
"93 -44 OFFCURVE",
"118 -44 CURVE SMOOTH",
"126 -44 OFFCURVE",
"134 -45 OFFCURVE",
"142 -45 CURVE SMOOTH",
"157 -45 OFFCURVE",
"163 -36 OFFCURVE",
"163 -19 CURVE SMOOTH",
"163 0 OFFCURVE",
"160 19 OFFCURVE",
"159 37 CURVE SMOOTH",
"154 148 OFFCURVE",
"145 257 OFFCURVE",
"141 367 CURVE",
"194 224 OFFCURVE",
"241 80 OFFCURVE",
"324 -53 CURVE"
);
}
);
width = 508;
}
);
},
{
glyphname = O.ss01;
lastChange = "2019-03-20 23:36:59 +0000";
layers = (
{
layerId = UUID0;
paths = (
{
closed = 1;
nodes = (
"263 -4 OFFCURVE",
"296 143 OFFCURVE",
"312 225 CURVE SMOOTH",
"329 328 OFFCURVE",
"329 433 OFFCURVE",
"335 529 CURVE",
"333 595 OFFCURVE",
"336 654 OFFCURVE",
"316 710 CURVE",
"310 725 OFFCURVE",
"306 740 OFFCURVE",
"301 755 CURVE",
"283 817 OFFCURVE",
"241 838 OFFCURVE",
"160 838 CURVE SMOOTH",
"75 838 OFFCURVE",
"49 754 OFFCURVE",
"40 704 CURVE SMOOTH",
"25 622 OFFCURVE",
"24 539 OFFCURVE",
"24 456 CURVE SMOOTH",
"24 344 OFFCURVE",
"25 234 OFFCURVE",
"40 125 CURVE SMOOTH",
"48 64 OFFCURVE",
"70 -4 OFFCURVE",
"149 -4 CURVE SMOOTH"
);
},
{
closed = 1;
nodes = (
"131 133 OFFCURVE",
"133 179 OFFCURVE",
"133 202 CURVE",
"130 323 OFFCURVE",
"128 443 OFFCURVE",
"128 564 CURVE SMOOTH",
"128 613 OFFCURVE",
"132 710 OFFCURVE",
"169 710 CURVE SMOOTH",
"208 710 OFFCURVE",
"208 655 OFFCURVE",
"208 622 CURVE SMOOTH",
"208 497 OFFCURVE",
"202 371 OFFCURVE",
"188 246 CURVE SMOOTH",
"184 208 OFFCURVE",
"172 171 OFFCURVE",
"163 133 CURVE"
);
}
);
width = 356;
}
);
},
{
glyphname = P.ss01;
lastChange = "2019-03-20 23:36:59 +0000";
layers = (
{
layerId = UUID0;
paths = (
{
closed = 1;
nodes = (
"131 -31 OFFCURVE",
"135 -25 OFFCURVE",
"135 -2 CURVE SMOOTH",
"135 18 OFFCURVE",
"133 39 OFFCURVE",
"133 60 CURVE SMOOTH",
"133 228 LINE SMOOTH",
"133 321 OFFCURVE",
"132 415 OFFCURVE",
"126 508 CURVE",
"126 524 OFFCURVE",
"142 524 OFFCURVE",
"153 524 CURVE",
"213 528 OFFCURVE",
"259 559 OFFCURVE",
"294 606 CURVE SMOOTH",
"309 625 OFFCURVE",
"310 641 OFFCURVE",
"310 661 CURVE SMOOTH",
"310 777 OFFCURVE",
"213 828 OFFCURVE",
"130 828 CURVE SMOOTH",
"108 828 OFFCURVE",
"84 825 OFFCURVE",
"61 822 CURVE",
"56 822 OFFCURVE",
"39 814 OFFCURVE",
"25 810 CURVE",
"24 797 OFFCURVE",
"22 781 OFFCURVE",
"22 765 CURVE SMOOTH",
"24 515 OFFCURVE",
"29 266 OFFCURVE",
"37 17 CURVE SMOOTH",
"37 -33 OFFCURVE",
"76 -31 OFFCURVE",
"112 -31 CURVE SMOOTH"
);
},
{
closed = 1;
nodes = (
"104 656 OFFCURVE",
"105 708 OFFCURVE",
"102 764 CURVE",
"162 753 OFFCURVE",
"201 746 OFFCURVE",
"201 686 CURVE SMOOTH",
"201 664 OFFCURVE",
"193 642 OFFCURVE",
"176 628 CURVE SMOOTH",
"159 614 OFFCURVE",
"139 607 OFFCURVE",
"115 604 CURVE"
);
}
);
width = 331;
}
);
},
{
glyphname = Q.ss01;
lastChange = "2019-03-20 23:36:59 +0000";
layers = (
{
layerId = UUID0;
paths = (
{
closed = 1;
nodes = (
"213 -51 OFFCURVE",
"232 -22 OFFCURVE",
"259 16 CURVE",
"287 -8 OFFCURVE",
"331 -49 OFFCURVE",
"350 -49 CURVE SMOOTH",
"373 -49 OFFCURVE",
"410 42 OFFCURVE",
"410 40 CURVE",
"410 48 OFFCURVE",
"404 54 OFFCURVE",
"394 62 CURVE",
"322 114 LINE",
"343 196 OFFCURVE",
"366 269 OFFCURVE",
"374 350 CURVE SMOOTH",
"380 417 OFFCURVE",
"380 484 OFFCURVE",
"380 552 CURVE SMOOTH",
"380 617 OFFCURVE",
"371 682 OFFCURVE",
"354 745 CURVE SMOOTH",
"337 806 OFFCURVE",
"297 846 OFFCURVE",
"243 874 CURVE SMOOTH",
"231 880 OFFCURVE",
"219 886 OFFCURVE",
"205 886 CURVE SMOOTH",
"103 886 OFFCURVE",
"47 751 OFFCURVE",
"35 656 CURVE SMOOTH",
"22 558 OFFCURVE",
"14 461 OFFCURVE",
"14 363 CURVE SMOOTH",
"14 229 OFFCURVE",
"17 -51 OFFCURVE",
"173 -51 CURVE SMOOTH"
);
},
{
closed = 1;
nodes = (
"132 80 OFFCURVE",
"123 146 OFFCURVE",
"119 185 CURVE SMOOTH",
"112 253 OFFCURVE",
"107 322 OFFCURVE",
"107 391 CURVE SMOOTH",
"107 487 OFFCURVE",
"117 609 OFFCURVE",
"172 687 CURVE SMOOTH",
"182 702 OFFCURVE",
"195 708 OFFCURVE",
"207 709 CURVE",
"262 709 OFFCURVE",
"280 591 OFFCURVE",
"280 524 CURVE SMOOTH",
"280 417 OFFCURVE",
"268 311 OFFCURVE",
"244 202 CURVE",
"222 219 OFFCURVE",
"202 238 OFFCURVE",
"191 238 CURVE SMOOTH",
"184 238 OFFCURVE",
"179 233 OFFCURVE",
"173 221 CURVE SMOOTH",
"164 203 OFFCURVE",
"146 182 OFFCURVE",
"146 168 CURVE SMOOTH",
"146 152 OFFCURVE",
"172 123 OFFCURVE",
"187 104 CURVE",
"166 70 LINE"
);
}
);
width = 429;
}
);
},
{
glyphname = R.ss01;
lastChange = "2019-03-20 23:36:59 +0000";
layers = (
{
layerId = UUID0;
paths = (
{
closed = 1;
nodes = (
"310 -18 OFFCURVE",
"378 -24 OFFCURVE",
"378 4 CURVE SMOOTH",
"378 14 OFFCURVE",
"375 20 OFFCURVE",
"371 31 CURVE",
"345 92 OFFCURVE",
"322 153 OFFCURVE",
"293 213 CURVE SMOOTH",
"246 311 OFFCURVE",
"195 410 OFFCURVE",
"147 510 CURVE",
"195 528 OFFCURVE",
"238 538 OFFCURVE",
"282 565 CURVE SMOOTH",
"327 593 OFFCURVE",
"351 638 OFFCURVE",
"351 683 CURVE SMOOTH",
"351 769 OFFCURVE",
"268 833 OFFCURVE",
"165 833 CURVE SMOOTH",
"116 833 OFFCURVE",
"73 821 OFFCURVE",
"24 810 CURVE",
"23 806 OFFCURVE",
"22 800 OFFCURVE",
"22 795 CURVE SMOOTH",
"25 552 OFFCURVE",
"38 311 OFFCURVE",
"47 70 CURVE",
"51 24 OFFCURVE",
"47 4 OFFCURVE",
"90 4 CURVE SMOOTH",
"109 4 OFFCURVE",
"136 2 OFFCURVE",
"138 22 CURVE",
"138 128 OFFCURVE",
"127 232 OFFCURVE",
"118 338 CURVE",
"118 342 OFFCURVE",
"118 346 OFFCURVE",
"117 352 CURVE",
"121 349 OFFCURVE",
"123 347 OFFCURVE",
"124 345 CURVE",
"164 239 OFFCURVE",
"202 131 OFFCURVE",
"239 22 CURVE SMOOTH",
"247 -2 OFFCURVE",
"252 -20 OFFCURVE",
"276 -20 CURVE"
);
},
{
closed = 1;
nodes = (
"101 648 OFFCURVE",
"97 703 OFFCURVE",
"92 760 CURVE",
"117 762 OFFCURVE",
"139 764 OFFCURVE",
"160 764 CURVE SMOOTH",
"185 764 OFFCURVE",
"207 756 OFFCURVE",
"222 735 CURVE SMOOTH",
"232 720 OFFCURVE",
"238 704 OFFCURVE",
"238 689 CURVE SMOOTH",
"238 631 OFFCURVE",
"166 601 OFFCURVE",
"106 592 CURVE"
);
}
);
width = 399;
}
);
},
{
glyphname = S.ss01;
lastChange = "2019-03-20 23:36:59 +0000";
layers = (
{
layerId = UUID0;
paths = (
{
closed = 1;
nodes = (
"314 13 OFFCURVE",
"354 56 OFFCURVE",
"354 136 CURVE SMOOTH",
"354 250 OFFCURVE",
"310 364 OFFCURVE",
"274 473 CURVE SMOOTH",
"262 507 OFFCURVE",
"257 544 OFFCURVE",
"257 580 CURVE SMOOTH",
"257 634 OFFCURVE",
"269 652 OFFCURVE",
"294 652 CURVE SMOOTH",
"382 652 OFFCURVE",
"413 471 OFFCURVE",
"453 471 CURVE SMOOTH",
"474 471 OFFCURVE",
"508 474 OFFCURVE",
"508 495 CURVE SMOOTH",
"508 499 OFFCURVE",
"507 503 OFFCURVE",
"505 508 CURVE",
"487 560 OFFCURVE",
"468 613 OFFCURVE",
"448 665 CURVE SMOOTH",
"422 730 OFFCURVE",
"369 766 OFFCURVE",
"310 766 CURVE SMOOTH",
"210 766 OFFCURVE",
"165 675 OFFCURVE",
"165 563 CURVE SMOOTH",
"165 470 OFFCURVE",
"206 372 OFFCURVE",
"237 281 CURVE SMOOTH",
"248 248 OFFCURVE",
"257 216 OFFCURVE",
"257 180 CURVE",
"254 157 OFFCURVE",
"256 117 OFFCURVE",
"236 117 CURVE SMOOTH",
"150 117 OFFCURVE",
"114 259 OFFCURVE",
"99 335 CURVE SMOOTH",
"96 348 OFFCURVE",
"93 354 OFFCURVE",
"87 354 CURVE SMOOTH",
"70 354 OFFCURVE",
"17 331 OFFCURVE",
"17 316 CURVE SMOOTH",
"17 313 OFFCURVE",
"17 308 OFFCURVE",
"19 303 CURVE",
"55 180 OFFCURVE",
"103 13 OFFCURVE",
"249 13 CURVE SMOOTH"
);
}
);
width = 522;
}
);
},
{
glyphname = T.ss01;
lastChange = "2019-03-20 23:36:59 +0000";
layers = (
{
layerId = UUID0;
paths = (
{
closed = 1;
nodes = (
"146 51 OFFCURVE",
"166 63 OFFCURVE",
"166 102 CURVE",
"193 604 LINE",
"193 611 OFFCURVE",
"195 619 OFFCURVE",
"197 630 CURVE",
"234 635 OFFCURVE",
"272 632 OFFCURVE",
"310 634 CURVE SMOOTH",
"334 635 OFFCURVE",
"332 646 OFFCURVE",
"332 682 CURVE SMOOTH",
"332 718 OFFCURVE",
"333 727 OFFCURVE",
"311 727 CURVE SMOOTH",
"303 727 OFFCURVE",
"295 728 OFFCURVE",
"287 728 CURVE SMOOTH",
"208 728 OFFCURVE",
"130 711 OFFCURVE",
"51 711 CURVE SMOOTH",
"29 711 LINE SMOOTH",
"5 711 OFFCURVE",
"3 663 OFFCURVE",
"3 631 CURVE SMOOTH",
"3 622 OFFCURVE",
"7 618 OFFCURVE",
"15 618 CURVE SMOOTH",
"49 618 OFFCURVE",
"85 627 OFFCURVE",
"123 631 CURVE",
"105 462 OFFCURVE",
"107 305 OFFCURVE",
"103 142 CURVE SMOOTH",
"102 119 OFFCURVE",
"100 95 OFFCURVE",
"100 72 CURVE SMOOTH",
"100 57 OFFCURVE",
"103 51 OFFCURVE",
"113 51 CURVE SMOOTH"
);
}
);
width = 356;
}
);
},
{
glyphname = U.ss01;
lastChange = "2019-03-20 23:36:59 +0000";
layers = (
{
layerId = UUID0;
paths = (
{
closed = 1;
nodes = (
"346 29 OFFCURVE",
"340 469 OFFCURVE",
"340 509 CURVE SMOOTH",
"340 595 OFFCURVE",
"338 682 OFFCURVE",
"331 766 CURVE",
"329 781 OFFCURVE",
"325 788 OFFCURVE",
"314 788 CURVE SMOOTH",
"300 788 OFFCURVE",
"280 780 OFFCURVE",
"264 776 CURVE SMOOTH",
"238 770 OFFCURVE",
"238 770 OFFCURVE",
"238 742 CURVE SMOOTH",
"236 648 OFFCURVE",
"238 554 OFFCURVE",
"233 460 CURVE SMOOTH",
"229 380 OFFCURVE",
"217 300 OFFCURVE",
"208 219 CURVE SMOOTH",
"205 193 OFFCURVE",
"196 155 OFFCURVE",
"167 155 CURVE SMOOTH",
"115 155 OFFCURVE",
"126 412 OFFCURVE",
"126 423 CURVE SMOOTH",
"126 495 OFFCURVE",
"127 567 OFFCURVE",
"127 640 CURVE SMOOTH",
"127 676 OFFCURVE",
"124 712 OFFCURVE",
"121 748 CURVE SMOOTH",
"119 766 OFFCURVE",
"113 773 OFFCURVE",
"95 773 CURVE SMOOTH",
"68 773 OFFCURVE",
"17 773 OFFCURVE",
"17 745 CURVE SMOOTH",
"17 662 LINE SMOOTH",
"17 546 OFFCURVE",
"14 459 OFFCURVE",
"14 440 CURVE SMOOTH",
"14 360 OFFCURVE",
"19 279 OFFCURVE",
"23 199 CURVE SMOOTH",
"27 120 OFFCURVE",
"63 65 OFFCURVE",
"138 38 CURVE",
"139 38 OFFCURVE",
"140 38 OFFCURVE",
"140 37 CURVE",
"152 32 OFFCURVE",
"165 29 OFFCURVE",
"177 29 CURVE SMOOTH"
);
}
);
width = 372;
}
);
},
{
glyphname = V.ss01;
lastChange = "2019-03-20 23:36:59 +0000";
layers = (
{
layerId = UUID0;
paths = (
{
closed = 1;
nodes = (
"148 23 OFFCURVE",
"179 27 OFFCURVE",
"207 28 CURVE SMOOTH",
"234 29 OFFCURVE",
"235 29 OFFCURVE",
"238 55 CURVE SMOOTH",
"266 293 OFFCURVE",
"292 532 OFFCURVE",
"318 771 CURVE",
"318 778 LINE SMOOTH",
"318 789 OFFCURVE",
"314 794 OFFCURVE",
"303 794 CURVE SMOOTH",
"301 794 OFFCURVE",
"298 793 OFFCURVE",
"295 793 CURVE",
"234 777 OFFCURVE",
"228 790 OFFCURVE",
"225 752 CURVE SMOOTH",
"212 604 OFFCURVE",
"191 463 OFFCURVE",
"175 317 CURVE",
"173 317 OFFCURVE",
"171 316 OFFCURVE",
"169 316 CURVE",
"151 469 OFFCURVE",
"125 620 OFFCURVE",
"103 767 CURVE SMOOTH",
"102 773 OFFCURVE",
"95 782 OFFCURVE",
"92 782 CURVE",
"69 780 OFFCURVE",
"16 778 OFFCURVE",
"16 761 CURVE SMOOTH",
"16 752 OFFCURVE",
"24 738 OFFCURVE",
"25 725 CURVE SMOOTH",
"27 705 OFFCURVE",
"25 684 OFFCURVE",
"28 664 CURVE SMOOTH",
"45 529 OFFCURVE",
"65 397 OFFCURVE",
"79 264 CURVE SMOOTH",
"86 193 OFFCURVE",
"91 122 OFFCURVE",
"98 51 CURVE SMOOTH",
"100 29 OFFCURVE",
"102 23 OFFCURVE",
"119 23 CURVE SMOOTH"
);
}
);
width = 347;
}
);
},
{
glyphname = W.ss01;
lastChange = "2019-03-20 23:36:59 +0000";
layers = (
{
layerId = UUID0;
paths = (
{
closed = 1;
nodes = (
"297 -10 OFFCURVE",
"318 -4 OFFCURVE",
"340 -3 CURVE SMOOTH",
"363 -2 OFFCURVE",
"367 1 OFFCURVE",
"369 25 CURVE SMOOTH",
"377 158 OFFCURVE",
"383 293 OFFCURVE",
"397 424 CURVE SMOOTH",
"410 549 OFFCURVE",
"424 672 OFFCURVE",
"435 796 CURVE",
"435 808 OFFCURVE",
"432 812 OFFCURVE",
"418 812 CURVE SMOOTH",
"380 812 OFFCURVE",
"351 811 OFFCURVE",
"348 781 CURVE SMOOTH",
"336 683 OFFCURVE",
"323 588 OFFCURVE",
"312 489 CURVE SMOOTH",
"310 473 OFFCURVE",
"308 458 OFFCURVE",
"298 439 CURVE",
"293 493 OFFCURVE",
"284 616 OFFCURVE",
"248 616 CURVE SMOOTH",
"217 616 OFFCURVE",
"167 622 OFFCURVE",
"162 593 CURVE SMOOTH",
"153 544 OFFCURVE",
"142 498 OFFCURVE",
"129 450 CURVE",
"127 558 OFFCURVE",
"127 666 OFFCURVE",
"127 773 CURVE",
"126 785 OFFCURVE",
"118 789 OFFCURVE",
"107 789 CURVE",
"80 786 OFFCURVE",
"17 783 OFFCURVE",
"17 765 CURVE SMOOTH",
"17 757 OFFCURVE",
"24 744 OFFCURVE",
"24 735 CURVE",
"28 632 OFFCURVE",
"33 528 OFFCURVE",
"33 425 CURVE SMOOTH",
"33 304 OFFCURVE",
"30 183 OFFCURVE",
"30 61 CURVE SMOOTH",
"30 31 OFFCURVE",
"25 -6 OFFCURVE",
"48 -6 CURVE SMOOTH",
"71 -6 OFFCURVE",
"94 0 OFFCURVE",
"117 2 CURVE",
"139 3 OFFCURVE",
"143 5 OFFCURVE",
"146 29 CURVE SMOOTH",
"163 163 OFFCURVE",
"181 299 OFFCURVE",
"203 432 CURVE",
"206 432 OFFCURVE",
"208 432 OFFCURVE",
"211 433 CURVE",
"212 429 OFFCURVE",
"213 427 OFFCURVE",
"213 424 CURVE",
"223 313 OFFCURVE",
"246 204 OFFCURVE",
"250 93 CURVE SMOOTH",
"251 59 OFFCURVE",
"255 -10 OFFCURVE",
"276 -10 CURVE SMOOTH"
);
}
);
width = 464;
}
);
},
{
glyphname = X.ss01;
lastChange = "2019-03-20 23:36:59 +0000";
layers = (
{
layerId = UUID0;
paths = (
{
closed = 1;
nodes = (
"110 -42 OFFCURVE",
"174 118 OFFCURVE",
"202 175 CURVE SMOOTH",
"210 191 OFFCURVE",
"218 207 OFFCURVE",
"227 228 CURVE",
"246 184 OFFCURVE",
"254 125 OFFCURVE",
"266 78 CURVE SMOOTH",
"277 34 OFFCURVE",
"294 -40 OFFCURVE",
"324 -40 CURVE SMOOTH",
"351 -40 OFFCURVE",
"404 -25 OFFCURVE",
"404 -7 CURVE SMOOTH",
"404 7 OFFCURVE",
"393 26 OFFCURVE",
"388 42 CURVE SMOOTH",
"356 149 OFFCURVE",
"327 254 OFFCURVE",
"300 363 CURVE",
"299 366 OFFCURVE",
"298 370 OFFCURVE",
"298 374 CURVE SMOOTH",
"298 379 OFFCURVE",
"299 383 OFFCURVE",
"301 388 CURVE SMOOTH",
"359 526 OFFCURVE",
"417 662 OFFCURVE",
"465 802 CURVE",
"467 807 OFFCURVE",
"468 812 OFFCURVE",
"468 816 CURVE SMOOTH",
"468 826 OFFCURVE",
"460 832 OFFCURVE",
"445 834 CURVE",
"428 837 OFFCURVE",
"406 839 OFFCURVE",
"394 839 CURVE SMOOTH",
"356 839 OFFCURVE",
"363 825 OFFCURVE",
"340 778 CURVE",
"313 715 OFFCURVE",
"286 653 OFFCURVE",
"258 591 CURVE",
"256 586 OFFCURVE",
"252 581 OFFCURVE",
"246 574 CURVE",
"228 633 OFFCURVE",
"185 832 OFFCURVE",
"163 832 CURVE SMOOTH",
"133 832 OFFCURVE",
"80 799 OFFCURVE",
"80 789 CURVE SMOOTH",
"80 784 OFFCURVE",
"81 778 OFFCURVE",
"84 769 CURVE",
"115 656 OFFCURVE",
"146 542 OFFCURVE",
"178 429 CURVE SMOOTH",
"179 425 OFFCURVE",
"180 421 OFFCURVE",
"180 417 CURVE SMOOTH",
"180 411 OFFCURVE",
"178 405 OFFCURVE",
"176 399 CURVE",
"112 270 OFFCURVE",
"62 134 OFFCURVE",
"14 1 CURVE SMOOTH",
"12 -5 OFFCURVE",
"10 -10 OFFCURVE",
"10 -13 CURVE SMOOTH",
"10 -28 OFFCURVE",
"78 -42 OFFCURVE",
"89 -42 CURVE SMOOTH"
);
}
);
width = 485;
}
);
},
{
glyphname = Y.ss01;
lastChange = "2019-03-20 23:36:59 +0000";
layers = (
{
layerId = UUID0;
paths = (
{
closed = 1;
nodes = (
"207 -36 OFFCURVE",
"221 -42 OFFCURVE",
"221 0 CURVE SMOOTH",
"221 67 OFFCURVE",
"220 134 OFFCURVE",
"220 200 CURVE SMOOTH",
"220 267 OFFCURVE",
"221 334 OFFCURVE",
"221 401 CURVE SMOOTH",
"221 435 OFFCURVE",
"241 487 OFFCURVE",
"253 525 CURVE SMOOTH",
"284 626 OFFCURVE",
"315 730 OFFCURVE",
"325 836 CURVE",
"325 842 LINE SMOOTH",
"325 854 OFFCURVE",
"320 858 OFFCURVE",
"308 858 CURVE SMOOTH",
"294 858 LINE SMOOTH",
"265 858 OFFCURVE",
"218 865 OFFCURVE",
"213 834 CURVE",
"208 809 OFFCURVE",
"182 649 OFFCURVE",
"175 649 CURVE",
"156 706 OFFCURVE",
"141 859 OFFCURVE",
"101 859 CURVE SMOOTH",
"75 859 OFFCURVE",
"23 866 OFFCURVE",
"23 842 CURVE SMOOTH",
"23 800 OFFCURVE",
"41 753 OFFCURVE",
"52 707 CURVE SMOOTH",
"71 626 OFFCURVE",
"90 546 OFFCURVE",
"110 464 CURVE SMOOTH",
"112 456 OFFCURVE",
"113 448 OFFCURVE",
"113 439 CURVE SMOOTH",
"113 310 OFFCURVE",
"114 181 OFFCURVE",
"114 52 CURVE SMOOTH",
"114 20 OFFCURVE",
"109 -36 OFFCURVE",
"140 -36 CURVE SMOOTH"
);
}
);
width = 349;
}
);
},
{
glyphname = Z.ss01;
lastChange = "2019-03-20 23:36:59 +0000";
layers = (
{
layerId = UUID0;
paths = (
{
closed = 1;
nodes = (
"157 30 OFFCURVE",
"254 31 OFFCURVE",
"350 31 CURVE SMOOTH",
"387 31 OFFCURVE",
"384 45 OFFCURVE",
"384 153 CURVE SMOOTH",
"384 166 OFFCURVE",
"378 170 OFFCURVE",
"367 170 CURVE",
"350 168 OFFCURVE",
"332 169 OFFCURVE",
"316 164 CURVE SMOOTH",
"259 147 OFFCURVE",
"200 160 OFFCURVE",
"139 145 CURVE",
"144 154 OFFCURVE",
"146 158 OFFCURVE",
"149 162 CURVE SMOOTH",
"195 226 OFFCURVE",
"239 290 OFFCURVE",
"275 360 CURVE SMOOTH",
"321 445 OFFCURVE",
"368 530 OFFCURVE",
"430 605 CURVE SMOOTH",
"434 610 OFFCURVE",
"436 616 OFFCURVE",
"436 622 CURVE",
"435 649 OFFCURVE",
"435 677 OFFCURVE",
"432 704 CURVE SMOOTH",
"429 726 OFFCURVE",
"425 728 OFFCURVE",
"403 728 CURVE SMOOTH",
"372 728 OFFCURVE",
"342 729 OFFCURVE",
"311 729 CURVE SMOOTH",
"253 729 OFFCURVE",
"196 726 OFFCURVE",
"139 724 CURVE SMOOTH",
"110 723 OFFCURVE",
"115 705 OFFCURVE",
"115 634 CURVE SMOOTH",
"115 615 OFFCURVE",
"119 611 OFFCURVE",
"138 611 CURVE SMOOTH",
"188 611 OFFCURVE",
"239 614 OFFCURVE",
"288 615 CURVE SMOOTH",
"294 615 OFFCURVE",
"299 613 OFFCURVE",
"307 611 CURVE",
"298 596 OFFCURVE",
"291 583 OFFCURVE",
"282 572 CURVE SMOOTH",
"185 446 OFFCURVE",
"123 302 OFFCURVE",
"25 177 CURVE SMOOTH",
"10 158 OFFCURVE",
"11 95 OFFCURVE",
"11 61 CURVE SMOOTH",
"11 37 OFFCURVE",
"28 30 OFFCURVE",
"63 30 CURVE SMOOTH"
);
}
);
width = 451;
}
);
},
{
glyphname = a;
lastChange = "2019-03-20 23:36:59 +0000";
layers = (
{
hints = (
{
place = "{41, 96}";
type = Stem;
}
);
layerId = UUID0;
paths = (
{
closed = 1;
nodes = (
"342 -116 OFFCURVE",
"361 -114 OFFCURVE",
"380 -112 CURVE SMOOTH",
"409 -109 OFFCURVE",
"412 -105 OFFCURVE",
"407 -76 CURVE",
"407 -79 LINE",
"401 -42 OFFCURVE",
"394 -5 OFFCURVE",
"390 32 CURVE SMOOTH",
"380 130 OFFCURVE",
"372 228 OFFCURVE",
"361 326 CURVE SMOOTH",
"354 391 OFFCURVE",
"343 455 OFFCURVE",
"333 519 CURVE SMOOTH",
"323 586 OFFCURVE",
"313 653 OFFCURVE",
"302 720 CURVE SMOOTH",
"297 752 OFFCURVE",
"288 758 OFFCURVE",
"255 755 CURVE SMOOTH",
"153 746 LINE SMOOTH",
"119 743 OFFCURVE",
"113 738 OFFCURVE",
"108 705 CURVE SMOOTH",
"102 663 OFFCURVE",
"97 621 OFFCURVE",
"93 579 CURVE SMOOTH",
"88 517 OFFCURVE",
"85 454 OFFCURVE",
"80 392 CURVE SMOOTH",
"56 95 LINE SMOOTH",
"51 38 OFFCURVE",
"47 -19 OFFCURVE",
"42 -76 CURVE SMOOTH",
"40 -101 OFFCURVE",
"44 -106 OFFCURVE",
"70 -105 CURVE",
"84 -105 OFFCURVE",
"99 -104 OFFCURVE",
"113 -105 CURVE SMOOTH",
"131 -106 OFFCURVE",
"135 -104 OFFCURVE",
"138 -87 CURVE SMOOTH",
"142 -63 OFFCURVE",
"146 -38 OFFCURVE",
"150 -13 CURVE SMOOTH",
"210 373 LINE SMOOTH",
"211 381 OFFCURVE",
"213 389 OFFCURVE",
"214 397 CURVE",
"245 403 LINE",
"247 391 OFFCURVE",
"249 382 OFFCURVE",
"250 373 CURVE SMOOTH",
"265 178 LINE SMOOTH",
"270 117 OFFCURVE",
"274 55 OFFCURVE",
"279 -6 CURVE SMOOTH",
"281 -33 OFFCURVE",
"284 -60 OFFCURVE",
"288 -87 CURVE SMOOTH",
"292 -114 OFFCURVE",
"295 -116 OFFCURVE",
"323 -116 CURVE SMOOTH"
);
},
{
closed = 1;
nodes = (
"200 489 OFFCURVE",
"192 490 OFFCURVE",
"187 492 CURVE",
"186 493 LINE",
"207 597 LINE",
"219 580 OFFCURVE",
"219 563 OFFCURVE",
"224 547 CURVE SMOOTH",
"229 531 OFFCURVE",
"233 516 OFFCURVE",
"237 500 CURVE",
"229 494 OFFCURVE",
"215 489 OFFCURVE",
"205 489 CURVE SMOOTH"
);
}
);
width = 448;
}
);
unicode = 0061;
},
{
glyphname = b;
lastChange = "2019-03-20 23:36:59 +0000";
layers = (
{
hints = (
{
place = "{44, 94}";
type = Stem;
},
{
place = "{46, 65}";
type = Stem;
},
{
place = "{48, 70}";
type = Stem;
},
{
place = "{212, 136}";
type = Stem;
}
);
layerId = UUID0;
paths = (
{
closed = 1;
nodes = (
"102 -122 OFFCURVE",
"118 -121 OFFCURVE",
"128 -120 CURVE SMOOTH",
"177 -115 OFFCURVE",
"221 -96 OFFCURVE",
"264 -75 CURVE SMOOTH",
"289 -63 OFFCURVE",
"327 -40 OFFCURVE",
"349 -24 CURVE SMOOTH",
"381 -2 OFFCURVE",
"400 30 OFFCURVE",
"411 67 CURVE SMOOTH",
"420 98 OFFCURVE",
"418 130 OFFCURVE",
"417 162 CURVE",
"414 163 LINE",
"413 207 OFFCURVE",
"406 251 OFFCURVE",
"387 291 CURVE SMOOTH",
"360 348 OFFCURVE",
"324 397 OFFCURVE",
"259 415 CURVE SMOOTH",
"240 420 OFFCURVE",
"221 424 OFFCURVE",
"198 429 CURVE",
"225 449 OFFCURVE",
"250 465 OFFCURVE",
"273 484 CURVE SMOOTH",
"290 498 OFFCURVE",
"315 523 OFFCURVE",
"329 540 CURVE SMOOTH",
"340 554 OFFCURVE",
"349 579 OFFCURVE",
"349 597 CURVE SMOOTH",
"349 602 OFFCURVE",
"348 610 OFFCURVE",
"347 615 CURVE SMOOTH",
"338 669 OFFCURVE",
"312 712 OFFCURVE",
"259 735 CURVE SMOOTH",
"250 739 OFFCURVE",
"241 743 OFFCURVE",
"232 746 CURVE SMOOTH",
"174 767 OFFCURVE",
"118 760 OFFCURVE",
"63 735 CURVE SMOOTH",
"47 728 OFFCURVE",
"40 717 OFFCURVE",
"43 699 CURVE SMOOTH",
"46 684 OFFCURVE",
"48 659 OFFCURVE",
"48 643 CURVE SMOOTH",
"49 544 OFFCURVE",
"50 445 OFFCURVE",
"50 346 CURVE SMOOTH",
"49 226 OFFCURVE",
"47 106 OFFCURVE",
"46 -14 CURVE SMOOTH",
"46 -34 OFFCURVE",
"48 -66 OFFCURVE",
"51 -86 CURVE",
"54 -114 OFFCURVE",
"64 -122 OFFCURVE",
"92 -122 CURVE SMOOTH"
);
},
{
closed = 1;
nodes = (
"137 302 LINE",
"173 313 OFFCURVE",
"206 304 OFFCURVE",
"239 297 CURVE SMOOTH",
"257 293 OFFCURVE",
"267 280 OFFCURVE",
"274 265 CURVE SMOOTH",
"296 219 OFFCURVE",
"301 170 OFFCURVE",
"285 123 CURVE",
"285 122 LINE",
"262 55 OFFCURVE",
"217 4 OFFCURVE",
"153 -29 CURVE",
"150 -30 OFFCURVE",
"145 -31 OFFCURVE",
"142 -31 CURVE"
);
},
{
closed = 1;
nodes = (
"121 484 LINE",
"114 686 LINE",
"129 686 OFFCURVE",
"143 688 OFFCURVE",
"156 686 CURVE",
"155 685 LINE",
"198 677 OFFCURVE",
"214 656 OFFCURVE",
"215 612 CURVE SMOOTH",
"215 578 OFFCURVE",
"205 548 OFFCURVE",
"179 525 CURVE SMOOTH",
"162 510 OFFCURVE",
"144 496 OFFCURVE",
"127 481 CURVE"
);
}
);
width = 455;
}
);
unicode = 0062;
},
{
glyphname = c;
lastChange = "2019-03-20 23:36:59 +0000";
layers = (
{
hints = (
{
place = "{260, 70}";
type = Stem;
},
{
place = "{284, 88}";
type = Stem;
}
);
layerId = UUID0;
paths = (
{
closed = 1;
nodes = (
"182 -35 OFFCURVE",
"270 -19 OFFCURVE",
"320 55 CURVE SMOOTH",
"364 120 OFFCURVE",
"372 194 OFFCURVE",
"369 270 CURVE",
"371 268 LINE",
"370 283 OFFCURVE",
"362 289 OFFCURVE",
"346 287 CURVE SMOOTH",
"332 285 OFFCURVE",
"318 280 OFFCURVE",
"303 279 CURVE SMOOTH",
"288 278 OFFCURVE",
"283 271 OFFCURVE",
"282 258 CURVE",
"281 250 OFFCURVE",
"281 242 OFFCURVE",
"280 234 CURVE SMOOTH",
"275 199 OFFCURVE",
"272 164 OFFCURVE",
"253 133 CURVE SMOOTH",
"233 99 OFFCURVE",
"191 94 OFFCURVE",
"166 126 CURVE SMOOTH",
"157 137 OFFCURVE",
"147 156 OFFCURVE",
"143 169 CURVE",
"138 190 OFFCURVE",
"133 224 OFFCURVE",
"132 245 CURVE",
"132 281 LINE SMOOTH",
"132 323 OFFCURVE",
"137 391 OFFCURVE",
"143 433 CURVE SMOOTH",
"149 475 OFFCURVE",
"160 515 OFFCURVE",
"182 552 CURVE SMOOTH",
"198 579 OFFCURVE",
"224 578 OFFCURVE",
"239 550 CURVE",
"246 538 OFFCURVE",
"255 517 OFFCURVE",
"259 503 CURVE SMOOTH",
"267 477 OFFCURVE",
"269 475 OFFCURVE",
"296 481 CURVE SMOOTH",
"301 482 OFFCURVE",
"306 484 OFFCURVE",
"311 485 CURVE",
"325 487 OFFCURVE",
"331 495 OFFCURVE",
"329 508 CURVE SMOOTH",
"324 540 OFFCURVE",
"319 573 OFFCURVE",
"301 601 CURVE SMOOTH",
"265 659 OFFCURVE",
"180 668 OFFCURVE",
"128 620 CURVE SMOOTH",
"111 605 OFFCURVE",
"91 576 OFFCURVE",
"83 555 CURVE SMOOTH",
"75 532 OFFCURVE",
"64 494 OFFCURVE",
"59 470 CURVE SMOOTH",
"44 402 OFFCURVE",
"42 333 OFFCURVE",
"38 263 CURVE",
"40 225 OFFCURVE",
"42 187 OFFCURVE",
"45 149 CURVE SMOOTH",
"47 119 OFFCURVE",
"62 75 OFFCURVE",
"78 50 CURVE SMOOTH",
"85 39 OFFCURVE",
"99 24 OFFCURVE",
"109 16 CURVE"
);
}
);
width = 411;
}
);
unicode = 0063;
},
{
glyphname = d;
lastChange = "2019-03-20 23:36:59 +0000";
layers = (
{
layerId = UUID0;
paths = (
{
closed = 1;
nodes = (
"87 -42 LINE SMOOTH",
"91 -42 OFFCURVE",
"97 -41 OFFCURVE",
"101 -40 CURVE",
"191 -23 OFFCURVE",
"272 15 OFFCURVE",
"345 69 CURVE SMOOTH",
"396 107 OFFCURVE",
"419 162 OFFCURVE",
"422 225 CURVE SMOOTH",
"425 275 OFFCURVE",
"410 323 OFFCURVE",
"398 371 CURVE SMOOTH",
"382 434 OFFCURVE",
"334 525 OFFCURVE",
"290 573 CURVE",
"290 572 LINE",
"259 607 OFFCURVE",
"198 646 OFFCURVE",
"154 660 CURVE SMOOTH",
"138 665 OFFCURVE",
"122 670 OFFCURVE",
"106 676 CURVE SMOOTH",
"80 685 OFFCURVE",
"57 682 OFFCURVE",
"40 661 CURVE",
"42 652 OFFCURVE",
"45 637 OFFCURVE",
"46 628 CURVE",
"47 603 OFFCURVE",
"47 578 OFFCURVE",
"48 553 CURVE SMOOTH",
"53 445 OFFCURVE",
"58 337 OFFCURVE",
"63 229 CURVE SMOOTH",
"72 40 LINE SMOOTH",
"73 19 OFFCURVE",
"78 -2 OFFCURVE",
"70 -23 CURVE SMOOTH",
"66 -33 OFFCURVE",
"73 -41 OFFCURVE",
"84 -42 CURVE"
);
},
{
closed = 1;
nodes = (
"151 252 OFFCURVE",
"155 408 OFFCURVE",
"123 565 CURVE",
"160 542 OFFCURVE",
"197 527 OFFCURVE",
"224 498 CURVE",
"246 476 OFFCURVE",
"271 434 OFFCURVE",
"280 404 CURVE",
"290 365 OFFCURVE",
"298 300 OFFCURVE",
"298 259 CURVE SMOOTH",
"299 194 OFFCURVE",
"267 150 OFFCURVE",
"215 118 CURVE",
"214 117 LINE",
"201 109 OFFCURVE",
"187 101 OFFCURVE",
"169 91 CURVE"
);
}
);
width = 462;
}
);
unicode = 0064;
},
{
glyphname = e;
lastChange = "2019-03-20 23:36:59 +0000";
layers = (
{
hints = (
{
place = "{40, 76}";
type = Stem;
},
{
place = "{55, 88}";
type = Stem;
},
{
horizontal = 1;
place = "{-67, 101}";
type = Stem;
},
{
horizontal = 1;
place = "{311, 104}";
type = Stem;
},
{
horizontal = 1;
place = "{589, 118}";
type = Stem;
}
);
layerId = UUID0;
paths = (
{
closed = 1;
nodes = (
"184 -77 OFFCURVE",
"241 -69 OFFCURVE",
"298 -68 CURVE SMOOTH",
"302 -68 OFFCURVE",
"309 -67 OFFCURVE",
"313 -66 CURVE SMOOTH",
"325 -63 OFFCURVE",
"330 -55 OFFCURVE",
"329 -43 CURVE SMOOTH",
"328 -23 OFFCURVE",
"328 -2 OFFCURVE",
"327 18 CURVE SMOOTH",
"326 36 OFFCURVE",
"324 39 OFFCURVE",
"306 38 CURVE SMOOTH",
"279 37 OFFCURVE",
"253 34 OFFCURVE",
"227 32 CURVE SMOOTH",
"201 30 OFFCURVE",
"173 27 OFFCURVE",
"143 31 CURVE",
"143 309 LINE",
"218 312 LINE SMOOTH",
"243 313 OFFCURVE",
"249 320 OFFCURVE",
"247 343 CURVE SMOOTH",
"244 388 LINE SMOOTH",
"243 405 OFFCURVE",
"238 410 OFFCURVE",
"222 411 CURVE SMOOTH",
"207 412 OFFCURVE",
"192 411 OFFCURVE",
"177 411 CURVE SMOOTH",
"132 411 LINE",
"118 574 LINE",
"174 578 LINE SMOOTH",
"203 580 OFFCURVE",
"232 583 OFFCURVE",
"261 585 CURVE SMOOTH",
"281 586 OFFCURVE",
"301 585 OFFCURVE",
"321 586 CURVE SMOOTH",
"341 587 OFFCURVE",
"345 593 OFFCURVE",
"343 612 CURVE SMOOTH",
"341 633 OFFCURVE",
"338 654 OFFCURVE",
"336 675 CURVE",
"332 681 LINE",
"330 703 OFFCURVE",
"326 707 OFFCURVE",
"303 707 CURVE SMOOTH",
"239 708 OFFCURVE",
"175 709 OFFCURVE",
"111 709 CURVE SMOOTH",
"89 709 OFFCURVE",
"67 704 OFFCURVE",
"40 701 CURVE",
"40 646 LINE SMOOTH",
"41 597 OFFCURVE",
"43 548 OFFCURVE",
"44 499 CURVE SMOOTH",
"48 364 OFFCURVE",
"51 229 OFFCURVE",
"55 94 CURVE SMOOTH",
"56 51 OFFCURVE",
"58 8 OFFCURVE",
"55 -35 CURVE SMOOTH",
"53 -59 OFFCURVE",
"60 -65 OFFCURVE",
"84 -67 CURVE SMOOTH",
"98 -68 OFFCURVE",
"113 -66 OFFCURVE",
"127 -68 CURVE SMOOTH"
);
}
);
width = 380;
}
);
unicode = 0065;
},
{
glyphname = f;
lastChange = "2019-03-20 23:36:59 +0000";
layers = (
{
hints = (
{
place = "{41, 95}";
type = Stem;
},
{
place = "{50, 102}";
type = Stem;
},
{
horizontal = 1;
place = "{634, 114}";
type = Stem;
},
{
horizontal = 1;
place = "{647, 103}";
type = Stem;
}
);
layerId = UUID0;
paths = (
{
closed = 1;
nodes = (
"83 -116 OFFCURVE",
"97 -115 OFFCURVE",
"105 -115 CURVE SMOOTH",
"120 -115 LINE",
"147 -116 OFFCURVE",
"150 -113 OFFCURVE",
"150 -87 CURVE SMOOTH",
"153 78 LINE SMOOTH",
"154 160 OFFCURVE",
"154 242 OFFCURVE",
"154 324 CURVE SMOOTH",
"154 342 OFFCURVE",
"151 360 OFFCURVE",
"149 378 CURVE",
"160 381 LINE",
"180 383 OFFCURVE",
"200 384 OFFCURVE",
"220 386 CURVE SMOOTH",
"242 388 OFFCURVE",
"248 395 OFFCURVE",
"248 417 CURVE SMOOTH",
"248 459 LINE SMOOTH",
"248 485 OFFCURVE",
"246 487 OFFCURVE",
"219 485 CURVE SMOOTH",
"192 483 OFFCURVE",
"164 480 OFFCURVE",
"135 477 CURVE",
"129 632 LINE",
"133 634 OFFCURVE",
"135 635 OFFCURVE",
"136 635 CURVE",
"198 630 OFFCURVE",
"259 638 OFFCURVE",
"320 647 CURVE SMOOTH",
"338 650 OFFCURVE",
"339 651 OFFCURVE",
"339 668 CURVE SMOOTH",
"339 731 LINE SMOOTH",
"339 747 OFFCURVE",
"336 751 OFFCURVE",
"320 752 CURVE",
"321 750 LINE",
"296 752 OFFCURVE",
"271 753 OFFCURVE",
"246 753 CURVE SMOOTH",
"208 752 OFFCURVE",
"170 750 OFFCURVE",
"132 748 CURVE SMOOTH",
"104 747 OFFCURVE",
"75 750 OFFCURVE",
"46 738 CURVE",
"42 713 LINE",
"41 682 OFFCURVE",
"39 651 OFFCURVE",
"41 620 CURVE SMOOTH",
"47 515 OFFCURVE",
"52 410 OFFCURVE",
"51 304 CURVE SMOOTH",
"50 206 OFFCURVE",
"51 108 OFFCURVE",
"51 10 CURVE SMOOTH",
"51 -25 OFFCURVE",
"52 -60 OFFCURVE",
"51 -95 CURVE SMOOTH",
"51 -118 OFFCURVE",
"53 -120 OFFCURVE",
"75 -117 CURVE SMOOTH"
);
}
);
width = 379;
}
);
unicode = 0066;
},
{
glyphname = g;
lastChange = "2019-03-20 23:36:59 +0000";
layers = (
{
hints = (
{
place = "{384, 90}";
type = Stem;
},
{
place = "{389, 119}";
type = Stem;
},
{
horizontal = 1;
place = "{160, 117}";
type = Stem;
}
);
layerId = UUID0;
paths = (
{
closed = 1;
nodes = (
"382 -173 OFFCURVE",
"408 -155 OFFCURVE",
"434 -138 CURVE SMOOTH",
"457 -123 OFFCURVE",
"471 -101 OFFCURVE",
"483 -77 CURVE SMOOTH",
"504 -35 OFFCURVE",
"510 10 OFFCURVE",
"511 56 CURVE SMOOTH",
"513 132 OFFCURVE",
"502 207 OFFCURVE",
"490 282 CURVE SMOOTH",
"487 306 OFFCURVE",
"482 309 OFFCURVE",
"457 311 CURVE",
"454 314 LINE",
"412 317 OFFCURVE",
"373 304 OFFCURVE",
"334 291 CURVE SMOOTH",
"312 283 OFFCURVE",
"290 277 OFFCURVE",
"266 277 CURVE SMOOTH",
"243 277 OFFCURVE",
"238 270 OFFCURVE",
"240 247 CURVE SMOOTH",
"242 226 OFFCURVE",
"245 205 OFFCURVE",
"247 184 CURVE SMOOTH",
"249 164 OFFCURVE",
"252 159 OFFCURVE",
"272 159 CURVE",
"291 160 OFFCURVE",
"321 163 OFFCURVE",
"339 166 CURVE",
"355 168 OFFCURVE",
"370 172 OFFCURVE",
"387 175 CURVE",
"388 171 OFFCURVE",
"389 165 OFFCURVE",
"389 161 CURVE",
"380 41 LINE SMOOTH",
"377 -1 OFFCURVE",
"355 -32 OFFCURVE",
"325 -60 CURVE SMOOTH",
"306 -78 OFFCURVE",
"286 -77 OFFCURVE",
"265 -68 CURVE",
"257 -64 OFFCURVE",
"245 -55 OFFCURVE",
"239 -48 CURVE",
"219 -28 OFFCURVE",
"212 -2 OFFCURVE",
"206 24 CURVE SMOOTH",
"185 111 OFFCURVE",
"161 197 OFFCURVE",
"152 287 CURVE SMOOTH",
"144 369 OFFCURVE",
"138 450 OFFCURVE",
"147 532 CURVE SMOOTH",
"151 566 OFFCURVE",
"154 600 OFFCURVE",
"169 631 CURVE SMOOTH",
"192 678 OFFCURVE",
"219 685 OFFCURVE",
"258 665 CURVE SMOOTH",
"283 652 OFFCURVE",
"316 621 OFFCURVE",
"331 596 CURVE SMOOTH",
"359 551 OFFCURVE",
"378 502 OFFCURVE",
"384 448 CURVE",
"384 444 OFFCURVE",
"388 440 OFFCURVE",
"390 436 CURVE",
"456 455 LINE SMOOTH",
"475 460 OFFCURVE",
"477 462 OFFCURVE",
"474 481 CURVE SMOOTH",
"468 515 OFFCURVE",
"449 568 OFFCURVE",
"432 599 CURVE SMOOTH",
"407 646 OFFCURVE",
"372 684 OFFCURVE",
"332 718 CURVE SMOOTH",
"312 735 OFFCURVE",
"274 752 OFFCURVE",
"248 756 CURVE SMOOTH",
"179 768 OFFCURVE",
"119 737 OFFCURVE",
"89 674 CURVE SMOOTH",
"70 635 OFFCURVE",
"60 593 OFFCURVE",
"53 550 CURVE SMOOTH",
"41 479 OFFCURVE",
"40 407 OFFCURVE",
"44 336 CURVE SMOOTH",
"47 281 OFFCURVE",
"55 227 OFFCURVE",
"61 173 CURVE SMOOTH",
"68 105 OFFCURVE",
"91 -4 OFFCURVE",
"112 -69 CURVE SMOOTH",
"118 -86 OFFCURVE",
"133 -111 OFFCURVE",
"146 -124 CURVE",
"162 -142 OFFCURVE",
"193 -164 OFFCURVE",
"215 -173 CURVE SMOOTH",
"260 -192 OFFCURVE",
"308 -199 OFFCURVE",
"354 -183 CURVE SMOOTH"
);
}
);
width = 548;
}
);
unicode = 0067;
},
{
glyphname = h;
lastChange = "2019-03-20 23:36:59 +0000";
layers = (
{
hints = (
{
place = "{50, 113}";
type = Stem;
},
{
place = "{60, 116}";
type = Stem;
},
{
place = "{190, 124}";
type = Stem;
},
{
place = "{211, 116}";
type = Stem;
},
{
place = "{222, 115}";
type = Stem;
}
);
layerId = UUID0;
paths = (
{
closed = 1;
nodes = (
"98 -95 OFFCURVE",
"126 -92 OFFCURVE",
"154 -88 CURVE",
"165 -87 OFFCURVE",
"170 -79 OFFCURVE",
"170 -68 CURVE SMOOTH",
"170 -61 OFFCURVE",
"171 -54 OFFCURVE",
"171 -47 CURVE",
"159 319 LINE",
"159 339 LINE",
"201 345 LINE",
"203 315 OFFCURVE",
"205 287 OFFCURVE",
"206 259 CURVE SMOOTH",
"210 149 OFFCURVE",
"213 39 OFFCURVE",
"217 -71 CURVE SMOOTH",
"218 -92 OFFCURVE",
"222 -96 OFFCURVE",
"244 -96 CURVE SMOOTH",
"259 -96 OFFCURVE",
"274 -93 OFFCURVE",
"289 -92 CURVE SMOOTH",
"332 -89 OFFCURVE",
"334 -89 OFFCURVE",
"332 -39 CURVE SMOOTH",
"329 65 OFFCURVE",
"326 170 OFFCURVE",
"322 275 CURVE",
"325 272 LINE",
"324 292 OFFCURVE",
"324 312 OFFCURVE",
"323 332 CURVE SMOOTH",
"320 416 OFFCURVE",
"316 500 OFFCURVE",
"312 584 CURVE SMOOTH",
"310 626 OFFCURVE",
"308 668 OFFCURVE",
"305 710 CURVE SMOOTH",
"303 733 OFFCURVE",
"296 739 OFFCURVE",
"273 739 CURVE SMOOTH",
"252 739 OFFCURVE",
"231 739 OFFCURVE",
"210 738 CURVE SMOOTH",
"183 736 OFFCURVE",
"175 727 OFFCURVE",
"177 700 CURVE SMOOTH",
"178 678 OFFCURVE",
"180 656 OFFCURVE",
"181 634 CURVE SMOOTH",
"183 586 OFFCURVE",
"184 538 OFFCURVE",
"185 490 CURVE SMOOTH",
"185 455 LINE",
"142 458 LINE",
"141 488 OFFCURVE",
"140 514 OFFCURVE",
"138 541 CURVE SMOOTH",
"134 596 OFFCURVE",
"130 651 OFFCURVE",
"125 706 CURVE SMOOTH",
"123 728 OFFCURVE",
"114 734 OFFCURVE",
"93 730 CURVE",
"52 724 LINE SMOOTH",
"41 722 OFFCURVE",
"35 716 OFFCURVE",
"35 704 CURVE SMOOTH",
"35 678 OFFCURVE",
"34 652 OFFCURVE",
"35 626 CURVE SMOOTH",
"38 522 OFFCURVE",
"42 419 OFFCURVE",
"45 315 CURVE SMOOTH",
"48 195 OFFCURVE",
"50 75 OFFCURVE",
"53 -45 CURVE SMOOTH",
"53 -57 OFFCURVE",
"54 -69 OFFCURVE",
"55 -81 CURVE SMOOTH",
"56 -90 OFFCURVE",
"60 -98 OFFCURVE",
"70 -97 CURVE SMOOTH"
);
}
);
width = 375;
}
);
unicode = 0068;
},
{
glyphname = i;
lastChange = "2019-03-20 23:36:59 +0000";
layers = (
{
hints = (
{
place = "{58, 133}";
type = Stem;
},
{
place = "{67, 135}";
type = Stem;
}
);
layerId = UUID0;
paths = (
{
closed = 1;
nodes = (
"126 -75 OFFCURVE",
"155 -73 OFFCURVE",
"184 -72 CURVE",
"197 -71 OFFCURVE",
"204 -65 OFFCURVE",
"205 -53 CURVE SMOOTH",
"206 -38 OFFCURVE",
"206 -23 OFFCURVE",
"205 -8 CURVE SMOOTH",
"202 81 OFFCURVE",
"199 170 OFFCURVE",
"195 270 CURVE",
"192 271 LINE",
"192 316 OFFCURVE",
"190 373 OFFCURVE",
"192 429 CURVE SMOOTH",
"196 517 OFFCURVE",
"185 604 OFFCURVE",
"180 691 CURVE SMOOTH",
"179 710 OFFCURVE",
"171 716 OFFCURVE",
"154 713 CURVE SMOOTH",
"79 701 LINE SMOOTH",
"72 700 OFFCURVE",
"61 698 OFFCURVE",
"54 696 CURVE",
"42 691 OFFCURVE",
"38 681 OFFCURVE",
"45 671 CURVE SMOOTH",
"52 661 OFFCURVE",
"51 652 OFFCURVE",
"51 642 CURVE",
"50 628 OFFCURVE",
"50 614 OFFCURVE",
"51 600 CURVE SMOOTH",
"54 537 OFFCURVE",
"59 474 OFFCURVE",
"61 411 CURVE SMOOTH",
"65 257 OFFCURVE",
"67 103 OFFCURVE",
"70 -51 CURVE SMOOTH",
"70 -74 OFFCURVE",
"75 -78 OFFCURVE",
"97 -77 CURVE SMOOTH"
);
}
);
width = 242;
}
);
unicode = 0069;
},
{
glyphname = j;
lastChange = "2019-03-20 23:36:59 +0000";
layers = (
{
hints = (
{
place = "{40, 92}";
type = Stem;
},
{
place = "{226, 88}";
type = Stem;
},
{
place = "{233, 88}";
type = Stem;
}
);
layerId = UUID0;
paths = (
{
closed = 1;
nodes = (
"188 -80 OFFCURVE",
"213 -79 OFFCURVE",
"237 -62 CURVE SMOOTH",
"256 -48 OFFCURVE",
"273 -32 OFFCURVE",
"281 -10 CURVE SMOOTH",
"291 17 OFFCURVE",
"303 45 OFFCURVE",
"307 73 CURVE SMOOTH",
"315 132 OFFCURVE",
"320 192 OFFCURVE",
"322 252 CURVE SMOOTH",
"324 315 OFFCURVE",
"322 378 OFFCURVE",
"322 441 CURVE",
"315 444 LINE",
"315 670 LINE SMOOTH",
"315 676 OFFCURVE",
"315 682 OFFCURVE",
"314 688 CURVE",
"312 708 OFFCURVE",
"305 715 OFFCURVE",
"286 712 CURVE SMOOTH",
"269 709 OFFCURVE",
"241 702 OFFCURVE",
"224 696 CURVE SMOOTH",
"216 693 OFFCURVE",
"213 686 OFFCURVE",
"214 677 CURVE SMOOTH",
"217 640 OFFCURVE",
"221 603 OFFCURVE",
"223 566 CURVE SMOOTH",
"225 523 OFFCURVE",
"223 480 OFFCURVE",
"226 437 CURVE SMOOTH",
"232 345 OFFCURVE",
"235 253 OFFCURVE",
"233 161 CURVE SMOOTH",
"233 146 OFFCURVE",
"233 130 OFFCURVE",
"228 116 CURVE",
"222 101 OFFCURVE",
"209 78 OFFCURVE",
"199 65 CURVE SMOOTH",
"189 52 OFFCURVE",
"180 55 OFFCURVE",
"171 69 CURVE SMOOTH",
"168 74 OFFCURVE",
"164 82 OFFCURVE",
"162 87 CURVE",
"156 107 OFFCURVE",
"148 140 OFFCURVE",
"144 161 CURVE SMOOTH",
"138 195 OFFCURVE",
"135 229 OFFCURVE",
"132 263 CURVE SMOOTH",
"130 288 OFFCURVE",
"124 292 OFFCURVE",
"99 284 CURVE SMOOTH",
"90 281 OFFCURVE",
"75 278 OFFCURVE",
"66 277 CURVE SMOOTH",
"43 275 OFFCURVE",
"39 272 OFFCURVE",
"39 249 CURVE SMOOTH",
"38 176 OFFCURVE",
"46 104 OFFCURVE",
"71 36 CURVE SMOOTH",
"84 -3 OFFCURVE",
"125 -49 OFFCURVE",
"162 -67 CURVE SMOOTH"
);
}
);
width = 363;
}
);
unicode = 006A;
},
{
glyphname = k;
lastChange = "2019-03-20 23:36:59 +0000";
layers = (
{
hints = (
{
place = "{40, 127}";
type = Stem;
},
{
place = "{49, 119}";
type = Stem;
},
{
place = "{63, 115}";
type = Stem;
},
{
place = "{270, 112}";
type = Stem;
}
);
layerId = UUID0;
paths = (
{
closed = 1;
nodes = (
"163 -199 LINE SMOOTH",
"172 -199 OFFCURVE",
"179 -192 OFFCURVE",
"179 -183 CURVE SMOOTH",
"179 -178 OFFCURVE",
"179 -170 OFFCURVE",
"179 -165 CURVE SMOOTH",
"179 -147 LINE",
"168 -56 OFFCURVE",
"172 36 OFFCURVE",
"173 128 CURVE SMOOTH",
"173 154 OFFCURVE",
"173 181 OFFCURVE",
"181 210 CURVE",
"184 206 OFFCURVE",
"188 200 OFFCURVE",
"190 196 CURVE",
"215 126 OFFCURVE",
"241 56 OFFCURVE",
"265 -15 CURVE SMOOTH",
"281 -64 OFFCURVE",
"294 -114 OFFCURVE",
"309 -164 CURVE SMOOTH",
"315 -184 OFFCURVE",
"320 -186 OFFCURVE",
"342 -182 CURVE",
"355 -179 OFFCURVE",
"368 -178 OFFCURVE",
"381 -176 CURVE",
"398 -174 OFFCURVE",
"415 -173 OFFCURVE",
"431 -170 CURVE SMOOTH",
"449 -167 OFFCURVE",
"455 -157 OFFCURVE",
"450 -140 CURVE",
"449 -134 OFFCURVE",
"446 -129 OFFCURVE",
"444 -123 CURVE",
"443 -125 LINE",
"424 -74 OFFCURVE",
"403 -23 OFFCURVE",
"385 28 CURVE SMOOTH",
"348 133 OFFCURVE",
"310 237 OFFCURVE",
"250 331 CURVE SMOOTH",
"238 350 OFFCURVE",
"239 366 OFFCURVE",
"247 387 CURVE SMOOTH",
"280 471 OFFCURVE",
"311 555 OFFCURVE",
"342 639 CURVE SMOOTH",
"357 678 OFFCURVE",
"368 718 OFFCURVE",
"383 757 CURVE SMOOTH",
"392 781 OFFCURVE",
"390 787 OFFCURVE",
"363 791 CURVE SMOOTH",
"341 794 OFFCURVE",
"319 796 OFFCURVE",
"297 799 CURVE",
"280 802 OFFCURVE",
"275 800 OFFCURVE",
"270 783 CURVE SMOOTH",
"266 770 OFFCURVE",
"264 756 OFFCURVE",
"260 743 CURVE SMOOTH",
"179 503 LINE SMOOTH",
"176 495 OFFCURVE",
"172 487 OFFCURVE",
"169 479 CURVE",
"168 488 OFFCURVE",
"167 502 OFFCURVE",
"167 511 CURVE SMOOTH",
"167 521 OFFCURVE",
"168 538 OFFCURVE",
"169 548 CURVE SMOOTH",
"177 624 OFFCURVE",
"167 700 OFFCURVE",
"166 776 CURVE",
"166 794 OFFCURVE",
"159 801 OFFCURVE",
"139 799 CURVE SMOOTH",
"110 797 OFFCURVE",
"81 791 OFFCURVE",
"52 786 CURVE SMOOTH",
"41 784 OFFCURVE",
"37 776 OFFCURVE",
"38 764 CURVE",
"47 524 LINE SMOOTH",
"50 457 OFFCURVE",
"54 390 OFFCURVE",
"57 323 CURVE SMOOTH",
"58 295 OFFCURVE",
"57 267 OFFCURVE",
"57 239 CURVE SMOOTH",
"63 -175 LINE SMOOTH",
"63 -191 OFFCURVE",
"67 -197 OFFCURVE",
"82 -198 CURVE SMOOTH",
"108 -199 OFFCURVE",
"134 -199 OFFCURVE",
"160 -199 CURVE SMOOTH"
);
}
);
width = 491;
}
);
unicode = 006B;
},
{
glyphname = l;
lastChange = "2019-03-20 23:36:59 +0000";
layers = (
{
hints = (
{
place = "{41, 100}";
type = Stem;
},
{
place = "{42, 92}";
type = Stem;
},
{
place = "{48, 106}";
type = Stem;
},
{
horizontal = 1;
place = "{-153, 130}";
type = Stem;
}
);
layerId = UUID0;
paths = (
{
closed = 1;
nodes = (
"107 -164 OFFCURVE",
"124 -159 OFFCURVE",
"141 -159 CURVE SMOOTH",
"203 -158 OFFCURVE",
"265 -157 OFFCURVE",
"327 -157 CURVE SMOOTH",
"344 -157 OFFCURVE",
"361 -161 OFFCURVE",
"378 -162 CURVE SMOOTH",
"404 -164 OFFCURVE",
"408 -159 OFFCURVE",
"406 -133 CURVE SMOOTH",
"404 -107 OFFCURVE",
"402 -81 OFFCURVE",
"401 -55 CURVE",
"399 -53 LINE",
"397 -27 OFFCURVE",
"392 -22 OFFCURVE",
"365 -23 CURVE SMOOTH",
"324 -25 OFFCURVE",
"283 -27 OFFCURVE",
"242 -29 CURVE SMOOTH",
"154 -35 LINE",
"154 -5 LINE SMOOTH",
"154 44 OFFCURVE",
"156 93 OFFCURVE",
"154 142 CURVE SMOOTH",
"151 227 OFFCURVE",
"144 311 OFFCURVE",
"141 396 CURVE SMOOTH",
"138 495 OFFCURVE",
"138 594 OFFCURVE",
"136 693 CURVE",
"136 717 OFFCURVE",
"135 741 OFFCURVE",
"134 765 CURVE",
"134 777 OFFCURVE",
"130 786 OFFCURVE",
"116 788 CURVE SMOOTH",
"91 791 OFFCURVE",
"69 780 OFFCURVE",
"48 769 CURVE SMOOTH",
"33 761 OFFCURVE",
"48 743 OFFCURVE",
"44 730 CURVE",
"44 730 OFFCURVE",
"44 729 OFFCURVE",
"44 729 CURVE",
"44 728 LINE SMOOTH",
"43 638 OFFCURVE",
"41 548 OFFCURVE",
"42 458 CURVE SMOOTH",
"44 263 OFFCURVE",
"47 68 OFFCURVE",
"50 -127 CURVE SMOOTH",
"50 -159 OFFCURVE",
"57 -166 OFFCURVE",
"90 -165 CURVE SMOOTH"
);
}
);
width = 444;
}
);
unicode = 006C;
},
{
glyphname = m;
lastChange = "2019-03-20 23:36:59 +0000";
layers = (
{
hints = (
{
place = "{40, 72}";
type = Stem;
},
{
place = "{108, 106}";
type = Stem;
},
{
place = "{314, 92}";
type = Stem;
},
{
place = "{323, 88}";
type = Stem;
},
{
place = "{324, 78}";
type = Stem;
}
);
layerId = UUID0;
paths = (
{
closed = 1;
nodes = (
"405 -129 OFFCURVE",
"410 -125 OFFCURVE",
"411 -118 CURVE",
"411 -115 OFFCURVE",
"411 -111 OFFCURVE",
"411 -108 CURVE SMOOTH",
"411 -104 LINE",
"409 -53 OFFCURVE",
"407 -1 OFFCURVE",
"406 51 CURVE",
"406 45 LINE",
"404 145 OFFCURVE",
"402 245 OFFCURVE",
"402 345 CURVE SMOOTH",
"402 399 OFFCURVE",
"408 453 OFFCURVE",
"409 507 CURVE SMOOTH",
"410 568 OFFCURVE",
"409 629 OFFCURVE",
"409 690 CURVE SMOOTH",
"409 715 OFFCURVE",
"408 740 OFFCURVE",
"406 765 CURVE SMOOTH",
"405 783 OFFCURVE",
"399 786 OFFCURVE",
"382 779 CURVE SMOOTH",
"372 775 OFFCURVE",
"355 770 OFFCURVE",
"344 768 CURVE SMOOTH",
"319 763 OFFCURVE",
"318 764 OFFCURVE",
"314 739 CURVE SMOOTH",
"306 692 OFFCURVE",
"299 645 OFFCURVE",
"292 598 CURVE SMOOTH",
"253 343 LINE",
"251 333 OFFCURVE",
"248 324 OFFCURVE",
"246 314 CURVE",
"241 315 LINE",
"240 323 OFFCURVE",
"239 331 OFFCURVE",
"239 339 CURVE",
"234 426 OFFCURVE",
"230 513 OFFCURVE",
"225 600 CURVE SMOOTH",
"222 652 OFFCURVE",
"218 704 OFFCURVE",
"214 756 CURVE SMOOTH",
"213 774 OFFCURVE",
"209 777 OFFCURVE",
"191 775 CURVE SMOOTH",
"178 774 OFFCURVE",
"165 772 OFFCURVE",
"152 772 CURVE",
"142 773 OFFCURVE",
"126 775 OFFCURVE",
"116 777 CURVE",
"109 771 OFFCURVE",
"108 759 OFFCURVE",
"108 746 CURVE SMOOTH",
"107 712 OFFCURVE",
"108 678 OFFCURVE",
"105 644 CURVE SMOOTH",
"99 564 OFFCURVE",
"92 484 OFFCURVE",
"84 404 CURVE SMOOTH",
"79 356 OFFCURVE",
"72 308 OFFCURVE",
"67 260 CURVE SMOOTH",
"43 -7 LINE SMOOTH",
"41 -29 OFFCURVE",
"39 -51 OFFCURVE",
"38 -73 CURVE SMOOTH",
"37 -92 OFFCURVE",
"40 -96 OFFCURVE",
"59 -100 CURVE",
"66 -101 OFFCURVE",
"77 -102 OFFCURVE",
"84 -102 CURVE SMOOTH",
"88 -102 LINE SMOOTH",
"104 -102 OFFCURVE",
"107 -100 OFFCURVE",
"110 -84 CURVE SMOOTH",
"118 -35 OFFCURVE",
"126 14 OFFCURVE",
"132 64 CURVE SMOOTH",
"142 140 OFFCURVE",
"150 216 OFFCURVE",
"159 292 CURVE",
"163 303 LINE",
"165 296 OFFCURVE",
"167 285 OFFCURVE",
"167 278 CURVE",
"171 240 OFFCURVE",
"175 202 OFFCURVE",
"180 164 CURVE SMOOTH",
"183 143 OFFCURVE",
"186 140 OFFCURVE",
"208 138 CURVE SMOOTH",
"224 137 OFFCURVE",
"240 137 OFFCURVE",
"256 137 CURVE SMOOTH",
"272 137 OFFCURVE",
"275 141 OFFCURVE",
"277 156 CURVE",
"278 167 OFFCURVE",
"280 184 OFFCURVE",
"282 195 CURVE SMOOTH",
"289 228 OFFCURVE",
"297 261 OFFCURVE",
"305 294 CURVE SMOOTH",
"309 311 OFFCURVE",
"314 328 OFFCURVE",
"318 345 CURVE",
"322 344 LINE",
"323 340 OFFCURVE",
"323 333 OFFCURVE",
"323 329 CURVE SMOOTH",
"322 298 OFFCURVE",
"320 268 OFFCURVE",
"320 238 CURVE SMOOTH",
"320 162 OFFCURVE",
"321 86 OFFCURVE",
"322 10 CURVE SMOOTH",
"322 -28 OFFCURVE",
"323 -66 OFFCURVE",
"324 -104 CURVE SMOOTH",
"324 -120 OFFCURVE",
"328 -124 OFFCURVE",
"343 -122 CURVE SMOOTH",
"362 -119 OFFCURVE",
"380 -117 OFFCURVE",
"398 -126 CURVE"
);
}
);
width = 450;
}
);
unicode = 006D;
},
{
glyphname = n;
lastChange = "2019-03-20 23:36:59 +0000";
layers = (
{
hints = (
{
place = "{43, 91}";
type = Stem;
},
{
place = "{44, 104}";
type = Stem;
},
{
place = "{349, 89}";
type = Stem;
}
);
layerId = UUID0;
paths = (
{
closed = 1;
nodes = (
"343 -109 OFFCURVE",
"376 -111 OFFCURVE",
"408 -109 CURVE",
"414 -109 OFFCURVE",
"423 -108 OFFCURVE",
"429 -107 CURVE SMOOTH",
"447 -104 OFFCURVE",
"449 -100 OFFCURVE",
"447 -81 CURVE SMOOTH",
"444 -39 OFFCURVE",
"440 3 OFFCURVE",
"439 45 CURVE",
"439 40 LINE",
"438 89 OFFCURVE",
"440 138 OFFCURVE",
"439 187 CURVE SMOOTH",
"437 321 OFFCURVE",
"434 455 OFFCURVE",
"432 588 CURVE SMOOTH",
"431 632 OFFCURVE",
"431 676 OFFCURVE",
"428 720 CURVE SMOOTH",
"425 765 OFFCURVE",
"417 769 OFFCURVE",
"373 756 CURVE SMOOTH",
"350 749 OFFCURVE",
"343 740 OFFCURVE",
"342 716 CURVE SMOOTH",
"340 626 LINE SMOOTH",
"338 545 OFFCURVE",
"333 464 OFFCURVE",
"334 383 CURVE SMOOTH",
"336 274 OFFCURVE",
"342 165 OFFCURVE",
"346 56 CURVE",
"346 43 LINE",
"340 50 OFFCURVE",
"334 62 OFFCURVE",
"332 71 CURVE",
"306 162 OFFCURVE",
"280 253 OFFCURVE",
"254 343 CURVE SMOOTH",
"164 655 LINE SMOOTH",
"157 679 OFFCURVE",
"148 703 OFFCURVE",
"142 727 CURVE SMOOTH",
"137 746 OFFCURVE",
"132 752 OFFCURVE",
"112 749 CURVE SMOOTH",
"92 746 OFFCURVE",
"72 741 OFFCURVE",
"49 736 CURVE",
"47 718 OFFCURVE",
"44 701 OFFCURVE",
"44 684 CURVE SMOOTH",
"43 589 OFFCURVE",
"42 494 OFFCURVE",
"41 399 CURVE SMOOTH",
"38 15 LINE SMOOTH",
"38 -21 OFFCURVE",
"38 -57 OFFCURVE",
"39 -93 CURVE",
"40 -100 OFFCURVE",
"42 -111 OFFCURVE",
"44 -117 CURVE",
"73 -115 OFFCURVE",
"98 -113 OFFCURVE",
"123 -112 CURVE SMOOTH",
"144 -111 OFFCURVE",
"150 -105 OFFCURVE",
"147 -85 CURVE SMOOTH",
"136 -2 OFFCURVE",
"134 81 OFFCURVE",
"134 164 CURVE SMOOTH",
"134 212 OFFCURVE",
"133 260 OFFCURVE",
"133 308 CURVE SMOOTH",
"133 371 LINE",
"138 372 LINE",
"151 334 OFFCURVE",
"165 297 OFFCURVE",
"176 259 CURVE SMOOTH",
"212 139 OFFCURVE",
"247 19 OFFCURVE",
"282 -101 CURVE SMOOTH",
"287 -118 OFFCURVE",
"294 -123 OFFCURVE",
"311 -118 CURVE SMOOTH"
);
}
);
width = 487;
}
);
unicode = 006E;
},
{
glyphname = o;
lastChange = "2019-03-20 23:36:59 +0000";
layers = (
{
hints = (
{
place = "{47, 100}";
type = Stem;
},
{
place = "{210, 124}";
type = Stem;
}
);
layerId = UUID0;
paths = (
{
closed = 1;
nodes = (
"179 -91 OFFCURVE",
"202 -84 OFFCURVE",
"215 -76 CURVE",
"245 -55 OFFCURVE",
"269 -29 OFFCURVE",
"280 6 CURVE SMOOTH",
"291 41 OFFCURVE",
"303 77 OFFCURVE",
"307 113 CURVE SMOOTH",
"317 209 OFFCURVE",
"325 305 OFFCURVE",
"331 402 CURVE SMOOTH",
"334 457 OFFCURVE",
"330 512 OFFCURVE",
"329 567 CURVE",
"329 574 OFFCURVE",
"329 583 OFFCURVE",
"325 587 CURVE",
"328 583 LINE",
"313 598 OFFCURVE",
"312 617 OFFCURVE",
"307 635 CURVE SMOOTH",
"300 659 OFFCURVE",
"280 692 OFFCURVE",
"262 709 CURVE SMOOTH",
"254 717 OFFCURVE",
"239 726 OFFCURVE",
"228 729 CURVE",
"132 746 OFFCURVE",
"65 699 OFFCURVE",
"52 609 CURVE SMOOTH",
"44 557 OFFCURVE",
"42 504 OFFCURVE",
"40 451 CURVE SMOOTH",
"38 411 OFFCURVE",
"39 371 OFFCURVE",
"39 331 CURVE",
"44 331 LINE",
"44 280 OFFCURVE",
"42 228 OFFCURVE",
"45 177 CURVE SMOOTH",
"48 126 OFFCURVE",
"55 75 OFFCURVE",
"60 24 CURVE SMOOTH",
"62 -1 OFFCURVE",
"77 -38 OFFCURVE",
"93 -58 CURVE SMOOTH",
"108 -76 OFFCURVE",
"140 -91 OFFCURVE",
"164 -91 CURVE SMOOTH"
);
},
{
closed = 1;
nodes = (
"155 52 OFFCURVE",
"152 61 OFFCURVE",
"151 71 CURVE SMOOTH",
"148 98 OFFCURVE",
"144 125 OFFCURVE",
"143 152 CURVE SMOOTH",
"141 244 OFFCURVE",
"140 336 OFFCURVE",
"140 428 CURVE SMOOTH",
"140 469 OFFCURVE",
"144 510 OFFCURVE",
"147 551 CURVE",
"148 559 OFFCURVE",
"151 571 OFFCURVE",
"154 578 CURVE",
"159 594 OFFCURVE",
"171 601 OFFCURVE",
"185 598 CURVE SMOOTH",
"199 595 OFFCURVE",
"207 586 OFFCURVE",
"207 568 CURVE SMOOTH",
"207 509 OFFCURVE",
"209 450 OFFCURVE",
"207 391 CURVE SMOOTH",
"204 314 OFFCURVE",
"199 237 OFFCURVE",
"192 160 CURVE SMOOTH",
"189 127 OFFCURVE",
"179 95 OFFCURVE",
"172 62 CURVE",
"173 63 LINE",
"172 59 OFFCURVE",
"170 53 OFFCURVE",
"168 49 CURVE"
);
}
);
width = 374;
}
);
unicode = 006F;
},
{
glyphname = p;
lastChange = "2019-03-20 23:36:59 +0000";
layers = (
{
hints = (
{
place = "{43, 92}";
type = Stem;
},
{
place = "{45, 109}";
type = Stem;
},
{
place = "{230, 120}";
type = Stem;
}
);
layerId = UUID0;
paths = (
{
closed = 1;
nodes = (
"97 -103 LINE SMOOTH",
"128 -104 OFFCURVE",
"133 -100 OFFCURVE",
"134 -68 CURVE SMOOTH",
"136 -28 OFFCURVE",
"135 12 OFFCURVE",
"137 52 CURVE SMOOTH",
"141 113 OFFCURVE",
"148 174 OFFCURVE",
"151 235 CURVE SMOOTH",
"153 283 OFFCURVE",
"152 331 OFFCURVE",
"153 379 CURVE SMOOTH",
"153 388 OFFCURVE",
"154 397 OFFCURVE",
"154 408 CURVE",
"181 408 LINE",
"226 405 OFFCURVE",
"265 421 OFFCURVE",
"300 448 CURVE SMOOTH",
"324 466 OFFCURVE",
"345 487 OFFCURVE",
"349 518 CURVE SMOOTH",
"350 525 OFFCURVE",
"351 536 OFFCURVE",
"351 543 CURVE SMOOTH",
"351 565 OFFCURVE",
"343 599 OFFCURVE",
"333 619 CURVE SMOOTH",
"282 716 OFFCURVE",
"182 755 OFFCURVE",
"79 736 CURVE",
"78 735 LINE",
"53 732 LINE",
"43 715 OFFCURVE",
"42 709 OFFCURVE",
"43 672 CURVE SMOOTH",
"44 608 OFFCURVE",
"45 544 OFFCURVE",
"45 480 CURVE SMOOTH",
"45 401 OFFCURVE",
"45 322 OFFCURVE",
"44 243 CURVE SMOOTH",
"44 210 OFFCURVE",
"43 177 OFFCURVE",
"43 144 CURVE SMOOTH",
"42 75 OFFCURVE",
"41 7 OFFCURVE",
"41 -62 CURVE SMOOTH",
"41 -87 OFFCURVE",
"57 -102 OFFCURVE",
"82 -103 CURVE"
);
},
{
closed = 1;
nodes = (
"137 644 LINE",
"187 649 OFFCURVE",
"218 614 OFFCURVE",
"228 579 CURVE SMOOTH",
"229 575 OFFCURVE",
"230 569 OFFCURVE",
"230 565 CURVE SMOOTH",
"230 554 OFFCURVE",
"223 539 OFFCURVE",
"215 532 CURVE SMOOTH",
"199 517 OFFCURVE",
"167 505 OFFCURVE",
"144 507 CURVE"
);
}
);
width = 389;
}
);
unicode = 0070;
},
{
glyphname = q;
lastChange = "2019-03-20 23:36:59 +0000";
layers = (
{
hints = (
{
place = "{45, 92}";
type = Stem;
},
{
place = "{245, 95}";
type = Stem;
},
{
place = "{248, 112}";
type = Stem;
}
);
layerId = UUID0;
paths = (
{
closed = 1;
nodes = (
"199 -106 OFFCURVE",
"222 -97 OFFCURVE",
"234 -86 CURVE SMOOTH",
"249 -72 OFFCURVE",
"266 -45 OFFCURVE",
"272 -26 CURVE SMOOTH",
"277 -11 OFFCURVE",
"282 4 OFFCURVE",
"287 21 CURVE",
"295 15 OFFCURVE",
"301 10 OFFCURVE",
"307 5 CURVE",
"335 -16 OFFCURVE",
"363 -37 OFFCURVE",
"392 -57 CURVE SMOOTH",
"405 -66 OFFCURVE",
"412 -64 OFFCURVE",
"419 -51 CURVE",
"421 -48 OFFCURVE",
"423 -43 OFFCURVE",
"424 -40 CURVE",
"451 32 LINE",
"455 45 OFFCURVE",
"452 53 OFFCURVE",
"440 60 CURVE",
"440 66 LINE",
"339 129 LINE",
"339 130 OFFCURVE",
"339 132 OFFCURVE",
"339 133 CURVE SMOOTH",
"339 137 LINE",
"352 223 OFFCURVE",
"362 309 OFFCURVE",
"359 396 CURVE",
"359 420 OFFCURVE",
"356 459 OFFCURVE",
"353 483 CURVE SMOOTH",
"345 541 OFFCURVE",
"323 595 OFFCURVE",
"305 650 CURVE SMOOTH",
"286 709 OFFCURVE",
"243 732 OFFCURVE",
"178 739 CURVE SMOOTH",
"161 741 OFFCURVE",
"148 734 OFFCURVE",
"136 723 CURVE",
"115 702 OFFCURVE",
"102 676 OFFCURVE",
"92 648 CURVE SMOOTH",
"64 571 OFFCURVE",
"51 491 OFFCURVE",
"44 410 CURVE SMOOTH",
"37 325 OFFCURVE",
"41 240 OFFCURVE",
"45 155 CURVE SMOOTH",
"48 102 OFFCURVE",
"60 51 OFFCURVE",
"77 1 CURVE",
"85 -26 OFFCURVE",
"108 -64 OFFCURVE",
"128 -84 CURVE SMOOTH",
"140 -96 OFFCURVE",
"164 -106 OFFCURVE",
"182 -106 CURVE SMOOTH"
);
},
{
closed = 1;
nodes = (
"163 54 OFFCURVE",
"159 65 OFFCURVE",
"156 75 CURVE SMOOTH",
"146 106 OFFCURVE",
"137 137 OFFCURVE",
"138 170 CURVE SMOOTH",
"140 257 OFFCURVE",
"150 398 OFFCURVE",
"161 485 CURVE SMOOTH",
"164 508 OFFCURVE",
"171 530 OFFCURVE",
"177 552 CURVE SMOOTH",
"179 559 OFFCURVE",
"184 570 OFFCURVE",
"188 576 CURVE",
"197 591 OFFCURVE",
"208 591 OFFCURVE",
"217 576 CURVE",
"223 567 OFFCURVE",
"230 551 OFFCURVE",
"233 541 CURVE",
"241 502 OFFCURVE",
"252 463 OFFCURVE",
"251 422 CURVE SMOOTH",
"248 188 LINE SMOOTH",
"248 183 OFFCURVE",
"247 178 OFFCURVE",
"246 170 CURVE",
"222 180 LINE SMOOTH",
"211 185 OFFCURVE",
"202 183 OFFCURVE",
"195 173 CURVE",
"192 174 LINE",
"186 162 LINE SMOOTH",
"172 135 OFFCURVE",
"164 109 OFFCURVE",
"196 87 CURVE",
"179 50 LINE"
);
}
);
width = 492;
}
);
unicode = 0071;
},
{
glyphname = r;
lastChange = "2019-03-20 23:36:59 +0000";
layers = (
{
hints = (
{
place = "{44, 82}";
type = Stem;
},
{
place = "{44, 72}";
type = Stem;
},
{
place = "{46, 92}";
type = Stem;
},
{
place = "{60, 80}";
type = Stem;
}
);
layerId = UUID0;
paths = (
{
closed = 1;
nodes = (
"116 -94 LINE SMOOTH",
"135 -94 OFFCURVE",
"141 -91 OFFCURVE",
"141 -73 CURVE SMOOTH",
"141 -4 OFFCURVE",
"140 65 OFFCURVE",
"138 134 CURVE SMOOTH",
"137 182 OFFCURVE",
"133 230 OFFCURVE",
"130 278 CURVE",
"138 279 LINE",
"150 253 OFFCURVE",
"161 227 OFFCURVE",
"173 201 CURVE SMOOTH",
"211 119 OFFCURVE",
"249 37 OFFCURVE",
"287 -45 CURVE SMOOTH",
"299 -72 LINE SMOOTH",
"303 -81 OFFCURVE",
"310 -88 OFFCURVE",
"320 -87 CURVE SMOOTH",
"341 -85 OFFCURVE",
"375 -81 OFFCURVE",
"396 -77 CURVE SMOOTH",
"415 -73 OFFCURVE",
"419 -61 OFFCURVE",
"412 -42 CURVE SMOOTH",
"370 69 OFFCURVE",
"323 177 OFFCURVE",
"260 278 CURVE",
"262 277 LINE",
"253 292 OFFCURVE",
"242 306 OFFCURVE",
"232 321 CURVE SMOOTH",
"164 423 LINE",
"189 431 OFFCURVE",
"211 439 OFFCURVE",
"234 445 CURVE SMOOTH",
"287 459 OFFCURVE",
"333 483 OFFCURVE",
"367 527 CURVE SMOOTH",
"380 544 OFFCURVE",
"388 563 OFFCURVE",
"387 585 CURVE SMOOTH",
"386 608 OFFCURVE",
"374 641 OFFCURVE",
"360 659 CURVE SMOOTH",
"335 693 OFFCURVE",
"280 724 OFFCURVE",
"238 728 CURVE SMOOTH",
"193 733 OFFCURVE",
"147 732 OFFCURVE",
"102 733 CURVE SMOOTH",
"92 733 OFFCURVE",
"76 732 OFFCURVE",
"66 730 CURVE",
"52 728 OFFCURVE",
"42 722 OFFCURVE",
"43 705 CURVE",
"43 689 OFFCURVE",
"39 673 OFFCURVE",
"39 657 CURVE SMOOTH",
"40 612 OFFCURVE",
"42 567 OFFCURVE",
"43 522 CURVE SMOOTH",
"44 459 OFFCURVE",
"43 396 OFFCURVE",
"44 333 CURVE SMOOTH",
"44 294 OFFCURVE",
"44 255 OFFCURVE",
"46 216 CURVE SMOOTH",
"55 12 LINE SMOOTH",
"56 -14 OFFCURVE",
"57 -40 OFFCURVE",
"60 -66 CURVE SMOOTH",
"61 -76 OFFCURVE",
"66 -86 OFFCURVE",
"69 -94 CURVE"
);
},
{
closed = 1;
nodes = (
"115 363 OFFCURVE",
"112 365 OFFCURVE",
"112 365 CURVE",
"115 363 LINE"
);
},
{
closed = 1;
nodes = (
"114 672 LINE",
"155 666 OFFCURVE",
"196 672 OFFCURVE",
"232 651 CURVE",
"232 649 LINE",
"255 636 OFFCURVE",
"269 604 OFFCURVE",
"261 579 CURVE SMOOTH",
"259 573 OFFCURVE",
"253 565 OFFCURVE",
"247 562 CURVE SMOOTH",
"217 548 OFFCURVE",
"186 535 OFFCURVE",
"155 523 CURVE SMOOTH",
"147 520 OFFCURVE",
"137 521 OFFCURVE",
"124 520 CURVE"
);
}
);
width = 457;
}
);
unicode = 0072;
},
{
glyphname = s;
lastChange = "2019-03-20 23:36:59 +0000";
layers = (
{
hints = (
{
place = "{43, 87}";
type = Stem;
}
);
layerId = UUID0;
paths = (
{
closed = 1;
nodes = (
"354 -47 OFFCURVE",
"383 -11 OFFCURVE",
"384 43 CURVE SMOOTH",
"384 58 LINE",
"380 123 OFFCURVE",
"357 225 OFFCURVE",
"333 285 CURVE SMOOTH",
"314 332 OFFCURVE",
"291 410 OFFCURVE",
"282 460 CURVE",
"281 468 OFFCURVE",
"280 481 OFFCURVE",
"280 489 CURVE SMOOTH",
"280 504 OFFCURVE",
"284 527 OFFCURVE",
"289 541 CURVE SMOOTH",
"300 575 OFFCURVE",
"328 590 OFFCURVE",
"362 579 CURVE",
"373 576 OFFCURVE",
"388 567 OFFCURVE",
"396 559 CURVE",
"417 534 OFFCURVE",
"435 507 OFFCURVE",
"454 481 CURVE SMOOTH",
"476 451 OFFCURVE",
"484 449 OFFCURVE",
"514 470 CURVE",
"528 479 OFFCURVE",
"530 484 OFFCURVE",
"524 500 CURVE",
"525 498 LINE",
"507 546 OFFCURVE",
"487 594 OFFCURVE",
"455 635 CURVE SMOOTH",
"441 653 OFFCURVE",
"414 678 OFFCURVE",
"395 690 CURVE SMOOTH",
"347 719 OFFCURVE",
"284 705 OFFCURVE",
"248 657 CURVE SMOOTH",
"213 610 OFFCURVE",
"190 558 OFFCURVE",
"198 497 CURVE SMOOTH",
"201 474 OFFCURVE",
"203 451 OFFCURVE",
"205 428 CURVE SMOOTH",
"211 363 OFFCURVE",
"224 300 OFFCURVE",
"251 240 CURVE SMOOTH",
"263 214 OFFCURVE",
"271 187 OFFCURVE",
"281 161 CURVE SMOOTH",
"292 132 OFFCURVE",
"293 103 OFFCURVE",
"288 73 CURVE SMOOTH",
"284 50 OFFCURVE",
"277 45 OFFCURVE",
"254 51 CURVE SMOOTH",
"246 53 OFFCURVE",
"235 59 OFFCURVE",
"229 64 CURVE",
"216 78 OFFCURVE",
"203 92 OFFCURVE",
"195 108 CURVE SMOOTH",
"176 145 OFFCURVE",
"159 183 OFFCURVE",
"143 221 CURVE SMOOTH",
"135 240 OFFCURVE",
"132 261 OFFCURVE",
"126 281 CURVE SMOOTH",
"121 298 OFFCURVE",
"118 300 OFFCURVE",
"101 296 CURVE SMOOTH",
"87 293 OFFCURVE",
"73 290 OFFCURVE",
"59 286 CURVE SMOOTH",
"37 280 OFFCURVE",
"34 275 OFFCURVE",
"40 253 CURVE SMOOTH",
"59 187 OFFCURVE",
"79 121 OFFCURVE",
"110 59 CURVE",
"119 39 OFFCURVE",
"138 9 OFFCURVE",
"152 -8 CURVE SMOOTH",
"191 -55 OFFCURVE",
"239 -79 OFFCURVE",
"302 -62 CURVE SMOOTH"
);
}
);
width = 567;
}
);
unicode = 0073;
},
{
glyphname = t;
lastChange = "2019-03-20 23:36:59 +0000";
layers = (
{
hints = (
{
place = "{145, 72}";
type = Stem;
},
{
place = "{169, 76}";
type = Stem;
},
{
horizontal = 1;
place = "{568, 93}";
type = Stem;
},
{
horizontal = 1;
place = "{568, 79}";
type = Stem;
},
{
horizontal = 1;
place = "{651, -20}";
target = down;
type = TopGhost;
}
);
layerId = UUID0;
paths = (
{
closed = 1;
nodes = (
"174 -21 OFFCURVE",
"182 -19 OFFCURVE",
"190 -18 CURVE",
"214 -16 OFFCURVE",
"215 -16 OFFCURVE",
"216 9 CURVE SMOOTH",
"218 44 OFFCURVE",
"218 79 OFFCURVE",
"220 114 CURVE SMOOTH",
"224 171 OFFCURVE",
"230 228 OFFCURVE",
"233 285 CURVE SMOOTH",
"238 373 OFFCURVE",
"241 461 OFFCURVE",
"245 549 CURVE",
"245 553 OFFCURVE",
"246 557 OFFCURVE",
"247 563 CURVE",
"261 563 OFFCURVE",
"274 563 OFFCURVE",
"287 563 CURVE",
"344 566 LINE SMOOTH",
"356 567 OFFCURVE",
"363 574 OFFCURVE",
"364 586 CURVE SMOOTH",
"365 606 OFFCURVE",
"365 626 OFFCURVE",
"365 646 CURVE SMOOTH",
"365 659 OFFCURVE",
"356 662 OFFCURVE",
"345 661 CURVE",
"343 661 LINE",
"332 660 OFFCURVE",
"321 658 OFFCURVE",
"310 657 CURVE SMOOTH",
"252 653 OFFCURVE",
"194 649 OFFCURVE",
"136 646 CURVE SMOOTH",
"105 644 OFFCURVE",
"74 642 OFFCURVE",
"44 650 CURVE",
"38 625 OFFCURVE",
"38 568 OFFCURVE",
"45 552 CURVE",
"173 567 LINE",
"171 543 OFFCURVE",
"169 525 OFFCURVE",
"168 506 CURVE SMOOTH",
"162 384 OFFCURVE",
"156 262 OFFCURVE",
"150 140 CURVE SMOOTH",
"144 -1 LINE SMOOTH",
"143 -20 OFFCURVE",
"147 -24 OFFCURVE",
"166 -22 CURVE SMOOTH"
);
}
);
width = 403;
}
);
unicode = 0074;
},
{
glyphname = u;
lastChange = "2019-03-20 23:36:59 +0000";
layers = (
{
hints = (
{
place = "{40, 108}";
type = Stem;
},
{
place = "{252, 98}";
type = Stem;
}
);
layerId = UUID0;
paths = (
{
closed = 1;
nodes = (
"209 -55 OFFCURVE",
"218 -54 OFFCURVE",
"223 -52 CURVE",
"252 -42 OFFCURVE",
"279 -27 OFFCURVE",
"294 1 CURVE SMOOTH",
"306 23 OFFCURVE",
"318 46 OFFCURVE",
"322 70 CURVE SMOOTH",
"335 142 OFFCURVE",
"348 215 OFFCURVE",
"354 288 CURVE SMOOTH",
"365 415 OFFCURVE",
"359 543 OFFCURVE",
"352 671 CURVE SMOOTH",
"351 690 OFFCURVE",
"345 696 OFFCURVE",
"326 695 CURVE",
"325 690 LINE",
"309 689 OFFCURVE",
"284 686 OFFCURVE",
"269 683 CURVE",
"260 682 OFFCURVE",
"252 674 OFFCURVE",
"252 665 CURVE",
"252 665 OFFCURVE",
"252 665 OFFCURVE",
"252 665 CURVE",
"252 644 LINE SMOOTH",
"252 566 OFFCURVE",
"253 488 OFFCURVE",
"253 410 CURVE SMOOTH",
"253 376 OFFCURVE",
"255 341 OFFCURVE",
"251 307 CURVE SMOOTH",
"245 248 OFFCURVE",
"235 190 OFFCURVE",
"226 132 CURVE SMOOTH",
"224 121 OFFCURVE",
"218 105 OFFCURVE",
"213 96 CURVE SMOOTH",
"205 81 OFFCURVE",
"191 80 OFFCURVE",
"183 94 CURVE",
"177 103 OFFCURVE",
"171 119 OFFCURVE",
"170 130 CURVE SMOOTH",
"166 173 OFFCURVE",
"163 217 OFFCURVE",
"161 261 CURVE SMOOTH",
"156 382 OFFCURVE",
"152 503 OFFCURVE",
"148 624 CURVE SMOOTH",
"147 640 OFFCURVE",
"145 665 OFFCURVE",
"143 680 CURVE",
"140 697 OFFCURVE",
"132 702 OFFCURVE",
"115 701 CURVE SMOOTH",
"103 700 OFFCURVE",
"91 698 OFFCURVE",
"79 698 CURVE SMOOTH",
"46 697 OFFCURVE",
"40 692 OFFCURVE",
"40 659 CURVE SMOOTH",
"40 452 LINE SMOOTH",
"39 340 OFFCURVE",
"38 228 OFFCURVE",
"55 116 CURVE SMOOTH",
"66 43 OFFCURVE",
"107 -7 OFFCURVE",
"167 -44 CURVE",
"176 -50 OFFCURVE",
"192 -55 OFFCURVE",
"203 -55 CURVE SMOOTH"
);
}
);
width = 398;
}
);
unicode = 0075;
},
{
glyphname = v;
lastChange = "2019-03-20 23:36:59 +0000";
layers = (
{
layerId = UUID0;
paths = (
{
closed = 1;
nodes = (
"170 -49 OFFCURVE",
"197 -48 OFFCURVE",
"224 -48 CURVE SMOOTH",
"251 -48 OFFCURVE",
"254 -47 OFFCURVE",
"258 -19 CURVE SMOOTH",
"266 33 OFFCURVE",
"274 85 OFFCURVE",
"281 138 CURVE SMOOTH",
"297 258 OFFCURVE",
"312 378 OFFCURVE",
"328 497 CURVE SMOOTH",
"336 553 OFFCURVE",
"345 609 OFFCURVE",
"353 665 CURVE SMOOTH",
"356 686 OFFCURVE",
"352 689 OFFCURVE",
"331 684 CURVE",
"332 685 LINE",
"318 681 OFFCURVE",
"295 676 OFFCURVE",
"280 673 CURVE",
"260 670 OFFCURVE",
"258 670 OFFCURVE",
"255 651 CURVE SMOOTH",
"251 620 OFFCURVE",
"246 589 OFFCURVE",
"245 558 CURVE SMOOTH",
"240 455 OFFCURVE",
"221 354 OFFCURVE",
"198 252 CURVE",
"197 262 OFFCURVE",
"195 272 OFFCURVE",
"194 282 CURVE SMOOTH",
"183 369 OFFCURVE",
"185 458 OFFCURVE",
"167 545 CURVE SMOOTH",
"160 581 OFFCURVE",
"157 618 OFFCURVE",
"151 654 CURVE SMOOTH",
"149 668 OFFCURVE",
"143 671 OFFCURVE",
"130 670 CURVE",
"114 668 OFFCURVE",
"98 667 OFFCURVE",
"82 666 CURVE",
"75 666 OFFCURVE",
"64 665 OFFCURVE",
"57 664 CURVE",
"41 660 OFFCURVE",
"38 651 OFFCURVE",
"46 636 CURVE SMOOTH",
"48 632 OFFCURVE",
"50 626 OFFCURVE",
"51 622 CURVE",
"55 593 OFFCURVE",
"58 564 OFFCURVE",
"61 535 CURVE SMOOTH",
"67 486 OFFCURVE",
"73 437 OFFCURVE",
"78 388 CURVE SMOOTH",
"102 151 LINE SMOOTH",
"108 92 OFFCURVE",
"113 33 OFFCURVE",
"119 -26 CURVE SMOOTH",
"121 -46 OFFCURVE",
"126 -50 OFFCURVE",
"143 -50 CURVE"
);
}
);
width = 394;
}
);
unicode = 0076;
},
{
glyphname = w;
lastChange = "2019-03-20 23:36:59 +0000";
layers = (
{
hints = (
{
place = "{103, 115}";
type = Stem;
},
{
place = "{196, 137}";
type = Stem;
},
{
place = "{324, 92}";
type = Stem;
},
{
place = "{375, 71}";
type = Stem;
},
{
horizontal = 1;
place = "{687, 21}";
target = up;
type = BottomGhost;
}
);
layerId = UUID0;
paths = (
{
closed = 1;
nodes = (
"407 -87 OFFCURVE",
"409 -85 OFFCURVE",
"411 -49 CURVE",
"412 -40 OFFCURVE",
"412 -31 OFFCURVE",
"413 -22 CURVE SMOOTH",
"417 26 OFFCURVE",
"420 74 OFFCURVE",
"426 122 CURVE SMOOTH",
"434 185 OFFCURVE",
"441 248 OFFCURVE",
"443 312 CURVE SMOOTH",
"444 367 OFFCURVE",
"447 422 OFFCURVE",
"451 477 CURVE SMOOTH",
"455 534 OFFCURVE",
"460 590 OFFCURVE",
"466 646 CURVE SMOOTH",
"468 661 OFFCURVE",
"473 686 OFFCURVE",
"477 701 CURVE SMOOTH",
"480 714 OFFCURVE",
"476 721 OFFCURVE",
"462 722 CURVE",
"465 722 LINE",
"464 722 LINE SMOOTH",
"459 722 OFFCURVE",
"452 721 OFFCURVE",
"447 720 CURVE SMOOTH",
"432 717 OFFCURVE",
"418 715 OFFCURVE",
"402 721 CURVE",
"390 726 OFFCURVE",
"384 720 OFFCURVE",
"381 706 CURVE SMOOTH",
"380 702 OFFCURVE",
"380 696 OFFCURVE",
"380 692 CURVE",
"378 640 OFFCURVE",
"377 588 OFFCURVE",
"375 536 CURVE SMOOTH",
"373 493 OFFCURVE",
"369 450 OFFCURVE",
"366 407 CURVE",
"362 407 LINE",
"360 417 OFFCURVE",
"358 427 OFFCURVE",
"356 437 CURVE SMOOTH",
"332 557 LINE SMOOTH",
"329 571 OFFCURVE",
"322 578 OFFCURVE",
"308 579 CURVE SMOOTH",
"294 580 OFFCURVE",
"281 581 OFFCURVE",
"267 583 CURVE",
"254 584 OFFCURVE",
"241 585 OFFCURVE",
"228 587 CURVE SMOOTH",
"206 591 OFFCURVE",
"199 587 OFFCURVE",
"195 565 CURVE SMOOTH",
"191 544 OFFCURVE",
"187 523 OFFCURVE",
"184 502 CURVE SMOOTH",
"163 340 LINE",
"161 343 OFFCURVE",
"159 349 OFFCURVE",
"159 353 CURVE",
"154 402 OFFCURVE",
"149 451 OFFCURVE",
"144 500 CURVE SMOOTH",
"126 677 LINE",
"126 682 OFFCURVE",
"125 687 OFFCURVE",
"124 692 CURVE SMOOTH",
"122 704 OFFCURVE",
"115 710 OFFCURVE",
"103 710 CURVE SMOOTH",
"87 710 OFFCURVE",
"71 711 OFFCURVE",
"55 710 CURVE SMOOTH",
"41 709 OFFCURVE",
"37 704 OFFCURVE",
"38 690 CURVE SMOOTH",
"40 662 OFFCURVE",
"43 634 OFFCURVE",
"45 606 CURVE SMOOTH",
"53 510 OFFCURVE",
"60 414 OFFCURVE",
"68 318 CURVE SMOOTH",
"101 -57 LINE SMOOTH",
"103 -80 OFFCURVE",
"106 -82 OFFCURVE",
"130 -81 CURVE SMOOTH",
"150 -80 OFFCURVE",
"170 -80 OFFCURVE",
"190 -81 CURVE SMOOTH",
"209 -82 OFFCURVE",
"214 -79 OFFCURVE",
"215 -61 CURVE SMOOTH",
"216 -40 OFFCURVE",
"216 -19 OFFCURVE",
"217 2 CURVE SMOOTH",
"224 136 OFFCURVE",
"232 270 OFFCURVE",
"255 403 CURVE SMOOTH",
"256 408 OFFCURVE",
"258 415 OFFCURVE",
"260 420 CURVE",
"262 418 OFFCURVE",
"264 414 OFFCURVE",
"264 411 CURVE",
"278 300 OFFCURVE",
"292 189 OFFCURVE",
"305 78 CURVE SMOOTH",
"311 32 OFFCURVE",
"314 -14 OFFCURVE",
"319 -60 CURVE SMOOTH",
"321 -80 OFFCURVE",
"325 -83 OFFCURVE",
"345 -83 CURVE SMOOTH",
"354 -83 OFFCURVE",
"363 -83 OFFCURVE",
"372 -84 CURVE SMOOTH"
);
}
);
width = 521;
}
);
unicode = 0077;
},
{
glyphname = x;
lastChange = "2019-03-20 23:36:59 +0000";
layers = (
{
hints = (
{
place = "{221, 120}";
type = Stem;
}
);
layerId = UUID0;
paths = (
{
closed = 1;
nodes = (
"369 -30 LINE",
"390 -29 OFFCURVE",
"423 -25 OFFCURVE",
"443 -21 CURVE SMOOTH",
"460 -17 OFFCURVE",
"463 -6 OFFCURVE",
"456 11 CURVE SMOOTH",
"453 18 OFFCURVE",
"449 25 OFFCURVE",
"446 32 CURVE",
"412 128 OFFCURVE",
"379 224 OFFCURVE",
"345 320 CURVE SMOOTH",
"344 323 OFFCURVE",
"343 329 OFFCURVE",
"343 333 CURVE SMOOTH",
"343 338 OFFCURVE",
"345 345 OFFCURVE",
"348 349 CURVE",
"360 370 OFFCURVE",
"371 391 OFFCURVE",
"383 412 CURVE SMOOTH",
"507 628 LINE SMOOTH",
"520 651 OFFCURVE",
"516 658 OFFCURVE",
"490 663 CURVE",
"488 664 LINE",
"483 665 OFFCURVE",
"478 665 OFFCURVE",
"473 666 CURVE",
"447 670 OFFCURVE",
"430 661 OFFCURVE",
"415 637 CURVE SMOOTH",
"381 581 OFFCURVE",
"343 527 OFFCURVE",
"306 472 CURVE",
"303 467 OFFCURVE",
"299 462 OFFCURVE",
"293 454 CURVE",
"290 460 OFFCURVE",
"288 463 OFFCURVE",
"286 466 CURVE",
"208 648 LINE SMOOTH",
"201 665 OFFCURVE",
"197 667 OFFCURVE",
"181 661 CURVE SMOOTH",
"168 656 OFFCURVE",
"155 652 OFFCURVE",
"142 648 CURVE SMOOTH",
"136 646 OFFCURVE",
"130 643 OFFCURVE",
"125 641 CURVE",
"131 624 OFFCURVE",
"136 610 OFFCURVE",
"141 595 CURVE SMOOTH",
"219 355 LINE",
"220 353 OFFCURVE",
"221 349 OFFCURVE",
"221 346 CURVE SMOOTH",
"221 342 OFFCURVE",
"220 337 OFFCURVE",
"219 334 CURVE",
"185 272 OFFCURVE",
"150 210 OFFCURVE",
"115 148 CURVE SMOOTH",
"91 106 OFFCURVE",
"67 64 OFFCURVE",
"44 22 CURVE SMOOTH",
"36 7 OFFCURVE",
"39 1 OFFCURVE",
"56 -4 CURVE SMOOTH",
"74 -9 OFFCURVE",
"92 -14 OFFCURVE",
"110 -20 CURVE",
"121 -23 OFFCURVE",
"126 -17 OFFCURVE",
"130 -9 CURVE SMOOTH",
"137 4 OFFCURVE",
"143 17 OFFCURVE",
"151 29 CURVE SMOOTH",
"265 212 LINE SMOOTH",
"267 215 OFFCURVE",
"271 219 OFFCURVE",
"274 221 CURVE",
"276 218 OFFCURVE",
"279 213 OFFCURVE",
"280 210 CURVE SMOOTH",
"299 156 OFFCURVE",
"319 102 OFFCURVE",
"337 47 CURVE SMOOTH",
"344 26 OFFCURVE",
"354 6 OFFCURVE",
"353 -17 CURVE",
"353 -24 OFFCURVE",
"359 -30 OFFCURVE",
"366 -30 CURVE SMOOTH"
);
}
);
width = 552;
}
);
unicode = 0078;
},
{
glyphname = y;
lastChange = "2019-03-20 23:36:59 +0000";
layers = (
{
hints = (
{
place = "{167, 71}";
type = Stem;
},
{
place = "{167, 85}";
type = Stem;
}
);
layerId = UUID0;
paths = (
{
closed = 1;
nodes = (
"229 -40 OFFCURVE",
"234 -36 OFFCURVE",
"236 12 CURVE",
"236 17 LINE",
"241 110 OFFCURVE",
"246 203 OFFCURVE",
"251 296 CURVE",
"251 299 LINE SMOOTH",
"251 306 OFFCURVE",
"253 316 OFFCURVE",
"255 322 CURVE",
"281 374 OFFCURVE",
"297 429 OFFCURVE",
"313 484 CURVE SMOOTH",
"330 542 OFFCURVE",
"345 600 OFFCURVE",
"361 658 CURVE SMOOTH",
"364 668 OFFCURVE",
"363 678 OFFCURVE",
"352 678 CURVE",
"352 675 LINE",
"336 675 OFFCURVE",
"310 672 OFFCURVE",
"294 669 CURVE",
"287 668 OFFCURVE",
"280 659 OFFCURVE",
"277 652 CURVE",
"265 618 OFFCURVE",
"255 584 OFFCURVE",
"244 550 CURVE SMOOTH",
"217 463 LINE",
"211 463 LINE",
"202 481 LINE SMOOTH",
"180 528 OFFCURVE",
"157 575 OFFCURVE",
"136 623 CURVE SMOOTH",
"124 651 OFFCURVE",
"109 663 OFFCURVE",
"75 658 CURVE SMOOTH",
"34 652 OFFCURVE",
"33 644 OFFCURVE",
"45 608 CURVE",
"45 607 OFFCURVE",
"45 606 OFFCURVE",
"45 605 CURVE",
"105 461 LINE SMOOTH",
"120 425 OFFCURVE",
"135 388 OFFCURVE",
"153 353 CURVE SMOOTH",
"160 339 OFFCURVE",
"166 314 OFFCURVE",
"166 298 CURVE SMOOTH",
"166 294 LINE SMOOTH",
"165 195 OFFCURVE",
"165 96 OFFCURVE",
"165 -3 CURVE SMOOTH",
"165 -21 LINE",
"166 -30 OFFCURVE",
"172 -33 OFFCURVE",
"181 -34 CURVE SMOOTH"
);
},
{
closed = 1;
nodes = (
"210 403 OFFCURVE",
"209 404 OFFCURVE",
"208 405 CURVE",
"211 402 LINE"
);
}
);
width = 402;
}
);
unicode = 0079;
},
{
glyphname = z;
lastChange = "2019-03-20 23:36:59 +0000";
layers = (
{
hints = (
{
horizontal = 1;
place = "{-10, 111}";
type = Stem;
},
{
horizontal = 1;
place = "{2, 120}";
type = Stem;
},
{
horizontal = 1;
place = "{517, 133}";
type = Stem;
},
{
horizontal = 1;
place = "{531, 119}";
type = Stem;
}
);
layerId = UUID0;
paths = (
{
closed = 1;
nodes = (
"279 -10 OFFCURVE",
"336 -5 OFFCURVE",
"393 0 CURVE",
"402 0 OFFCURVE",
"409 7 OFFCURVE",
"409 16 CURVE",
"411 42 OFFCURVE",
"414 68 OFFCURVE",
"415 94 CURVE SMOOTH",
"416 114 OFFCURVE",
"411 119 OFFCURVE",
"391 118 CURVE SMOOTH",
"367 117 OFFCURVE",
"328 113 OFFCURVE",
"304 109 CURVE SMOOTH",
"263 102 OFFCURVE",
"196 96 OFFCURVE",
"155 96 CURVE",
"159 107 LINE",
"221 197 OFFCURVE",
"282 287 OFFCURVE",
"345 376 CURVE SMOOTH",
"382 428 OFFCURVE",
"416 482 OFFCURVE",
"463 526 CURVE",
"467 531 OFFCURVE",
"471 540 OFFCURVE",
"471 546 CURVE",
"470 573 OFFCURVE",
"468 600 OFFCURVE",
"464 626 CURVE",
"463 629 LINE",
"460 650 OFFCURVE",
"458 650 OFFCURVE",
"436 650 CURVE SMOOTH",
"256 650 LINE",
"164 650 LINE",
"160 639 OFFCURVE",
"154 627 OFFCURVE",
"153 615 CURVE SMOOTH",
"151 591 OFFCURVE",
"152 567 OFFCURVE",
"152 543 CURVE SMOOTH",
"152 519 OFFCURVE",
"156 515 OFFCURVE",
"181 517 CURVE SMOOTH",
"226 521 OFFCURVE",
"271 526 OFFCURVE",
"316 530 CURVE",
"319 530 OFFCURVE",
"324 529 OFFCURVE",
"327 528 CURVE",
"313 509 OFFCURVE",
"300 492 OFFCURVE",
"288 474 CURVE SMOOTH",
"247 413 OFFCURVE",
"207 351 OFFCURVE",
"166 290 CURVE SMOOTH",
"128 234 OFFCURVE",
"89 179 OFFCURVE",
"51 123 CURVE",
"48 120 OFFCURVE",
"45 114 OFFCURVE",
"44 110 CURVE",
"42 79 OFFCURVE",
"40 48 OFFCURVE",
"40 17 CURVE SMOOTH",
"40 -7 OFFCURVE",
"47 -13 OFFCURVE",
"72 -13 CURVE SMOOTH",
"109 -13 OFFCURVE",
"146 -12 OFFCURVE",
"183 -12 CURVE SMOOTH",
"196 -12 OFFCURVE",
"209 -15 OFFCURVE",
"222 -14 CURVE SMOOTH"
);
}
);
width = 509;
}
);
unicode = 007A;
},
{
glyphname = b.alt;
lastChange = "2019-03-20 23:36:59 +0000";
layers = (
{
layerId = UUID0;
paths = (
{
closed = 1;
nodes = (
"78 -10 OFFCURVE",
"121 3 OFFCURVE",
"160 11 CURVE SMOOTH",
"214 23 OFFCURVE",
"265 48 OFFCURVE",
"314 75 CURVE SMOOTH",
"385 114 OFFCURVE",
"415 180 OFFCURVE",
"415 275 CURVE SMOOTH",
"415 300 OFFCURVE",
"413 325 OFFCURVE",
"411 350 CURVE SMOOTH",
"405 429 OFFCURVE",
"346 521 OFFCURVE",
"265 540 CURVE SMOOTH",
"251 543 OFFCURVE",
"237 544 OFFCURVE",
"219 546 CURVE",
"279 594 OFFCURVE",
"335 646 OFFCURVE",
"335 718 CURVE SMOOTH",
"335 816 OFFCURVE",
"257 872 OFFCURVE",
"164 872 CURVE SMOOTH",
"116 872 OFFCURVE",
"79 858 OFFCURVE",
"26 839 CURVE",
"21 809 OFFCURVE",
"22 774 OFFCURVE",
"22 742 CURVE SMOOTH",
"22 651 OFFCURVE",
"31 561 OFFCURVE",
"31 470 CURVE SMOOTH",
"31 319 OFFCURVE",
"14 169 OFFCURVE",
"14 19 CURVE SMOOTH",
"14 -4 OFFCURVE",
"19 -10 OFFCURVE",
"39 -10 CURVE SMOOTH"
);
},
{
closed = 1;
nodes = (
"110 183 OFFCURVE",
"119 263 OFFCURVE",
"119 347 CURVE SMOOTH",
"119 392 LINE SMOOTH",
"119 414 OFFCURVE",
"149 429 OFFCURVE",
"194 429 CURVE SMOOTH",
"257 429 OFFCURVE",
"304 407 OFFCURVE",
"304 332 CURVE SMOOTH",
"304 259 OFFCURVE",
"278 194 OFFCURVE",
"220 143 CURVE SMOOTH",
"187 115 OFFCURVE",
"148 104 OFFCURVE",
"104 93 CURVE"
);
},
{
closed = 1;
nodes = (
"100 643 OFFCURVE",
"97 712 OFFCURVE",
"95 782 CURVE",
"111 787 OFFCURVE",
"127 792 OFFCURVE",
"142 796 CURVE",
"147 797 OFFCURVE",
"152 798 OFFCURVE",
"157 798 CURVE SMOOTH",
"195 798 OFFCURVE",
"222 748 OFFCURVE",
"222 710 CURVE SMOOTH",
"222 653 OFFCURVE",
"163 608 OFFCURVE",
"113 576 CURVE",
"111 574 OFFCURVE",
"107 573 OFFCURVE",
"102 572 CURVE"
);
}
);
width = 441;
}
);
},
{
glyphname = zero;
lastChange = "2019-03-20 23:36:38 +0000";
layers = (
{
layerId = UUID0;
paths = (
{
closed = 1;
nodes = (
"274 -28 OFFCURVE",
"344 9 OFFCURVE",
"364 56 CURVE SMOOTH",
"414 174 OFFCURVE",
"432 305 OFFCURVE",
"432 448 CURVE SMOOTH",
"432 538 OFFCURVE",
"422 652 OFFCURVE",
"395 726 CURVE SMOOTH",
"372 789 OFFCURVE",
"301 851 OFFCURVE",
"236 851 CURVE SMOOTH",
"178 851 OFFCURVE",
"131 794 OFFCURVE",
"105 741 CURVE SMOOTH",
"50 631 OFFCURVE",
"25 515 OFFCURVE",
"25 383 CURVE",
"23 364 OFFCURVE",
"22 343 OFFCURVE",
"22 320 CURVE SMOOTH",
"22 194 OFFCURVE",
"53 30 OFFCURVE",
"167 -10 CURVE",
"188 -21 OFFCURVE",
"210 -27 OFFCURVE",
"231 -27 CURVE SMOOTH"
);
},
{
closed = 1;
nodes = (
"208 57 OFFCURVE",
"193 63 OFFCURVE",
"182 74 CURVE SMOOTH",
"121 134 OFFCURVE",
"110 224 OFFCURVE",
"110 312 CURVE SMOOTH",
"110 388 OFFCURVE",
"121 470 OFFCURVE",
"127 557 CURVE",
"142 622 OFFCURVE",
"168 758 OFFCURVE",
"243 758 CURVE SMOOTH",
"316 758 OFFCURVE",
"331 610 OFFCURVE",
"331 511 CURVE SMOOTH",
"331 470 OFFCURVE",
"329 431 OFFCURVE",
"327 401 CURVE",
"316 305 OFFCURVE",
"330 208 OFFCURVE",
"291 115 CURVE SMOOTH",
"279 86 OFFCURVE",
"250 57 OFFCURVE",
"223 57 CURVE SMOOTH"
);
}
);
width = 456;
}
);
unicode = 0030;
},
{
glyphname = one;
lastChange = "2019-03-20 23:36:59 +0000";
layers = (
{
layerId = UUID0;
paths = (
{
closed = 1;
nodes = (
"284 30 OFFCURVE",
"296 30 OFFCURVE",
"296 70 CURVE SMOOTH",
"296 74 OFFCURVE",
"295 78 OFFCURVE",
"295 82 CURVE SMOOTH",
"289 283 OFFCURVE",
"286 482 OFFCURVE",
"281 682 CURVE SMOOTH",
"280 717 OFFCURVE",
"280 752 OFFCURVE",
"278 786 CURVE SMOOTH",
"276 811 OFFCURVE",
"272 819 OFFCURVE",
"253 819 CURVE SMOOTH",
"219 819 OFFCURVE",
"185 812 OFFCURVE",
"151 810 CURVE SMOOTH",
"123 808 OFFCURVE",
"110 773 OFFCURVE",
"97 749 CURVE SMOOTH",
"78 716 OFFCURVE",
"31 651 OFFCURVE",
"31 630 CURVE SMOOTH",
"31 617 OFFCURVE",
"88 588 OFFCURVE",
"104 588 CURVE SMOOTH",
"115 588 OFFCURVE",
"140 619 OFFCURVE",
"162 644 CURVE",
"163 635 OFFCURVE",
"164 631 OFFCURVE",
"164 628 CURVE",
"175 435 OFFCURVE",
"182 243 OFFCURVE",
"193 49 CURVE SMOOTH",
"194 28 OFFCURVE",
"198 30 OFFCURVE",
"239 30 CURVE SMOOTH"
);
}
);
width = 353;
}
);
unicode = 0031;
},
{
glyphname = two;
lastChange = "2019-03-20 23:36:59 +0000";
layers = (
{
layerId = UUID0;
paths = (
{
closed = 1;
nodes = (
"114 -2 LINE",
"199 8 OFFCURVE",
"287 11 OFFCURVE",
"372 16 CURVE SMOOTH",
"410 18 OFFCURVE",
"473 12 OFFCURVE",
"473 53 CURVE SMOOTH",
"473 99 OFFCURVE",
"480 126 OFFCURVE",
"432 126 CURVE",
"363 120 OFFCURVE",
"297 116 OFFCURVE",
"225 109 CURVE",
"227 115 OFFCURVE",
"227 118 OFFCURVE",
"228 119 CURVE",
"264 183 OFFCURVE",
"292 250 OFFCURVE",
"316 321 CURVE SMOOTH",
"346 409 OFFCURVE",
"377 496 OFFCURVE",
"393 589 CURVE SMOOTH",
"396 605 OFFCURVE",
"397 620 OFFCURVE",
"397 636 CURVE SMOOTH",
"397 678 OFFCURVE",
"386 718 OFFCURVE",
"363 755 CURVE SMOOTH",
"337 795 OFFCURVE",
"291 805 OFFCURVE",
"252 805 CURVE SMOOTH",
"169 805 OFFCURVE",
"80 728 OFFCURVE",
"35 649 CURVE SMOOTH",
"31 642 OFFCURVE",
"29 638 OFFCURVE",
"29 634 CURVE SMOOTH",
"29 620 OFFCURVE",
"61 581 OFFCURVE",
"77 581 CURVE SMOOTH",
"84 581 OFFCURVE",
"91 586 OFFCURVE",
"98 595 CURVE SMOOTH",
"135 640 OFFCURVE",
"191 722 OFFCURVE",
"260 722 CURVE SMOOTH",
"286 722 OFFCURVE",
"299 700 OFFCURVE",
"299 673 CURVE",
"300 574 OFFCURVE",
"285 476 OFFCURVE",
"246 392 CURVE SMOOTH",
"205 303 OFFCURVE",
"177 211 OFFCURVE",
"129 126 CURVE SMOOTH",
"111 94 OFFCURVE",
"104 60 OFFCURVE",
"88 26 CURVE SMOOTH",
"86 22 OFFCURVE",
"84 17 OFFCURVE",
"84 14 CURVE SMOOTH",
"84 5 OFFCURVE",
"93 -2 OFFCURVE",
"106 -2 CURVE SMOOTH"
);
}
);
width = 505;
}
);
unicode = 0032;
},
{
glyphname = three;
lastChange = "2019-03-20 23:36:59 +0000";
layers = (
{
layerId = UUID0;
paths = (
{
closed = 1;
nodes = (
"235 -17 OFFCURVE",
"301 1 OFFCURVE",
"331 40 CURVE",
"385 100 OFFCURVE",
"424 140 OFFCURVE",
"424 272 CURVE SMOOTH",
"424 310 OFFCURVE",
"413 440 OFFCURVE",
"342 456 CURVE",
"339 459 LINE",
"388 508 OFFCURVE",
"429 556 OFFCURVE",
"429 633 CURVE SMOOTH",
"429 764 OFFCURVE",
"366 827 OFFCURVE",
"280 827 CURVE SMOOTH",
"187 827 OFFCURVE",
"117 774 OFFCURVE",
"65 678 CURVE SMOOTH",
"61 670 OFFCURVE",
"58 659 OFFCURVE",
"58 651 CURVE SMOOTH",
"58 634 OFFCURVE",
"107 617 OFFCURVE",
"122 617 CURVE SMOOTH",
"127 617 OFFCURVE",
"131 619 OFFCURVE",
"135 625 CURVE SMOOTH",
"168 676 OFFCURVE",
"207 752 OFFCURVE",
"270 752 CURVE SMOOTH",
"312 752 OFFCURVE",
"340 713 OFFCURVE",
"340 664 CURVE SMOOTH",
"340 652 OFFCURVE",
"338 639 OFFCURVE",
"335 627 CURVE SMOOTH",
"314 550 OFFCURVE",
"287 492 OFFCURVE",
"199 473 CURVE SMOOTH",
"182 469 OFFCURVE",
"182 467 OFFCURVE",
"179 448 CURVE",
"176 434 OFFCURVE",
"170 416 OFFCURVE",
"170 407 CURVE SMOOTH",
"170 401 OFFCURVE",
"176 394 OFFCURVE",
"182 394 CURVE SMOOTH",
"185 394 OFFCURVE",
"188 395 OFFCURVE",
"191 397 CURVE",
"214 407 OFFCURVE",
"237 409 OFFCURVE",
"260 409 CURVE SMOOTH",
"321 409 OFFCURVE",
"323 351 OFFCURVE",
"329 289 CURVE SMOOTH",
"331 272 OFFCURVE",
"331 256 OFFCURVE",
"331 239 CURVE SMOOTH",
"331 188 OFFCURVE",
"305 115 OFFCURVE",
"220 80 CURVE SMOOTH",
"211 76 OFFCURVE",
"203 74 OFFCURVE",
"197 74 CURVE SMOOTH",
"173 74 OFFCURVE",
"133 120 OFFCURVE",
"128 170 CURVE SMOOTH",
"123 209 OFFCURVE",
"124 275 OFFCURVE",
"99 275 CURVE SMOOTH",
"64 275 OFFCURVE",
"33 270 OFFCURVE",
"33 239 CURVE SMOOTH",
"33 231 OFFCURVE",
"35 222 OFFCURVE",
"35 215 CURVE",
"40 106 OFFCURVE",
"95 -17 OFFCURVE",
"192 -17 CURVE SMOOTH"
);
}
);
width = 469;
}
);
unicode = 0033;
},
{
glyphname = four;
lastChange = "2019-03-20 23:36:59 +0000";
layers = (
{
layerId = UUID0;
paths = (
{
closed = 1;
nodes = (
"381 6 OFFCURVE",
"389 15 OFFCURVE",
"389 35 CURVE SMOOTH",
"389 140 OFFCURVE",
"385 240 OFFCURVE",
"385 346 CURVE",
"411 355 OFFCURVE",
"444 357 OFFCURVE",
"473 361 CURVE SMOOTH",
"497 364 OFFCURVE",
"494 403 OFFCURVE",
"494 425 CURVE SMOOTH",
"494 438 OFFCURVE",
"490 443 OFFCURVE",
"480 443 CURVE SMOOTH",
"455 443 OFFCURVE",
"431 438 OFFCURVE",
"407 438 CURVE SMOOTH",
"377 438 OFFCURVE",
"382 448 OFFCURVE",
"382 467 CURVE SMOOTH",
"382 524 LINE SMOOTH",
"382 584 OFFCURVE",
"377 643 OFFCURVE",
"377 702 CURVE SMOOTH",
"377 734 OFFCURVE",
"380 767 OFFCURVE",
"380 799 CURVE SMOOTH",
"380 815 OFFCURVE",
"375 822 OFFCURVE",
"364 822 CURVE SMOOTH",
"300 822 OFFCURVE",
"279 816 OFFCURVE",
"279 775 CURVE SMOOTH",
"279 666 OFFCURVE",
"284 557 OFFCURVE",
"287 450 CURVE",
"287 444 OFFCURVE",
"286 439 OFFCURVE",
"285 432 CURVE",
"138 417 LINE",
"137 423 OFFCURVE",
"137 427 OFFCURVE",
"137 432 CURVE SMOOTH",
"136 526 OFFCURVE",
"132 620 OFFCURVE",
"132 714 CURVE SMOOTH",
"132 745 OFFCURVE",
"139 795 OFFCURVE",
"111 795 CURVE SMOOTH",
"77 795 OFFCURVE",
"33 791 OFFCURVE",
"33 749 CURVE SMOOTH",
"33 617 OFFCURVE",
"42 482 OFFCURVE",
"52 350 CURVE SMOOTH",
"53 331 OFFCURVE",
"63 320 OFFCURVE",
"79 320 CURVE SMOOTH",
"81 320 OFFCURVE",
"83 321 OFFCURVE",
"85 321 CURVE",
"153 329 OFFCURVE",
"218 337 OFFCURVE",
"283 341 CURVE",
"289 341 OFFCURVE",
"295 124 OFFCURVE",
"295 85 CURVE SMOOTH",
"295 8 OFFCURVE",
"293 6 OFFCURVE",
"360 6 CURVE SMOOTH"
);
}
);
width = 514;
}
);
unicode = 0034;
},
{
glyphname = five;
lastChange = "2019-03-20 23:36:59 +0000";
layers = (
{
layerId = UUID0;
paths = (
{
closed = 1;
nodes = (
"282 -19 OFFCURVE",
"360 42 OFFCURVE",
"388 141 CURVE SMOOTH",
"402 190 OFFCURVE",
"414 236 OFFCURVE",
"414 288 CURVE SMOOTH",
"414 348 OFFCURVE",
"405 405 OFFCURVE",
"383 459 CURVE",
"349 527 OFFCURVE",
"287 559 OFFCURVE",
"235 559 CURVE SMOOTH",
"204 559 OFFCURVE",
"183 547 OFFCURVE",
"147 535 CURVE",
"147 583 OFFCURVE",
"143 609 OFFCURVE",
"142 653 CURVE SMOOTH",
"142 670 LINE SMOOTH",
"142 673 OFFCURVE",
"142 676 OFFCURVE",
"142 680 CURVE SMOOTH",
"142 699 OFFCURVE",
"162 701 OFFCURVE",
"175 701 CURVE",
"217 704 OFFCURVE",
"344 728 OFFCURVE",
"344 750 CURVE SMOOTH",
"344 759 LINE SMOOTH",
"344 770 OFFCURVE",
"345 788 OFFCURVE",
"345 799 CURVE SMOOTH",
"345 829 OFFCURVE",
"342 840 OFFCURVE",
"324 840 CURVE SMOOTH",
"320 840 OFFCURVE",
"315 839 OFFCURVE",
"310 839 CURVE",
"230 825 OFFCURVE",
"150 807 OFFCURVE",
"70 799 CURVE SMOOTH",
"43 796 OFFCURVE",
"47 794 OFFCURVE",
"45 767 CURVE",
"45 698 OFFCURVE",
"51 629 OFFCURVE",
"51 560 CURVE SMOOTH",
"51 457 LINE SMOOTH",
"51 435 OFFCURVE",
"41 360 OFFCURVE",
"72 360 CURVE SMOOTH",
"85 360 OFFCURVE",
"96 366 OFFCURVE",
"101 377 CURVE",
"133 426 OFFCURVE",
"173 470 OFFCURVE",
"231 470 CURVE SMOOTH",
"299 470 OFFCURVE",
"324 398 OFFCURVE",
"324 319 CURVE SMOOTH",
"324 169 OFFCURVE",
"247 82 OFFCURVE",
"205 82 CURVE SMOOTH",
"160 82 OFFCURVE",
"135 184 OFFCURVE",
"124 255 CURVE",
"121 269 OFFCURVE",
"119 274 OFFCURVE",
"110 274 CURVE SMOOTH",
"101 274 OFFCURVE",
"56 266 OFFCURVE",
"40 263 CURVE",
"28 260 OFFCURVE",
"27 257 OFFCURVE",
"27 243 CURVE SMOOTH",
"27 222 OFFCURVE",
"30 201 OFFCURVE",
"31 180 CURVE SMOOTH",
"37 77 OFFCURVE",
"109 -19 OFFCURVE",
"194 -19 CURVE SMOOTH"
);
}
);
width = 441;
}
);
unicode = 0035;
},
{
glyphname = six;
lastChange = "2019-03-20 23:36:59 +0000";
layers = (
{
layerId = UUID0;
paths = (
{
closed = 1;
nodes = (
"306 -33 OFFCURVE",
"448 125 OFFCURVE",
"448 316 CURVE SMOOTH",
"448 401 OFFCURVE",
"412 521 OFFCURVE",
"324 521 CURVE SMOOTH",
"201 521 OFFCURVE",
"151 406 OFFCURVE",
"105 299 CURVE",
"102 301 LINE",
"114 406 OFFCURVE",
"133 506 OFFCURVE",
"154 607 CURVE SMOOTH",
"170 683 OFFCURVE",
"175 718 OFFCURVE",
"204 788 CURVE SMOOTH",
"208 797 OFFCURVE",
"211 809 OFFCURVE",
"211 816 CURVE SMOOTH",
"211 835 OFFCURVE",
"165 833 OFFCURVE",
"142 833 CURVE SMOOTH",
"125 833 OFFCURVE",
"118 826 OFFCURVE",
"112 804 CURVE SMOOTH",
"64 630 OFFCURVE",
"15 454 OFFCURVE",
"15 252 CURVE SMOOTH",
"15 119 OFFCURVE",
"86 -33 OFFCURVE",
"207 -33 CURVE SMOOTH"
);
},
{
closed = 1;
nodes = (
"177 53 OFFCURVE",
"153 120 OFFCURVE",
"153 156 CURVE SMOOTH",
"153 213 OFFCURVE",
"162 248 OFFCURVE",
"191 300 CURVE SMOOTH",
"218 349 OFFCURVE",
"258 420 OFFCURVE",
"316 420 CURVE SMOOTH",
"327 420 LINE",
"346 398 OFFCURVE",
"353 372 OFFCURVE",
"353 344 CURVE SMOOTH",
"353 284 OFFCURVE",
"321 214 OFFCURVE",
"308 160 CURVE",
"286 119 OFFCURVE",
"264 53 OFFCURVE",
"215 53 CURVE SMOOTH"
);
}
);
width = 464;
}
);
unicode = 0036;
},
{
glyphname = seven;
lastChange = "2019-03-20 23:36:59 +0000";
layers = (
{
layerId = UUID0;
paths = (
{
closed = 1;
nodes = (
"128 -40 OFFCURVE",
"176 -36 OFFCURVE",
"198 -34 CURVE",
"200 -27 OFFCURVE",
"202 -22 OFFCURVE",
"204 -16 CURVE",
"269 241 OFFCURVE",
"344 519 OFFCURVE",
"419 782 CURVE",
"420 785 OFFCURVE",
"420 788 OFFCURVE",
"420 790 CURVE SMOOTH",
"420 799 OFFCURVE",
"415 804 OFFCURVE",
"405 804 CURVE SMOOTH",
"251 800 OFFCURVE",
"158 790 OFFCURVE",
"34 786 CURVE SMOOTH",
"10 786 OFFCURVE",
"12 751 OFFCURVE",
"12 730 CURVE SMOOTH",
"12 717 OFFCURVE",
"14 703 OFFCURVE",
"16 688 CURVE",
"120 695 OFFCURVE",
"149 699 OFFCURVE",
"245 699 CURVE SMOOTH",
"288 699 LINE",
"221 433 OFFCURVE",
"147 195 OFFCURVE",
"104 6 CURVE",
"102 -6 OFFCURVE",
"97 -17 OFFCURVE",
"97 -29 CURVE SMOOTH",
"97 -37 OFFCURVE",
"101 -40 OFFCURVE",
"109 -40 CURVE SMOOTH"
);
}
);
width = 445;
}
);
unicode = 0037;
},
{
glyphname = eight;
lastChange = "2019-03-20 23:36:59 +0000";
layers = (
{
layerId = UUID0;
paths = (
{
closed = 1;
nodes = (
"342 -23 OFFCURVE",
"451 88 OFFCURVE",
"451 251 CURVE SMOOTH",
"451 402 OFFCURVE",
"389 462 OFFCURVE",
"306 506 CURVE",
"306 510 OFFCURVE",
"310 512 OFFCURVE",
"313 515 CURVE",
"375 570 OFFCURVE",
"391 580 OFFCURVE",
"391 666 CURVE SMOOTH",
"391 757 OFFCURVE",
"333 848 OFFCURVE",
"260 848 CURVE SMOOTH",
"197 848 OFFCURVE",
"91 786 OFFCURVE",
"91 639 CURVE SMOOTH",
"91 575 OFFCURVE",
"121 549 OFFCURVE",
"167 511 CURVE",
"147 486 OFFCURVE",
"109 464 OFFCURVE",
"92 439 CURVE SMOOTH",
"45 368 OFFCURVE",
"17 261 OFFCURVE",
"17 183 CURVE SMOOTH",
"17 41 OFFCURVE",
"125 -23 OFFCURVE",
"228 -23 CURVE SMOOTH"
);
},
{
closed = 1;
nodes = (
"163 59 OFFCURVE",
"125 115 OFFCURVE",
"124 202 CURVE",
"126 220 OFFCURVE",
"128 249 OFFCURVE",
"131 277 CURVE",
"146 325 OFFCURVE",
"169 450 OFFCURVE",
"258 450 CURVE SMOOTH",
"302 450 OFFCURVE",
"347 352 OFFCURVE",
"347 277 CURVE SMOOTH",
"347 216 OFFCURVE",
"318 59 OFFCURVE",
"214 59 CURVE SMOOTH"
);
},
{
closed = 1;
nodes = (
"200 564 OFFCURVE",
"183 597 OFFCURVE",
"183 648 CURVE SMOOTH",
"183 687 OFFCURVE",
"204 764 OFFCURVE",
"248 764 CURVE SMOOTH",
"262 764 OFFCURVE",
"302 743 OFFCURVE",
"302 665 CURVE SMOOTH",
"302 661 OFFCURVE",
"303 657 OFFCURVE",
"303 653 CURVE SMOOTH",
"303 611 OFFCURVE",
"271 564 OFFCURVE",
"234 564 CURVE SMOOTH"
);
}
);
width = 469;
}
);
unicode = 0038;
},
{
glyphname = nine;
lastChange = "2019-03-20 23:36:59 +0000";
layers = (
{
layerId = UUID0;
paths = (
{
closed = 1;
nodes = (
"309 -28 OFFCURVE",
"351 -26 OFFCURVE",
"368 -23 CURVE SMOOTH",
"388 -20 OFFCURVE",
"383 16 OFFCURVE",
"383 33 CURVE",
"381 65 OFFCURVE",
"378 96 OFFCURVE",
"378 127 CURVE SMOOTH",
"378 185 OFFCURVE",
"387 161 OFFCURVE",
"390 219 CURVE SMOOTH",
"395 329 OFFCURVE",
"404 439 OFFCURVE",
"411 549 CURVE SMOOTH",
"415 627 OFFCURVE",
"426 707 OFFCURVE",
"426 785 CURVE SMOOTH",
"426 839 OFFCURVE",
"349 853 OFFCURVE",
"285 853 CURVE SMOOTH",
"275 853 OFFCURVE",
"265 852 OFFCURVE",
"258 851 CURVE",
"138 825 OFFCURVE",
"8 769 OFFCURVE",
"8 605 CURVE SMOOTH",
"8 533 OFFCURVE",
"43 474 OFFCURVE",
"127 474 CURVE SMOOTH",
"189 474 OFFCURVE",
"246 510 OFFCURVE",
"285 551 CURVE SMOOTH",
"294 560 OFFCURVE",
"302 584 OFFCURVE",
"311 593 CURVE",
"317 586 OFFCURVE",
"316 568 OFFCURVE",
"316 556 CURVE SMOOTH",
"316 550 OFFCURVE",
"316 545 OFFCURVE",
"315 539 CURVE",
"301 336 OFFCURVE",
"276 183 OFFCURVE",
"276 27 CURVE SMOOTH",
"276 -11 OFFCURVE",
"279 -28 OFFCURVE",
"296 -28 CURVE SMOOTH"
);
},
{
closed = 1;
nodes = (
"118 566 OFFCURVE",
"94 570 OFFCURVE",
"94 598 CURVE SMOOTH",
"94 649 OFFCURVE",
"126 691 OFFCURVE",
"166 720 CURVE SMOOTH",
"204 748 OFFCURVE",
"247 777 OFFCURVE",
"295 782 CURVE",
"302 782 LINE SMOOTH",
"320 782 OFFCURVE",
"326 777 OFFCURVE",
"326 764 CURVE SMOOTH",
"326 738 OFFCURVE",
"227 566 OFFCURVE",
"146 566 CURVE SMOOTH"
);
}
);
width = 450;
}
);
unicode = 0039;
},
{
glyphname = period;
lastChange = "2019-03-20 23:36:59 +0000";
layers = (
{
layerId = UUID0;
paths = (
{
closed = 1;
nodes = (
"127 -25 OFFCURVE",
"147 9 OFFCURVE",
"142 43 CURVE SMOOTH",
"139 62 OFFCURVE",
"129 75 OFFCURVE",
"111 82 CURVE",
"93 88 OFFCURVE",
"77 86 OFFCURVE",
"63 73 CURVE SMOOTH",
"44 56 OFFCURVE",
"33 34 OFFCURVE",
"30 9 CURVE SMOOTH",
"26 -30 OFFCURVE",
"60 -55 OFFCURVE",
"96 -39 CURVE SMOOTH"
);
}
);
width = 173;
}
);
unicode = 002E;
},
{
glyphname = comma;
lastChange = "2019-03-20 23:36:59 +0000";
layers = (
{
layerId = UUID0;
paths = (
{
closed = 1;
nodes = (
"62 -166 OFFCURVE",
"72 -164 OFFCURVE",
"78 -160 CURVE",
"139 -111 OFFCURVE",
"145 -70 OFFCURVE",
"153 6 CURVE",
"153 30 OFFCURVE",
"149 127 OFFCURVE",
"119 127 CURVE SMOOTH",
"115 127 OFFCURVE",
"108 125 OFFCURVE",
"102 124 CURVE SMOOTH",
"64 117 OFFCURVE",
"48 113 OFFCURVE",
"48 102 CURVE SMOOTH",
"48 98 OFFCURVE",
"50 93 OFFCURVE",
"54 85 CURVE SMOOTH",
"66 60 OFFCURVE",
"71 36 OFFCURVE",
"71 12 CURVE SMOOTH",
"71 -25 OFFCURVE",
"58 -58 OFFCURVE",
"31 -92 CURVE SMOOTH",
"22 -104 OFFCURVE",
"10 -116 OFFCURVE",
"10 -130 CURVE SMOOTH",
"10 -145 OFFCURVE",
"27 -166 OFFCURVE",
"55 -166 CURVE SMOOTH"
);
}
);
width = 164;
}
);
unicode = 002C;
},
{
glyphname = colon;
lastChange = "2019-03-20 23:36:59 +0000";
layers = (
{
layerId = UUID0;
paths = (
{
closed = 1;
nodes = (
"133 466 OFFCURVE",
"164 506 OFFCURVE",
"164 542 CURVE SMOOTH",
"164 570 OFFCURVE",
"146 595 OFFCURVE",
"114 595 CURVE SMOOTH",
"80 595 OFFCURVE",
"55 552 OFFCURVE",
"51 519 CURVE",
"51 488 OFFCURVE",
"66 466 OFFCURVE",
"95 466 CURVE SMOOTH"
);
},
{
closed = 1;
nodes = (
"130 -6 OFFCURVE",
"158 26 OFFCURVE",
"159 56 CURVE SMOOTH",
"159 80 OFFCURVE",
"136 115 OFFCURVE",
"107 115 CURVE SMOOTH",
"75 115 OFFCURVE",
"54 76 OFFCURVE",
"54 49 CURVE SMOOTH",
"54 17 OFFCURVE",
"76 -6 OFFCURVE",
"102 -6 CURVE SMOOTH"
);
}
);
width = 225;
}
);
unicode = 003A;
},
{
glyphname = semicolon;
lastChange = "2019-03-20 23:36:59 +0000";
layers = (
{
layerId = UUID0;
paths = (
{
closed = 1;
nodes = (
"92 -166 OFFCURVE",
"100 -164 OFFCURVE",
"104 -160 CURVE SMOOTH",
"150 -111 OFFCURVE",
"161 -67 OFFCURVE",
"161 6 CURVE SMOOTH",
"161 28 OFFCURVE",
"158 127 OFFCURVE",
"135 127 CURVE SMOOTH",
"98 127 OFFCURVE",
"52 107 OFFCURVE",
"52 102 CURVE SMOOTH",
"52 98 OFFCURVE",
"53 93 OFFCURVE",
"56 85 CURVE SMOOTH",
"65 60 OFFCURVE",
"69 36 OFFCURVE",
"69 12 CURVE SMOOTH",
"69 -25 OFFCURVE",
"59 -58 OFFCURVE",
"39 -92 CURVE SMOOTH",
"32 -104 OFFCURVE",
"23 -116 OFFCURVE",
"23 -130 CURVE SMOOTH",
"23 -145 OFFCURVE",
"66 -166 OFFCURVE",
"87 -166 CURVE SMOOTH"
);
},
{
closed = 1;
nodes = (
"107 405 OFFCURVE",
"129 428 OFFCURVE",
"129 461 CURVE",
"125 490 OFFCURVE",
"115 518 OFFCURVE",
"81 518 CURVE SMOOTH",
"55 518 OFFCURVE",
"34 481 OFFCURVE",
"34 453 CURVE SMOOTH",
"34 426 OFFCURVE",
"51 405 OFFCURVE",
"80 405 CURVE SMOOTH"
);
}
);
width = 175;
}
);
unicode = 003B;
},
{
glyphname = exclam;
lastChange = "2019-03-20 23:36:59 +0000";
layers = (
{
layerId = UUID0;
paths = (
{
closed = 1;
nodes = (
"57 54 OFFCURVE",
"74 55 OFFCURVE",
"98 55 CURVE",
"98 62 OFFCURVE",
"100 66 OFFCURVE",
"100 71 CURVE",
"105 186 OFFCURVE",
"111 301 OFFCURVE",
"115 417 CURVE",
"124 537 OFFCURVE",
"137 658 OFFCURVE",
"147 778 CURVE",
"148 782 OFFCURVE",
"148 786 OFFCURVE",
"148 790 CURVE SMOOTH",
"148 803 LINE",
"116 803 OFFCURVE",
"85 803 OFFCURVE",
"55 803 CURVE",
"54 762 OFFCURVE",
"49 723 OFFCURVE",
"47 681 CURVE SMOOTH",
"40 550 OFFCURVE",
"32 417 OFFCURVE",
"25 285 CURVE SMOOTH",
"21 214 OFFCURVE",
"15 143 OFFCURVE",
"15 73 CURVE SMOOTH",
"15 57 OFFCURVE",
"19 54 OFFCURVE",
"38 54 CURVE SMOOTH"
);
},
{
closed = 1;
nodes = (
"95 -102 OFFCURVE",
"105 -70 OFFCURVE",
"105 -59 CURVE SMOOTH",
"105 -52 LINE SMOOTH",
"105 -22 OFFCURVE",
"79 -5 OFFCURVE",
"42 -5 CURVE SMOOTH",
"21 -5 OFFCURVE",
"10 -19 OFFCURVE",
"10 -44 CURVE SMOOTH",
"10 -72 OFFCURVE",
"31 -102 OFFCURVE",
"66 -102 CURVE SMOOTH"
);
}
);
width = 175;
}
);
unicode = 0021;
},
{
glyphname = question;
lastChange = "2019-03-20 23:36:59 +0000";
layers = (
{
layerId = UUID0;
paths = (
{
closed = 1;
nodes = (
"191 69 OFFCURVE",
"221 69 OFFCURVE",
"235 70 CURVE",
"249 72 OFFCURVE",
"254 78 OFFCURVE",
"255 92 CURVE",
"259 122 OFFCURVE",
"264 152 OFFCURVE",
"267 183 CURVE SMOOTH",
"272 248 OFFCURVE",
"295 307 OFFCURVE",
"331 361 CURVE SMOOTH",
"350 391 OFFCURVE",
"372 419 OFFCURVE",
"392 449 CURVE",
"426 496 OFFCURVE",
"448 548 OFFCURVE",
"447 609 CURVE",
"451 633 OFFCURVE",
"444 657 OFFCURVE",
"437 680 CURVE SMOOTH",
"424 725 OFFCURVE",
"404 764 OFFCURVE",
"362 789 CURVE SMOOTH",
"343 800 OFFCURVE",
"308 804 OFFCURVE",
"288 808 CURVE SMOOTH",
"255 815 OFFCURVE",
"224 810 OFFCURVE",
"194 799 CURVE SMOOTH",
"161 787 OFFCURVE",
"131 769 OFFCURVE",
"102 748 CURVE SMOOTH",
"87 737 OFFCURVE",
"75 722 OFFCURVE",
"62 708 CURVE SMOOTH",
"54 699 OFFCURVE",
"51 686 OFFCURVE",
"59 678 CURVE",
"73 662 OFFCURVE",
"103 633 OFFCURVE",
"119 619 CURVE",
"125 613 OFFCURVE",
"132 616 OFFCURVE",
"137 622 CURVE",
"140 626 OFFCURVE",
"141 630 OFFCURVE",
"144 634 CURVE",
"157 659 OFFCURVE",
"172 676 OFFCURVE",
"198 689 CURVE SMOOTH",
"226 703 OFFCURVE",
"242 717 OFFCURVE",
"275 716 CURVE SMOOTH",
"279 716 OFFCURVE",
"283 714 OFFCURVE",
"287 715 CURVE",
"307 717 OFFCURVE",
"319 705 OFFCURVE",
"328 690 CURVE SMOOTH",
"350 656 OFFCURVE",
"356 629 OFFCURVE",
"353 590 CURVE",
"352 561 OFFCURVE",
"339 540 OFFCURVE",
"321 520 CURVE",
"319 517 OFFCURVE",
"317 515 OFFCURVE",
"314 512 CURVE SMOOTH",
"252 450 OFFCURVE",
"215 373 OFFCURVE",
"195 289 CURVE SMOOTH",
"180 230 OFFCURVE",
"172 169 OFFCURVE",
"162 109 CURVE",
"160 100 OFFCURVE",
"162 90 OFFCURVE",
"163 80 CURVE",
"164 73 OFFCURVE",
"169 69 OFFCURVE",
"176 69 CURVE SMOOTH"
);
},
{
closed = 1;
nodes = (
"224 -118 OFFCURVE",
"245 -101 OFFCURVE",
"250 -74 CURVE SMOOTH",
"255 -44 OFFCURVE",
"233 -18 OFFCURVE",
"198 -16 CURVE SMOOTH",
"169 -15 OFFCURVE",
"148 -35 OFFCURVE",
"148 -65 CURVE SMOOTH",
"148 -93 OFFCURVE",
"169 -115 OFFCURVE",
"200 -117 CURVE SMOOTH"
);
}
);
width = 544;
}
);
unicode = 003F;
},
{
glyphname = bullet;
lastChange = "2019-03-20 23:36:59 +0000";
layers = (
{
layerId = UUID0;
paths = (
{
closed = 1;
nodes = (
"182 269 OFFCURVE",
"213 314 OFFCURVE",
"205 359 CURVE SMOOTH",
"201 384 OFFCURVE",
"185 401 OFFCURVE",
"157 410 CURVE SMOOTH",
"129 418 OFFCURVE",
"104 415 OFFCURVE",
"82 398 CURVE SMOOTH",
"52 376 OFFCURVE",
"35 347 OFFCURVE",
"30 314 CURVE",
"24 262 OFFCURVE",
"77 229 OFFCURVE",
"133 250 CURVE SMOOTH"
);
}
);
width = 295;
}
);
unicode = 2022;
},
{
glyphname = asterisk;
lastChange = "2019-03-20 23:36:59 +0000";
layers = (
{
layerId = UUID0;
paths = (
{
closed = 1;
nodes = (
"172 360 OFFCURVE",
"185 371 OFFCURVE",
"185 391 CURVE",
"197 435 OFFCURVE",
"220 452 OFFCURVE",
"229 494 CURVE",
"229 494 OFFCURVE",
"242 494 OFFCURVE",
"242 504 CURVE",
"242 494 OFFCURVE",
"250 494 OFFCURVE",
"250 494 CURVE",
"280 454 OFFCURVE",
"322 387 OFFCURVE",
"344 387 CURVE SMOOTH",
"351 387 OFFCURVE",
"359 391 OFFCURVE",
"374 399 CURVE",
"396 397 OFFCURVE",
"397 418 OFFCURVE",
"397 427 CURVE",
"385 427 OFFCURVE",
"385 437 OFFCURVE",
"385 437 CURVE",
"351 482 OFFCURVE",
"351 475 OFFCURVE",
"328 521 CURVE",
"316 521 OFFCURVE",
"316 529 OFFCURVE",
"306 540 CURVE",
"337 540 OFFCURVE",
"372 540 OFFCURVE",
"395 548 CURVE",
"398 548 OFFCURVE",
"469 542 OFFCURVE",
"469 565 CURVE SMOOTH",
"469 593 OFFCURVE",
"447 608 OFFCURVE",
"413 608 CURVE",
"392 603 OFFCURVE",
"385 602 OFFCURVE",
"377 602 CURVE SMOOTH",
"369 602 OFFCURVE",
"325 603 OFFCURVE",
"281 603 CURVE",
"306 637 OFFCURVE",
"312 621 OFFCURVE",
"321 666 CURVE",
"335 685 OFFCURVE",
"356 708 OFFCURVE",
"368 737 CURVE",
"368 746 OFFCURVE",
"368 763 OFFCURVE",
"356 763 CURVE SMOOTH",
"346 763 OFFCURVE",
"321 773 OFFCURVE",
"300 773 CURVE",
"292 759 OFFCURVE",
"265 733 OFFCURVE",
"265 718 CURVE",
"243 675 OFFCURVE",
"250 691 OFFCURVE",
"229 656 CURVE",
"181 712 OFFCURVE",
"209 667 OFFCURVE",
"174 712 CURVE",
"160 736 OFFCURVE",
"138 752 OFFCURVE",
"123 752 CURVE SMOOTH",
"121 752 OFFCURVE",
"80 729 OFFCURVE",
"80 720 CURVE SMOOTH",
"80 713 OFFCURVE",
"98 695 OFFCURVE",
"100 693 CURVE",
"140 641 OFFCURVE",
"117 662 OFFCURVE",
"163 608 CURVE",
"163 603 OFFCURVE",
"173 603 OFFCURVE",
"173 594 CURVE",
"153 586 OFFCURVE",
"10 601 OFFCURVE",
"10 555 CURVE SMOOTH",
"10 541 OFFCURVE",
"12 518 OFFCURVE",
"52 518 CURVE",
"96 529 OFFCURVE",
"106 521 OFFCURVE",
"139 529 CURVE",
"173 529 LINE",
"163 521 OFFCURVE",
"163 510 OFFCURVE",
"163 504 CURVE",
"139 475 OFFCURVE",
"141 465 OFFCURVE",
"118 429 CURVE",
"118 419 OFFCURVE",
"118 410 OFFCURVE",
"107 400 CURVE",
"107 382 OFFCURVE",
"108 360 OFFCURVE",
"152 360 CURVE SMOOTH"
);
}
);
width = 505;
}
);
unicode = 002A;
},
{
glyphname = numbersign;
lastChange = "2019-03-20 23:36:59 +0000";
layers = (
{
layerId = UUID0;
paths = (
{
closed = 1;
nodes = (
"537 21 OFFCURVE",
"566 42 OFFCURVE",
"566 56 CURVE SMOOTH",
"566 59 OFFCURVE",
"565 61 OFFCURVE",
"565 65 CURVE",
"557 128 OFFCURVE",
"547 184 OFFCURVE",
"542 254 CURVE",
"669 262 LINE",
"707 262 OFFCURVE",
"712 296 OFFCURVE",
"716 323 CURVE",
"716 341 OFFCURVE",
"711 346 OFFCURVE",
"693 346 CURVE SMOOTH",
"646 346 OFFCURVE",
"600 337 OFFCURVE",
"552 337 CURVE SMOOTH",
"544 337 OFFCURVE",
"536 338 OFFCURVE",
"527 338 CURVE",
"519 397 OFFCURVE",
"513 452 OFFCURVE",
"507 510 CURVE",
"539 515 OFFCURVE",
"678 524 OFFCURVE",
"678 545 CURVE SMOOTH",
"678 551 OFFCURVE",
"676 558 OFFCURVE",
"674 569 CURVE",
"661 600 OFFCURVE",
"665 607 OFFCURVE",
"635 607 CURVE",
"591 600 OFFCURVE",
"543 597 OFFCURVE",
"499 594 CURVE",
"484 643 OFFCURVE",
"491 760 OFFCURVE",
"455 760 CURVE SMOOTH",
"421 760 OFFCURVE",
"397 743 OFFCURVE",
"397 719 CURVE SMOOTH",
"397 680 OFFCURVE",
"403 636 OFFCURVE",
"410 585 CURVE",
"366 580 OFFCURVE",
"327 575 OFFCURVE",
"285 571 CURVE",
"281 588 OFFCURVE",
"281 601 OFFCURVE",
"279 615 CURVE SMOOTH",
"274 656 OFFCURVE",
"284 730 OFFCURVE",
"230 730 CURVE SMOOTH",
"203 730 OFFCURVE",
"186 713 OFFCURVE",
"186 683 CURVE SMOOTH",
"186 644 OFFCURVE",
"196 604 OFFCURVE",
"199 562 CURVE",
"164 558 OFFCURVE",
"7 545 OFFCURVE",
"7 504 CURVE SMOOTH",
"7 481 OFFCURVE",
"31 455 OFFCURVE",
"56 455 CURVE SMOOTH",
"103 455 OFFCURVE",
"158 479 OFFCURVE",
"206 479 CURVE",
"211 431 OFFCURVE",
"218 384 OFFCURVE",
"218 336 CURVE SMOOTH",
"218 319 LINE",
"173 312 OFFCURVE",
"131 305 OFFCURVE",
"91 302 CURVE SMOOTH",
"70 300 OFFCURVE",
"59 287 OFFCURVE",
"59 261 CURVE SMOOTH",
"59 238 OFFCURVE",
"75 224 OFFCURVE",
"103 224 CURVE SMOOTH",
"142 224 OFFCURVE",
"182 231 OFFCURVE",
"225 233 CURVE",
"229 174 OFFCURVE",
"235 121 OFFCURVE",
"239 62 CURVE",
"239 47 OFFCURVE",
"240 26 OFFCURVE",
"257 26 CURVE SMOOTH",
"259 26 OFFCURVE",
"261 26 OFFCURVE",
"263 27 CURVE",
"296 38 OFFCURVE",
"329 37 OFFCURVE",
"329 59 CURVE SMOOTH",
"329 62 OFFCURVE",
"328 66 OFFCURVE",
"328 70 CURVE",
"320 126 OFFCURVE",
"315 181 OFFCURVE",
"315 237 CURVE",
"360 240 OFFCURVE",
"404 244 OFFCURVE",
"448 247 CURVE",
"460 198 OFFCURVE",
"463 145 OFFCURVE",
"469 95 CURVE SMOOTH",
"472 67 OFFCURVE",
"470 21 OFFCURVE",
"489 21 CURVE SMOOTH"
);
},
{
closed = 1;
nodes = (
"299 383 OFFCURVE",
"292 437 OFFCURVE",
"287 493 CURVE",
"332 498 OFFCURVE",
"375 503 OFFCURVE",
"421 504 CURVE",
"427 447 OFFCURVE",
"434 395 OFFCURVE",
"442 338 CURVE",
"395 336 OFFCURVE",
"351 333 OFFCURVE",
"304 330 CURVE"
);
}
);
width = 755;
}
);
unicode = 0023;
},
{
glyphname = slash;
lastChange = "2019-03-20 23:36:59 +0000";
layers = (
{
layerId = UUID0;
paths = (
{
closed = 1;
nodes = (
"104 -118 OFFCURVE",
"107 -111 OFFCURVE",
"116 -80 CURVE SMOOTH",
"149 34 OFFCURVE",
"179 152 OFFCURVE",
"224 261 CURVE SMOOTH",
"237 292 OFFCURVE",
"249 327 OFFCURVE",
"260 359 CURVE",
"292 472 OFFCURVE",
"333 578 OFFCURVE",
"374 685 CURVE SMOOTH",
"383 709 OFFCURVE",
"395 737 OFFCURVE",
"395 758 CURVE SMOOTH",
"395 782 OFFCURVE",
"381 795 OFFCURVE",
"357 797 CURVE",
"352 797 LINE SMOOTH",
"339 797 OFFCURVE",
"328 790 OFFCURVE",
"321 774 CURVE SMOOTH",
"202 508 OFFCURVE",
"111 216 OFFCURVE",
"16 -65 CURVE SMOOTH",
"13 -73 OFFCURVE",
"12 -80 OFFCURVE",
"12 -86 CURVE SMOOTH",
"12 -118 OFFCURVE",
"60 -118 OFFCURVE",
"85 -118 CURVE SMOOTH"
);
}
);
width = 420;
}
);
unicode = 002F;
},
{
glyphname = backslash;
lastChange = "2019-03-20 23:36:59 +0000";
layers = (
{
layerId = UUID0;
paths = (
{
closed = 1;
nodes = (
"345 -115 OFFCURVE",
"358 -115 OFFCURVE",
"368 -113 CURVE",
"393 -111 OFFCURVE",
"401 -95 OFFCURVE",
"392 -65 CURVE",
"374 -12 OFFCURVE",
"357 43 OFFCURVE",
"336 97 CURVE",
"291 229 OFFCURVE",
"245 359 OFFCURVE",
"200 490 CURVE SMOOTH",
"172 567 OFFCURVE",
"143 643 OFFCURVE",
"113 719 CURVE SMOOTH",
"106 738 OFFCURVE",
"96 754 OFFCURVE",
"87 774 CURVE SMOOTH",
"79 792 OFFCURVE",
"66 799 OFFCURVE",
"51 797 CURVE",
"20 794 OFFCURVE",
"7 774 OFFCURVE",
"16 738 CURVE SMOOTH",
"21 720 OFFCURVE",
"27 703 OFFCURVE",
"34 685 CURVE SMOOTH",
"75 578 OFFCURVE",
"116 472 OFFCURVE",
"148 359 CURVE",
"159 327 OFFCURVE",
"170 292 OFFCURVE",
"184 261 CURVE",
"228 151 OFFCURVE",
"259 34 OFFCURVE",
"292 -80 CURVE SMOOTH",
"302 -117 OFFCURVE",
"306 -119 OFFCURVE",
"335 -117 CURVE"
);
}
);
width = 422;
}
);
unicode = 005C;
},
{
glyphname = parenleft;
lastChange = "2019-03-20 23:36:59 +0000";
layers = (
{
layerId = UUID0;
paths = (
{
closed = 1;
nodes = (
"230 -191 OFFCURVE",
"249 -134 OFFCURVE",
"249 -108 CURVE SMOOTH",
"249 -95 OFFCURVE",
"247 -81 OFFCURVE",
"238 -73 CURVE SMOOTH",
"212 -51 OFFCURVE",
"196 -24 OFFCURVE",
"185 2 CURVE SMOOTH",
"148 91 OFFCURVE",
"125 183 OFFCURVE",
"125 279 CURVE SMOOTH",
"125 415 OFFCURVE",
"138 514 OFFCURVE",
"179 629 CURVE SMOOTH",
"193 668 OFFCURVE",
"234 723 OFFCURVE",
"234 744 CURVE SMOOTH",
"234 758 OFFCURVE",
"187 787 OFFCURVE",
"156 787 CURVE SMOOTH",
"120 787 OFFCURVE",
"64 637 OFFCURVE",
"46 574 CURVE",
"23 504 OFFCURVE",
"22 434 OFFCURVE",
"18 364 CURVE SMOOTH",
"17 350 OFFCURVE",
"17 337 OFFCURVE",
"17 323 CURVE SMOOTH",
"17 249 OFFCURVE",
"26 177 OFFCURVE",
"46 105 CURVE",
"58 49 OFFCURVE",
"71 -6 OFFCURVE",
"96 -58 CURVE SMOOTH",
"122 -112 OFFCURVE",
"171 -191 OFFCURVE",
"213 -191 CURVE SMOOTH"
);
}
);
width = 268;
}
);
unicode = 0028;
},
{
glyphname = parenright;
lastChange = "2019-03-20 23:36:59 +0000";
layers = (
{
layerId = UUID0;
paths = (
{
closed = 1;
nodes = (
"85 -187 OFFCURVE",
"102 -182 OFFCURVE",
"111 -170 CURVE SMOOTH",
"200 -58 OFFCURVE",
"226 75 OFFCURVE",
"226 213 CURVE SMOOTH",
"226 288 LINE SMOOTH",
"226 411 OFFCURVE",
"212 534 OFFCURVE",
"178 654 CURVE SMOOTH",
"165 699 OFFCURVE",
"136 796 OFFCURVE",
"111 796 CURVE SMOOTH",
"77 796 OFFCURVE",
"26 751 OFFCURVE",
"26 724 CURVE SMOOTH",
"26 714 OFFCURVE",
"28 705 OFFCURVE",
"31 695 CURVE SMOOTH",
"53 627 OFFCURVE",
"83 562 OFFCURVE",
"98 494 CURVE SMOOTH",
"114 423 OFFCURVE",
"121 350 OFFCURVE",
"121 279 CURVE SMOOTH",
"121 154 OFFCURVE",
"106 0 OFFCURVE",
"18 -109 CURVE SMOOTH",
"13 -115 OFFCURVE",
"11 -124 OFFCURVE",
"11 -132 CURVE SMOOTH",
"11 -157 OFFCURVE",
"41 -187 OFFCURVE",
"70 -187 CURVE SMOOTH"
);
}
);
width = 246;
}
);
unicode = 0029;
},
{
glyphname = bracketleft;
lastChange = "2019-03-20 23:36:59 +0000";
layers = (
{
layerId = UUID0;
paths = (
{
closed = 1;
nodes = (
"61 -162 LINE SMOOTH",
"117 -162 OFFCURVE",
"167 -157 OFFCURVE",
"223 -157 CURVE",
"288 -152 OFFCURVE",
"283 -132 OFFCURVE",
"268 -87 CURVE",
"263 -66 OFFCURVE",
"258 -61 OFFCURVE",
"238 -61 CURVE SMOOTH",
"122 -61 LINE SMOOTH",
"117 -61 OFFCURVE",
"112 -61 OFFCURVE",
"102 -61 CURVE",
"102 -46 OFFCURVE",
"107 -36 OFFCURVE",
"107 -21 CURVE",
"112 100 OFFCURVE",
"117 226 OFFCURVE",
"127 352 CURVE",
"127 392 OFFCURVE",
"127 437 OFFCURVE",
"132 478 CURVE SMOOTH",
"142 558 OFFCURVE",
"152 634 OFFCURVE",
"147 709 CURVE",
"147 724 LINE",
"152 729 OFFCURVE",
"162 729 OFFCURVE",
"167 729 CURVE SMOOTH",
"202 729 OFFCURVE",
"233 729 OFFCURVE",
"268 734 CURVE",
"288 734 OFFCURVE",
"293 739 OFFCURVE",
"298 760 CURVE",
"298 770 LINE",
"303 805 OFFCURVE",
"293 815 OFFCURVE",
"263 815 CURVE SMOOTH",
"213 815 OFFCURVE",
"162 815 OFFCURVE",
"117 810 CURVE",
"61 810 OFFCURVE",
"56 805 OFFCURVE",
"61 750 CURVE",
"66 563 OFFCURVE",
"46 372 OFFCURVE",
"36 185 CURVE",
"6 -122 LINE",
"6 -157 OFFCURVE",
"11 -162 OFFCURVE",
"41 -162 CURVE SMOOTH"
);
}
);
width = 331;
}
);
unicode = 005B;
},
{
glyphname = bracketright;
lastChange = "2019-03-20 23:36:59 +0000";
layers = (
{
layerId = UUID0;
paths = (
{
closed = 1;
nodes = (
"100 -167 OFFCURVE",
"141 -167 OFFCURVE",
"181 -167 CURVE SMOOTH",
"211 -167 OFFCURVE",
"247 -162 OFFCURVE",
"282 -162 CURVE",
"297 -157 OFFCURVE",
"302 -157 OFFCURVE",
"302 -137 CURVE SMOOTH",
"302 -117 LINE SMOOTH",
"302 49 OFFCURVE",
"302 216 OFFCURVE",
"302 382 CURVE SMOOTH",
"302 432 LINE",
"307 488 OFFCURVE",
"312 543 OFFCURVE",
"312 598 CURVE SMOOTH",
"312 664 OFFCURVE",
"312 724 OFFCURVE",
"317 785 CURVE",
"317 800 OFFCURVE",
"312 805 OFFCURVE",
"297 805 CURVE SMOOTH",
"277 805 LINE SMOOTH",
"226 805 OFFCURVE",
"176 805 OFFCURVE",
"126 805 CURVE SMOOTH",
"50 805 LINE SMOOTH",
"35 805 OFFCURVE",
"15 790 OFFCURVE",
"15 770 CURVE SMOOTH",
"15 755 OFFCURVE",
"15 739 OFFCURVE",
"20 719 CURVE",
"25 704 OFFCURVE",
"30 699 OFFCURVE",
"45 699 CURVE SMOOTH",
"75 699 OFFCURVE",
"100 704 OFFCURVE",
"131 704 CURVE SMOOTH",
"226 704 LINE",
"226 699 OFFCURVE",
"231 694 OFFCURVE",
"231 689 CURVE",
"226 619 OFFCURVE",
"226 553 OFFCURVE",
"221 488 CURVE",
"221 402 OFFCURVE",
"216 311 OFFCURVE",
"211 226 CURVE",
"211 -46 LINE SMOOTH",
"211 -56 OFFCURVE",
"211 -61 OFFCURVE",
"211 -66 CURVE",
"206 -72 OFFCURVE",
"201 -72 OFFCURVE",
"201 -72 CURVE",
"146 -72 OFFCURVE",
"95 -77 OFFCURVE",
"45 -77 CURVE SMOOTH",
"20 -77 OFFCURVE",
"20 -77 OFFCURVE",
"20 -102 CURVE SMOOTH",
"20 -117 OFFCURVE",
"25 -132 OFFCURVE",
"25 -147 CURVE",
"30 -167 OFFCURVE",
"35 -172 OFFCURVE",
"55 -172 CURVE"
);
}
);
width = 341;
}
);
unicode = 005D;
},
{
glyphname = hyphen;
lastChange = "2019-03-20 23:36:59 +0000";
layers = (
{
layerId = UUID0;
paths = (
{
closed = 1;
nodes = (
"60 245 OFFCURVE",
"66 244 OFFCURVE",
"73 244 CURVE",
"71 245 LINE",
"155 253 OFFCURVE",
"238 260 OFFCURVE",
"321 268 CURVE SMOOTH",
"342 270 OFFCURVE",
"345 277 OFFCURVE",
"341 305 CURVE SMOOTH",
"332 367 OFFCURVE",
"329 368 OFFCURVE",
"283 361 CURVE SMOOTH",
"219 352 OFFCURVE",
"154 343 OFFCURVE",
"90 335 CURVE",
"75 332 OFFCURVE",
"58 334 OFFCURVE",
"43 331 CURVE",
"23 330 OFFCURVE",
"18 319 OFFCURVE",
"18 292 CURVE SMOOTH",
"18 267 OFFCURVE",
"33 240 OFFCURVE",
"54 244 CURVE SMOOTH"
);
}
);
width = 375;
}
);
unicode = 002D;
},
{
glyphname = endash;
lastChange = "2019-03-20 23:36:59 +0000";
layers = (
{
layerId = UUID0;
paths = (
{
closed = 1;
nodes = (
"41 264 OFFCURVE",
"48 263 OFFCURVE",
"53 263 CURVE SMOOTH",
"87 262 OFFCURVE",
"120 262 OFFCURVE",
"155 263 CURVE SMOOTH",
"286 264 OFFCURVE",
"258 267 OFFCURVE",
"390 269 CURVE SMOOTH",
"459 270 OFFCURVE",
"438 270 OFFCURVE",
"506 273 CURVE SMOOTH",
"530 274 OFFCURVE",
"532 277 OFFCURVE",
"529 306 CURVE",
"528 322 OFFCURVE",
"526 338 OFFCURVE",
"525 358 CURVE",
"518 357 OFFCURVE",
"514 359 OFFCURVE",
"509 358 CURVE",
"382 355 OFFCURVE",
"342 351 OFFCURVE",
"214 351 CURVE SMOOTH",
"106 352 OFFCURVE",
"158 355 OFFCURVE",
"51 356 CURVE",
"43 358 OFFCURVE",
"36 356 OFFCURVE",
"26 356 CURVE",
"32 263 LINE"
);
}
);
width = 585;
}
);
unicode = 2013;
},
{
glyphname = emdash;
lastChange = "2019-03-20 23:36:59 +0000";
layers = (
{
layerId = UUID0;
paths = (
{
closed = 1;
nodes = (
"41 264 OFFCURVE",
"48 263 OFFCURVE",
"53 263 CURVE SMOOTH",
"87 262 OFFCURVE",
"120 262 OFFCURVE",
"155 263 CURVE SMOOTH",
"286 264 OFFCURVE",
"467 269 OFFCURVE",
"599 271 CURVE SMOOTH",
"668 272 OFFCURVE",
"647 272 OFFCURVE",
"715 275 CURVE SMOOTH",
"739 276 OFFCURVE",
"741 279 OFFCURVE",
"738 308 CURVE",
"737 324 OFFCURVE",
"735 340 OFFCURVE",
"734 360 CURVE",
"727 359 OFFCURVE",
"723 361 OFFCURVE",
"718 360 CURVE",
"591 357 OFFCURVE",
"342 351 OFFCURVE",
"214 351 CURVE SMOOTH",
"106 352 OFFCURVE",
"158 355 OFFCURVE",
"51 356 CURVE",
"43 358 OFFCURVE",
"36 356 OFFCURVE",
"26 356 CURVE",
"32 263 LINE"
);
}
);
width = 788;
}
);
unicode = 2014;
},
{
glyphname = underscore;
lastChange = "2019-03-20 23:36:59 +0000";
layers = (
{
layerId = UUID0;
paths = (
{
closed = 1;
nodes = (
"53 -154 OFFCURVE",
"59 -155 OFFCURVE",
"66 -155 CURVE",
"64 -154 LINE",
"148 -146 OFFCURVE",
"500 -138 OFFCURVE",
"583 -130 CURVE SMOOTH",
"604 -128 OFFCURVE",
"614 -105 OFFCURVE",
"610 -77 CURVE SMOOTH",
"601 -15 OFFCURVE",
"598 -14 OFFCURVE",
"552 -21 CURVE SMOOTH",
"488 -30 OFFCURVE",
"154 -40 OFFCURVE",
"90 -48 CURVE",
"75 -51 OFFCURVE",
"58 -49 OFFCURVE",
"43 -52 CURVE",
"23 -53 OFFCURVE",
"11 -80 OFFCURVE",
"11 -107 CURVE SMOOTH",
"11 -132 OFFCURVE",
"26 -159 OFFCURVE",
"47 -155 CURVE SMOOTH"
);
}
);
width = 634;
}
);
unicode = 005F;
},
{
glyphname = quotedblleft;
lastChange = "2019-03-20 23:36:59 +0000";
layers = (
{
layerId = UUID0;
paths = (
{
closed = 1;
nodes = (
"221 585 OFFCURVE",
"250 583 OFFCURVE",
"250 598 CURVE SMOOTH",
"250 601 OFFCURVE",
"249 604 OFFCURVE",
"248 607 CURVE",
"233 637 OFFCURVE",
"193 802 OFFCURVE",
"178 802 CURVE SMOOTH",
"160 802 OFFCURVE",
"119 776 OFFCURVE",
"119 769 CURVE SMOOTH",
"119 765 OFFCURVE",
"121 762 OFFCURVE",
"124 758 CURVE",
"143 739 OFFCURVE",
"158 674 OFFCURVE",
"170 638 CURVE SMOOTH",
"177 616 OFFCURVE",
"181 582 OFFCURVE",
"205 582 CURVE"
);
},
{
closed = 1;
nodes = (
"106 570 OFFCURVE",
"128 576 OFFCURVE",
"128 587 CURVE SMOOTH",
"128 603 OFFCURVE",
"110 643 OFFCURVE",
"103 666 CURVE SMOOTH",
"94 697 OFFCURVE",
"77 780 OFFCURVE",
"60 780 CURVE SMOOTH",
"56 780 OFFCURVE",
"52 780 OFFCURVE",
"46 779 CURVE",
"23 779 OFFCURVE",
"5 775 OFFCURVE",
"5 762 CURVE SMOOTH",
"5 756 OFFCURVE",
"11 745 OFFCURVE",
"14 735 CURVE SMOOTH",
"29 684 OFFCURVE",
"44 633 OFFCURVE",
"60 582 CURVE",
"62 574 OFFCURVE",
"67 570 OFFCURVE",
"75 570 CURVE SMOOTH"
);
}
);
width = 277;
}
);
unicode = 201C;
},
{
glyphname = quotedblright;
lastChange = "2019-03-20 23:36:59 +0000";
layers = (
{
layerId = UUID0;
paths = (
{
closed = 1;
nodes = (
"200 553 OFFCURVE",
"207 558 OFFCURVE",
"209 574 CURVE SMOOTH",
"213 613 OFFCURVE",
"218 652 OFFCURVE",
"223 690 CURVE SMOOTH",
"227 718 OFFCURVE",
"232 746 OFFCURVE",
"237 774 CURVE SMOOTH",
"240 788 OFFCURVE",
"235 795 OFFCURVE",
"218 795 CURVE",
"200 792 LINE SMOOTH",
"182 789 OFFCURVE",
"178 786 OFFCURVE",
"176 770 CURVE SMOOTH",
"171 733 OFFCURVE",
"166 695 OFFCURVE",
"160 658 CURVE SMOOTH",
"155 629 OFFCURVE",
"148 600 OFFCURVE",
"142 571 CURVE",
"141 565 OFFCURVE",
"144 560 OFFCURVE",
"153 559 CURVE SMOOTH",
"163 558 OFFCURVE",
"173 557 OFFCURVE",
"182 555 CURVE"
);
},
{
closed = 1;
nodes = (
"61 585 LINE SMOOTH",
"74 585 OFFCURVE",
"78 589 OFFCURVE",
"81 601 CURVE SMOOTH",
"94 648 OFFCURVE",
"101 694 OFFCURVE",
"109 739 CURVE SMOOTH",
"112 756 OFFCURVE",
"119 777 OFFCURVE",
"119 795 CURVE SMOOTH",
"119 809 OFFCURVE",
"92 805 OFFCURVE",
"76 805 CURVE SMOOTH",
"70 805 LINE SMOOTH",
"56 805 OFFCURVE",
"50 799 OFFCURVE",
"50 785 CURVE SMOOTH",
"50 770 LINE SMOOTH",
"50 768 OFFCURVE",
"50 766 OFFCURVE",
"50 764 CURVE",
"40 709 OFFCURVE",
"29 658 OFFCURVE",
"18 603 CURVE",
"18 596 LINE SMOOTH",
"18 586 OFFCURVE",
"36 585 OFFCURVE",
"50 585 CURVE SMOOTH"
);
}
);
width = 258;
}
);
unicode = 201D;
},
{
glyphname = quoteleft;
lastChange = "2019-03-20 23:36:59 +0000";
layers = (
{
layerId = UUID0;
paths = (
{
closed = 1;
nodes = (
"114 585 OFFCURVE",
"143 583 OFFCURVE",
"143 598 CURVE SMOOTH",
"143 601 OFFCURVE",
"142 604 OFFCURVE",
"141 607 CURVE",
"126 637 OFFCURVE",
"86 802 OFFCURVE",
"71 802 CURVE SMOOTH",
"53 802 OFFCURVE",
"12 776 OFFCURVE",
"12 769 CURVE SMOOTH",
"12 765 OFFCURVE",
"14 762 OFFCURVE",
"17 758 CURVE",
"36 739 OFFCURVE",
"51 674 OFFCURVE",
"63 638 CURVE SMOOTH",
"70 616 OFFCURVE",
"74 582 OFFCURVE",
"98 582 CURVE"
);
}
);
width = 156;
}
);
unicode = 2018;
},
{
glyphname = quoteright;
lastChange = "2019-03-20 23:36:59 +0000";
layers = (
{
layerId = UUID0;
paths = (
{
closed = 1;
nodes = (
"74 584 OFFCURVE",
"78 589 OFFCURVE",
"81 601 CURVE SMOOTH",
"94 648 OFFCURVE",
"101 694 OFFCURVE",
"109 739 CURVE SMOOTH",
"112 756 OFFCURVE",
"119 777 OFFCURVE",
"119 795 CURVE SMOOTH",
"119 809 OFFCURVE",
"92 805 OFFCURVE",
"76 805 CURVE SMOOTH",
"70 805 LINE SMOOTH",
"56 805 OFFCURVE",
"50 799 OFFCURVE",
"50 785 CURVE SMOOTH",
"50 770 LINE SMOOTH",
"50 768 OFFCURVE",
"50 766 OFFCURVE",
"50 764 CURVE",
"40 709 OFFCURVE",
"29 654 OFFCURVE",
"18 599 CURVE",
"18 596 LINE SMOOTH",
"18 583 OFFCURVE",
"48 585 OFFCURVE",
"61 585 CURVE"
);
}
);
width = 133;
}
);
unicode = 2019;
},
{
glyphname = quotedbl;
lastChange = "2019-03-20 23:36:59 +0000";
layers = (
{
layerId = UUID0;
paths = (
{
closed = 1;
nodes = (
"210 562 OFFCURVE",
"226 562 OFFCURVE",
"226 586 CURVE",
"224 625 OFFCURVE",
"220 664 OFFCURVE",
"220 703 CURVE SMOOTH",
"220 734 OFFCURVE",
"228 806 OFFCURVE",
"206 806 CURVE SMOOTH",
"203 806 OFFCURVE",
"201 805 OFFCURVE",
"198 805 CURVE",
"169 799 OFFCURVE",
"161 791 OFFCURVE",
"161 779 CURVE SMOOTH",
"161 739 OFFCURVE",
"163 699 OFFCURVE",
"163 661 CURVE SMOOTH",
"163 631 OFFCURVE",
"161 601 OFFCURVE",
"160 572 CURVE SMOOTH",
"160 566 OFFCURVE",
"163 562 OFFCURVE",
"171 562 CURVE SMOOTH"
);
},
{
closed = 1;
nodes = (
"55 568 OFFCURVE",
"61 569 OFFCURVE",
"67 570 CURVE SMOOTH",
"78 572 LINE SMOOTH",
"91 574 OFFCURVE",
"94 579 OFFCURVE",
"95 591 CURVE SMOOTH",
"101 653 OFFCURVE",
"101 711 OFFCURVE",
"101 770 CURVE SMOOTH",
"101 782 OFFCURVE",
"103 797 OFFCURVE",
"87 797 CURVE SMOOTH",
"78 797 OFFCURVE",
"65 793 OFFCURVE",
"56 792 CURVE",
"41 784 OFFCURVE",
"33 789 OFFCURVE",
"33 773 CURVE SMOOTH",
"33 765 OFFCURVE",
"37 755 OFFCURVE",
"37 747 CURVE SMOOTH",
"37 691 OFFCURVE",
"34 639 OFFCURVE",
"33 583 CURVE",
"34 576 LINE",
"34 570 OFFCURVE",
"41 568 OFFCURVE",
"49 568 CURVE SMOOTH"
);
}
);
width = 260;
}
);
unicode = 0022;
},
{
glyphname = quotesingle;
lastChange = "2019-03-20 23:36:59 +0000";
layers = (
{
layerId = UUID0;
paths = (
{
closed = 1;
nodes = (
"78 572 LINE SMOOTH",
"91 574 OFFCURVE",
"94 579 OFFCURVE",
"95 591 CURVE SMOOTH",
"100 640 OFFCURVE",
"99 686 OFFCURVE",
"100 732 CURVE SMOOTH",
"100 749 OFFCURVE",
"103 771 OFFCURVE",
"100 789 CURVE SMOOTH",
"98 803 OFFCURVE",
"72 794 OFFCURVE",
"56 792 CURVE",
"54 791 OFFCURVE",
"52 791 OFFCURVE",
"50 791 CURVE",
"37 788 OFFCURVE",
"32 781 OFFCURVE",
"34 768 CURVE",
"35 763 OFFCURVE",
"36 758 OFFCURVE",
"36 753 CURVE",
"37 751 OFFCURVE",
"37 749 OFFCURVE",
"37 747 CURVE SMOOTH",
"37 691 OFFCURVE",
"34 639 OFFCURVE",
"33 583 CURVE",
"34 576 LINE",
"35 566 OFFCURVE",
"53 568 OFFCURVE",
"67 570 CURVE"
);
}
);
width = 127;
}
);
unicode = 0027;
},
{
glyphname = .notdef;
lastChange = "2019-03-20 22:37:05 +0000";
layers = (
{
hints = (
{
place = "{50, 50}";
type = Stem;
},
{
place = "{400, 50}";
type = Stem;
},
{
horizontal = 1;
place = "{0, 50}";
type = Stem;
},
{
horizontal = 1;
place = "{483, 50}";
type = Stem;
}
);
layerId = UUID0;
paths = (
{
closed = 1;
nodes = (
"450 0 LINE",
"450 533 LINE",
"50 533 LINE",
"50 0 LINE"
);
},
{
closed = 1;
nodes = (
"100 483 LINE",
"400 483 LINE",
"400 50 LINE",
"100 50 LINE"
);
}
);
width = 500;
}
);
},
{
glyphname = dollar;
lastChange = "2019-03-20 23:36:59 +0000";
layers = (
{
hints = (
{
place = "{42, 85}";
type = Stem;
}
);
layerId = UUID0;
paths = (
{
closed = 1;
nodes = (
"200 -68 OFFCURVE",
"220 -61 OFFCURVE",
"242 -58 CURVE",
"242 -19 OFFCURVE",
"244 18 OFFCURVE",
"245 55 CURVE",
"317 55 OFFCURVE",
"397 93 OFFCURVE",
"397 184 CURVE SMOOTH",
"397 198 OFFCURVE",
"391 211 OFFCURVE",
"391 220 CURVE",
"387 231 LINE SMOOTH",
"360 301 OFFCURVE",
"310 357 OFFCURVE",
"253 409 CURVE",
"256 479 OFFCURVE",
"260 550 OFFCURVE",
"264 620 CURVE",
"270 616 LINE",
"299 593 OFFCURVE",
"329 545 OFFCURVE",
"335 545 CURVE SMOOTH",
"348 545 OFFCURVE",
"384 579 OFFCURVE",
"384 584 CURVE SMOOTH",
"384 587 OFFCURVE",
"382 590 OFFCURVE",
"379 594 CURVE",
"379 595 LINE",
"378 598 OFFCURVE",
"373 602 OFFCURVE",
"370 606 CURVE",
"344 645 OFFCURVE",
"308 678 OFFCURVE",
"268 698 CURVE",
"269 727 OFFCURVE",
"272 758 OFFCURVE",
"272 787 CURVE SMOOTH",
"272 796 OFFCURVE",
"263 799 OFFCURVE",
"200 799 CURVE",
"200 790 OFFCURVE",
"199 781 OFFCURVE",
"199 775 CURVE",
"196 720 LINE",
"193 720 OFFCURVE",
"184 722 OFFCURVE",
"179 722 CURVE",
"91 717 OFFCURVE",
"26 659 OFFCURVE",
"26 577 CURVE SMOOTH",
"26 509 OFFCURVE",
"90 431 OFFCURVE",
"163 390 CURVE",
"179 376 LINE",
"182 373 OFFCURVE",
"184 370 OFFCURVE",
"187 368 CURVE",
"183 196 LINE",
"182 186 OFFCURVE",
"182 176 OFFCURVE",
"182 166 CURVE",
"130 217 OFFCURVE",
"99 295 OFFCURVE",
"75 295 CURVE SMOOTH",
"70 295 OFFCURVE",
"64 293 OFFCURVE",
"55 289 CURVE",
"37 282 LINE SMOOTH",
"23 276 OFFCURVE",
"16 271 OFFCURVE",
"16 264 CURVE SMOOTH",
"16 259 OFFCURVE",
"18 254 OFFCURVE",
"23 246 CURVE",
"40 216 OFFCURVE",
"31 217 OFFCURVE",
"52 185 CURVE SMOOTH",
"83 138 OFFCURVE",
"137 84 OFFCURVE",
"179 69 CURVE",
"178 29 OFFCURVE",
"178 -10 OFFCURVE",
"178 -50 CURVE SMOOTH",
"178 -64 OFFCURVE",
"180 -68 OFFCURVE",
"188 -68 CURVE SMOOTH"
);
},
{
closed = 1;
nodes = (
"248 189 OFFCURVE",
"250 238 OFFCURVE",
"250 288 CURVE",
"267 261 OFFCURVE",
"281 232 OFFCURVE",
"293 203 CURVE",
"295 196 OFFCURVE",
"296 188 OFFCURVE",
"296 181 CURVE SMOOTH",
"296 152 OFFCURVE",
"287 140 OFFCURVE",
"263 140 CURVE SMOOTH",
"247 140 LINE"
);
},
{
closed = 1;
nodes = (
"176 483 OFFCURVE",
"161 497 OFFCURVE",
"147 512 CURVE SMOOTH",
"129 531 OFFCURVE",
"124 552 OFFCURVE",
"124 574 CURVE SMOOTH",
"124 614 OFFCURVE",
"149 646 OFFCURVE",
"196 646 CURVE",
"190 469 LINE"
);
}
);
width = 416;
}
);
unicode = 0024;
},
{
glyphname = plus;
lastChange = "2019-03-20 23:36:59 +0000";
layers = (
{
layerId = UUID0;
paths = (
{
closed = 1;
nodes = (
"224 73 OFFCURVE",
"229 74 OFFCURVE",
"237 75 CURVE",
"288 84 LINE",
"288 88 LINE SMOOTH",
"288 91 OFFCURVE",
"288 94 OFFCURVE",
"288 97 CURVE SMOOTH",
"288 100 LINE",
"282 156 OFFCURVE",
"275 209 OFFCURVE",
"269 261 CURVE",
"321 265 OFFCURVE",
"371 269 OFFCURVE",
"406 273 CURVE SMOOTH",
"422 275 OFFCURVE",
"427 279 OFFCURVE",
"427 293 CURVE SMOOTH",
"427 354 OFFCURVE",
"412 369 OFFCURVE",
"394 369 CURVE SMOOTH",
"376 369 OFFCURVE",
"320 359 OFFCURVE",
"258 353 CURVE",
"254 399 OFFCURVE",
"251 444 OFFCURVE",
"251 491 CURVE SMOOTH",
"251 496 LINE SMOOTH",
"251 502 OFFCURVE",
"250 508 OFFCURVE",
"248 516 CURVE",
"216 512 OFFCURVE",
"186 507 OFFCURVE",
"156 502 CURVE",
"158 482 LINE SMOOTH",
"163 426 OFFCURVE",
"166 463 OFFCURVE",
"177 345 CURVE",
"90 335 LINE",
"54 328 OFFCURVE",
"18 345 OFFCURVE",
"18 292 CURVE SMOOTH",
"18 269 OFFCURVE",
"31 243 OFFCURVE",
"50 243 CURVE SMOOTH",
"53 243 OFFCURVE",
"57 244 OFFCURVE",
"60 244 CURVE SMOOTH",
"73 244 LINE",
"71 245 LINE",
"186 255 LINE",
"190 201 OFFCURVE",
"196 149 OFFCURVE",
"202 97 CURVE SMOOTH",
"204 79 OFFCURVE",
"207 73 OFFCURVE",
"219 73 CURVE SMOOTH"
);
}
);
width = 441;
}
);
unicode = 002B;
},
{
glyphname = equal;
lastChange = "2019-03-20 23:36:59 +0000";
layers = (
{
layerId = UUID0;
paths = (
{
closed = 1;
nodes = (
"59 243 LINE SMOOTH",
"79 243 OFFCURVE",
"104 247 OFFCURVE",
"321 268 CURVE SMOOTH",
"337 270 OFFCURVE",
"342 273 OFFCURVE",
"342 288 CURVE SMOOTH",
"342 349 OFFCURVE",
"327 364 OFFCURVE",
"309 364 CURVE SMOOTH",
"303 364 OFFCURVE",
"294 363 OFFCURVE",
"283 361 CURVE",
"219 352 OFFCURVE",
"154 343 OFFCURVE",
"90 335 CURVE",
"54 328 OFFCURVE",
"18 345 OFFCURVE",
"18 292 CURVE SMOOTH",
"18 269 OFFCURVE",
"31 243 OFFCURVE",
"50 243 CURVE SMOOTH"
);
},
{
closed = 1;
nodes = (
"48 417 OFFCURVE",
"63 417 OFFCURVE",
"66 419 CURVE",
"150 427 OFFCURVE",
"229 420 OFFCURVE",
"312 428 CURVE SMOOTH",
"332 430 OFFCURVE",
"332 437 OFFCURVE",
"332 465 CURVE SMOOTH",
"332 504 OFFCURVE",
"325 521 OFFCURVE",
"294 521 CURVE SMOOTH",
"258 521 OFFCURVE",
"232 515 OFFCURVE",
"210 515 CURVE SMOOTH",
"202 515 OFFCURVE",
"195 516 OFFCURVE",
"187 516 CURVE",
"169 515 OFFCURVE",
"150 516 OFFCURVE",
"125 512 CURVE SMOOTH",
"110 510 OFFCURVE",
"13 514 OFFCURVE",
"13 466 CURVE SMOOTH",
"13 443 OFFCURVE",
"26 417 OFFCURVE",
"45 417 CURVE SMOOTH"
);
}
);
width = 377;
}
);
unicode = 003D;
},
{
glyphname = percent;
lastChange = "2019-03-20 23:36:59 +0000";
layers = (
{
layerId = UUID0;
paths = (
{
closed = 1;
nodes = (
"155 8 OFFCURVE",
"158 13 OFFCURVE",
"165 35 CURVE SMOOTH",
"191 118 OFFCURVE",
"214 203 OFFCURVE",
"249 282 CURVE SMOOTH",
"259 305 OFFCURVE",
"269 330 OFFCURVE",
"277 354 CURVE SMOOTH",
"302 435 OFFCURVE",
"334 512 OFFCURVE",
"366 589 CURVE SMOOTH",
"373 606 OFFCURVE",
"382 628 OFFCURVE",
"382 643 CURVE SMOOTH",
"382 659 OFFCURVE",
"372 669 OFFCURVE",
"352 670 CURVE",
"347 670 LINE SMOOTH",
"329 670 OFFCURVE",
"313 636 OFFCURVE",
"304 614 CURVE SMOOTH",
"227 430 OFFCURVE",
"156 237 OFFCURVE",
"87 46 CURVE SMOOTH",
"85 40 OFFCURVE",
"84 35 OFFCURVE",
"84 31 CURVE SMOOTH",
"84 8 OFFCURVE",
"120 8 OFFCURVE",
"141 8 CURVE SMOOTH"
);
},
{
closed = 1;
nodes = (
"426 33 OFFCURVE",
"466 61 OFFCURVE",
"466 122 CURVE SMOOTH",
"466 172 OFFCURVE",
"414 218 OFFCURVE",
"364 218 CURVE SMOOTH",
"318 218 OFFCURVE",
"316 149 OFFCURVE",
"306 104 CURVE",
"308 54 OFFCURVE",
"332 33 OFFCURVE",
"386 33 CURVE SMOOTH"
);
},
{
closed = 1;
nodes = (
"363 78 OFFCURVE",
"358 93 OFFCURVE",
"358 126 CURVE SMOOTH",
"358 152 OFFCURVE",
"366 166 OFFCURVE",
"382 166 CURVE SMOOTH",
"406 166 OFFCURVE",
"422 142 OFFCURVE",
"422 120 CURVE SMOOTH",
"422 101 OFFCURVE",
"411 78 OFFCURVE",
"389 78 CURVE SMOOTH"
);
},
{
closed = 1;
nodes = (
"146 478 OFFCURVE",
"207 525 OFFCURVE",
"207 581 CURVE SMOOTH",
"207 624 OFFCURVE",
"157 679 OFFCURVE",
"115 683 CURVE",
"80 683 OFFCURVE",
"24 635 OFFCURVE",
"24 577 CURVE SMOOTH",
"24 523 OFFCURVE",
"61 478 OFFCURVE",
"106 478 CURVE SMOOTH"
);
},
{
closed = 1;
nodes = (
"88 536 OFFCURVE",
"76 542 OFFCURVE",
"76 561 CURVE SMOOTH",
"76 604 OFFCURVE",
"104 622 OFFCURVE",
"117 622 CURVE SMOOTH",
"131 622 OFFCURVE",
"164 611 OFFCURVE",
"164 581 CURVE",
"162 554 OFFCURVE",
"136 531 OFFCURVE",
"110 531 CURVE"
);
}
);
width = 542;
}
);
unicode = 0025;
},
{
glyphname = at;
lastChange = "2019-03-20 23:36:59 +0000";
layers = (
{
layerId = UUID0;
paths = (
{
closed = 1;
nodes = (
"368 -49 OFFCURVE",
"503 -36 OFFCURVE",
"502 -17 CURVE SMOOTH",
"501 9 OFFCURVE",
"503 57 OFFCURVE",
"480 57 CURVE SMOOTH",
"446 57 OFFCURVE",
"365 40 OFFCURVE",
"316 41 CURVE SMOOTH",
"125 43 OFFCURVE",
"113 154 OFFCURVE",
"113 293 CURVE SMOOTH",
"113 516 OFFCURVE",
"276 592 OFFCURVE",
"419 638 CURVE SMOOTH",
"481 658 OFFCURVE",
"649 636 OFFCURVE",
"686 589 CURVE SMOOTH",
"710 558 OFFCURVE",
"714 524 OFFCURVE",
"721 490 CURVE",
"735 407 OFFCURVE",
"731 148 OFFCURVE",
"660 143 CURVE",
"615 149 OFFCURVE",
"625 186 OFFCURVE",
"626 209 CURVE SMOOTH",
"631 286 OFFCURVE",
"637 363 OFFCURVE",
"641 440 CURVE",
"642 449 OFFCURVE",
"640 461 OFFCURVE",
"635 468 CURVE SMOOTH",
"625 482 OFFCURVE",
"612 495 OFFCURVE",
"594 500 CURVE SMOOTH",
"564 509 OFFCURVE",
"504 517 OFFCURVE",
"473 511 CURVE SMOOTH",
"393 494 OFFCURVE",
"319 470 OFFCURVE",
"267 405 CURVE SMOOTH",
"237 368 OFFCURVE",
"221 305 OFFCURVE",
"223 257 CURVE",
"226 218 OFFCURVE",
"240 170 OFFCURVE",
"273 151 CURVE SMOOTH",
"316 127 OFFCURVE",
"377 130 OFFCURVE",
"421 153 CURVE SMOOTH",
"450 168 OFFCURVE",
"478 189 OFFCURVE",
"500 211 CURVE",
"508 221 OFFCURVE",
"517 244 OFFCURVE",
"526 253 CURVE",
"527 252 OFFCURVE",
"529 252 OFFCURVE",
"530 251 CURVE",
"530 234 OFFCURVE",
"532 216 OFFCURVE",
"530 199 CURVE",
"543 107 OFFCURVE",
"567 85 OFFCURVE",
"620 62 CURVE",
"793 12 OFFCURVE",
"838 261 OFFCURVE",
"843 316 CURVE SMOOTH",
"849 388 OFFCURVE",
"847 460 OFFCURVE",
"828 532 CURVE SMOOTH",
"817 575 OFFCURVE",
"798 592 OFFCURVE",
"768 631 CURVE SMOOTH",
"720 695 OFFCURVE",
"588 745 OFFCURVE",
"501 745 CURVE SMOOTH",
"190 745 OFFCURVE",
"24 466 OFFCURVE",
"24 318 CURVE SMOOTH",
"22 128 OFFCURVE",
"79 -57 OFFCURVE",
"272 -52 CURVE SMOOTH"
);
},
{
closed = 1;
nodes = (
"333 225 OFFCURVE",
"308 231 OFFCURVE",
"309 260 CURVE SMOOTH",
"310 310 OFFCURVE",
"341 351 OFFCURVE",
"381 380 CURVE SMOOTH",
"404 397 OFFCURVE",
"424 408 OFFCURVE",
"448 423 CURVE SMOOTH",
"467 435 OFFCURVE",
"488 440 OFFCURVE",
"510 442 CURVE",
"514 442 OFFCURVE",
"517 443 OFFCURVE",
"521 442 CURVE",
"538 441 OFFCURVE",
"543 435 OFFCURVE",
"541 417 CURVE SMOOTH",
"539 392 OFFCURVE",
"517 367 OFFCURVE",
"504 346 CURVE SMOOTH",
"474 299 OFFCURVE",
"445 280 OFFCURVE",
"404 245 CURVE",
"391 233 OFFCURVE",
"379 226 OFFCURVE",
"361 226 CURVE"
);
}
);
width = 876;
}
);
unicode = 0040;
},
{
glyphname = ampersand;
lastChange = "2019-03-20 23:36:59 +0000";
layers = (
{
layerId = UUID0;
paths = (
{
closed = 1;
nodes = (
"469 -70 OFFCURVE",
"472 -69 OFFCURVE",
"475 -67 CURVE",
"493 -59 OFFCURVE",
"550 -37 OFFCURVE",
"550 -23 CURVE SMOOTH",
"550 -19 OFFCURVE",
"545 -17 OFFCURVE",
"538 -10 CURVE SMOOTH",
"491 40 OFFCURVE",
"455 79 OFFCURVE",
"428 110 CURVE",
"455 155 OFFCURVE",
"479 207 OFFCURVE",
"482 245 CURVE",
"482 254 LINE SMOOTH",
"482 260 OFFCURVE",
"481 267 OFFCURVE",
"478 270 CURVE",
"458 287 OFFCURVE",
"419 295 OFFCURVE",
"411 295 CURVE SMOOTH",
"405 295 OFFCURVE",
"399 293 OFFCURVE",
"399 285 CURVE",
"392 264 OFFCURVE",
"378 229 OFFCURVE",
"360 194 CURVE",
"327 239 OFFCURVE",
"311 270 OFFCURVE",
"273 332 CURVE SMOOTH",
"269 339 OFFCURVE",
"258 361 OFFCURVE",
"245 389 CURVE",
"253 396 LINE SMOOTH",
"320 453 OFFCURVE",
"385 519 OFFCURVE",
"385 603 CURVE SMOOTH",
"385 654 OFFCURVE",
"364 679 OFFCURVE",
"346 707 CURVE SMOOTH",
"326 738 OFFCURVE",
"291 756 OFFCURVE",
"257 756 CURVE SMOOTH",
"197 756 OFFCURVE",
"90 705 OFFCURVE",
"90 569 CURVE SMOOTH",
"90 563 OFFCURVE",
"90 556 OFFCURVE",
"91 549 CURVE",
"93 528 OFFCURVE",
"117 456 OFFCURVE",
"137 407 CURVE",
"62 332 OFFCURVE",
"17 270 OFFCURVE",
"17 157 CURVE SMOOTH",
"17 35 OFFCURVE",
"112 -28 OFFCURVE",
"223 -28 CURVE SMOOTH",
"276 -28 OFFCURVE",
"324 -9 OFFCURVE",
"369 34 CURVE",
"396 -3 OFFCURVE",
"420 -38 OFFCURVE",
"433 -59 CURVE",
"437 -64 OFFCURVE",
"453 -70 OFFCURVE",
"465 -70 CURVE SMOOTH"
);
},
{
closed = 1;
nodes = (
"159 46 OFFCURVE",
"122 98 OFFCURVE",
"122 175 CURVE SMOOTH",
"122 237 OFFCURVE",
"139 279 OFFCURVE",
"179 326 CURVE",
"194 302 OFFCURVE",
"205 284 OFFCURVE",
"232 235 CURVE",
"242 215 OFFCURVE",
"275 168 OFFCURVE",
"311 116 CURVE",
"281 76 OFFCURVE",
"245 46 OFFCURVE",
"208 46 CURVE SMOOTH"
);
},
{
closed = 1;
nodes = (
"193 512 OFFCURVE",
"182 545 OFFCURVE",
"181 562 CURVE",
"181 567 OFFCURVE",
"180 571 OFFCURVE",
"180 576 CURVE SMOOTH",
"180 611 OFFCURVE",
"199 681 OFFCURVE",
"243 681 CURVE SMOOTH",
"280 681 OFFCURVE",
"296 622 OFFCURVE",
"296 593 CURVE SMOOTH",
"296 567 OFFCURVE",
"279 546 OFFCURVE",
"260 527 CURVE SMOOTH",
"242 508 OFFCURVE",
"224 491 OFFCURVE",
"208 475 CURVE"
);
}
);
width = 565;
}
);
unicode = 0026;
},
